Fraunces144ptExtraSoft-Regular.ufo
<glyph name="exclam" format="2">
  <advance width="497.4"/>
  <unicode hex="0021"/>
  <outline>
    <contour>
      <point x="247.8" y="1453.6" type="curve" smooth="yes"/>
      <point x="165.4" y="1453.6"/>
      <point x="129.2" y="1411.8"/>
      <point x="129.2" y="1348.2" type="curve" smooth="yes"/>
      <point x="129.2" y="1329.0"/>
      <point x="131.39999999999998" y="1297.0"/>
      <point x="135.0" y="1269.8" type="curve" smooth="yes"/>
      <point x="192.4" y="439.8" type="line" smooth="yes"/>
      <point x="199.2" y="395.0"/>
      <point x="216.2" y="378.0"/>
      <point x="247.8" y="378.0" type="curve" smooth="yes"/>
      <point x="279.0" y="378.0"/>
      <point x="295.2" y="395.6"/>
      <point x="302.0" y="441.0" type="curve" smooth="yes"/>
      <point x="359.4" y="1269.8" type="line" smooth="yes"/>
      <point x="363.0" y="1297.0"/>
      <point x="365.8" y="1329.0"/>
      <point x="365.8" y="1348.2" type="curve" smooth="yes"/>
      <point x="365.8" y="1411.8"/>
      <point x="329.8" y="1453.6"/>
    </contour>
    <component base="period" xOffset="56.6"/>
  </outline>
</glyph>
<glyph name="numbersign" format="2">
  <advance width="1135.2"/>
  <unicode hex="0023"/>
  <outline>
    <contour>
      <point x="450.6" y="685.4" type="curve" smooth="yes"/>
      <point x="491.70057643772634" y="857.5375343624285"/>
      <point x="579.6" y="1175.0"/>
      <point x="617.8" y="1318.8" type="curve" smooth="yes"/>
      <point x="630.2" y="1368.2"/>
      <point x="620.2" y="1396.8"/>
      <point x="588.2" y="1405.8" type="curve" smooth="yes"/>
      <point x="556.2" y="1416.4"/>
      <point x="533.0" y="1396.2"/>
      <point x="520.6" y="1349.0" type="curve" smooth="yes"/>
      <point x="485.4" y="1205.6"/>
      <point x="417.2439976253951" y="887.466622018038"/>
      <point x="374.6" y="715.4" type="curve" smooth="yes"/>
      <point x="331.5651517646711" y="537.8458829259499"/>
      <point x="229.6" y="220.2"/>
      <point x="191.8" y="70.4" type="curve" smooth="yes"/>
      <point x="181.6" y="27.0"/>
      <point x="192.2" y="-2.5999999999999996"/>
      <point x="224.6" y="-11.2" type="curve" smooth="yes"/>
      <point x="258.4" y="-19.6"/>
      <point x="280.0" y="0.20000000000000018"/>
      <point x="291.6" y="43.2" type="curve" smooth="yes"/>
      <point x="326.2" y="181.8"/>
      <point x="408.5727731292072" y="510.0966033564194"/>
    </contour>
    <contour>
      <point x="601.0" y="920.2" type="curve" smooth="yes"/>
      <point x="474.8" y="918.8"/>
      <point x="247.8" y="941.6"/>
      <point x="142.4" y="940.6" type="curve" smooth="yes"/>
      <point x="104.4" y="940.2"/>
      <point x="81.4" y="922.6"/>
      <point x="81.4" y="885.8" type="curve" smooth="yes"/>
      <point x="82.0" y="849.0"/>
      <point x="104.0" y="828.6"/>
      <point x="143.4" y="830.0" type="curve" smooth="yes"/>
      <point x="247.8" y="828.6"/>
      <point x="477.8" y="834.6"/>
      <point x="600.0" y="836.6" type="curve" smooth="yes"/>
      <point x="722.078350515464" y="836.6"/>
      <point x="946.479721178944" y="825.4618245186604"/>
      <point x="1048.4" y="823.4" type="curve" smooth="yes"/>
      <point x="1091.4" y="824.8"/>
      <point x="1115.2" y="844.4"/>
      <point x="1116.0" y="881.4" type="curve" smooth="yes"/>
      <point x="1115.2" y="917.0"/>
      <point x="1091.0" y="934.4"/>
      <point x="1049.4" y="934.4" type="curve" smooth="yes"/>
      <point x="947.479721178944" y="931.9381754813396"/>
      <point x="723.478350515464" y="920.2"/>
    </contour>
    <contour>
      <point x="549.8" y="474.0" type="curve" smooth="yes"/>
      <point x="670.639175257732" y="474.0"/>
      <point x="892.0398689787231" y="462.4309120686654"/>
      <point x="992.6" y="460.4" type="curve" smooth="yes"/>
      <point x="1035.2" y="461.8"/>
      <point x="1059.4" y="481.2"/>
      <point x="1060.8" y="518.8" type="curve" smooth="yes"/>
      <point x="1059.4" y="553.8"/>
      <point x="1035.2" y="571.2"/>
      <point x="993.6" y="571.2" type="curve" smooth="yes"/>
      <point x="893.0398689787231" y="568.7690879313346"/>
      <point x="672.0391752577319" y="557.0"/>
      <point x="550.8" y="557.0" type="curve" smooth="yes"/>
      <point x="422.32220644636635" y="555.5707339861283"/>
      <point x="188.75091542205473" y="578.4292650576814"/>
      <point x="81.2" y="577.4" type="curve" smooth="yes"/>
      <point x="42.6" y="577.0"/>
      <point x="19.2" y="559.4"/>
      <point x="19.2" y="523.2" type="curve" smooth="yes"/>
      <point x="20.2" y="486.0"/>
      <point x="42.2" y="466.0"/>
      <point x="81.6" y="467.0" type="curve" smooth="yes"/>
      <point x="188.7576413935484" y="465.97066338943034"/>
      <point x="424.80300723850377" y="471.9413395823579"/>
    </contour>
    <contour>
      <point x="624.2" y="43.2" type="curve" smooth="yes"/>
      <point x="658.6" y="182.4"/>
      <point x="740.4867637046422" y="510.0921904881563"/>
      <point x="783.2" y="685.4" type="curve" smooth="yes"/>
      <point x="824.9925632481256" y="857.54880895293"/>
      <point x="912.8" y="1175.0"/>
      <point x="950.2" y="1318.8" type="curve" smooth="yes"/>
      <point x="962.6" y="1368.2"/>
      <point x="953.2" y="1396.8"/>
      <point x="921.4" y="1405.8" type="curve" smooth="yes"/>
      <point x="888.6" y="1416.4"/>
      <point x="866.0" y="1396.2"/>
      <point x="853.6" y="1349.0" type="curve" smooth="yes"/>
      <point x="817.6" y="1205.6"/>
      <point x="750.6439976253951" y="887.466622018038"/>
      <point x="708.0" y="715.4" type="curve" smooth="yes"/>
      <point x="663.5980806555623" y="537.8412435498911"/>
      <point x="562.2" y="220.2"/>
      <point x="524.8" y="70.4" type="curve" smooth="yes"/>
      <point x="514.6" y="27.0"/>
      <point x="525.2" y="-2.5999999999999996"/>
      <point x="557.8" y="-11.2" type="curve" smooth="yes"/>
      <point x="591.0" y="-19.6"/>
      <point x="613.0" y="0.20000000000000018"/>
    </contour>
  </outline>
</glyph>
<glyph name="dollar" format="2">
  <advance width="1038.4"/>
  <unicode hex="0024"/>
  <outline>
    <contour>
      <point x="549.2" y="1394.0" type="curve" smooth="yes"/>
      <point x="271.8" y="1394.0"/>
      <point x="89.6" y="1220.8"/>
      <point x="89.6" y="1005.6" type="curve" smooth="yes"/>
      <point x="89.6" y="833.2"/>
      <point x="189.2" y="695.0"/>
      <point x="476.2" y="604.2" type="curve" smooth="yes"/>
      <point x="718.3769963718789" y="526.5824410158739"/>
      <point x="794.8" y="426.8"/>
      <point x="794.8" y="307.4" type="curve" smooth="yes"/>
      <point x="794.8" y="168.8"/>
      <point x="692.2" y="89.80000000000001"/>
      <point x="525.8" y="89.80000000000001" type="curve" smooth="yes"/>
      <point x="359.6" y="89.80000000000001"/>
      <point x="261.4" y="171.4"/>
      <point x="261.4" y="283.6" type="curve" smooth="yes"/>
      <point x="261.4" y="327.6" type="line" smooth="yes"/>
      <point x="261.4" y="392.4"/>
      <point x="223.2" y="432.4"/>
      <point x="170.8" y="432.4" type="curve" smooth="yes"/>
      <point x="114.8" y="432.4"/>
      <point x="77.6" y="382.8"/>
      <point x="77.6" y="312.6" type="curve" smooth="yes"/>
      <point x="77.6" y="145.2"/>
      <point x="258.2" y="4.2"/>
      <point x="524.6" y="4.2" type="curve" smooth="yes"/>
      <point x="805.0" y="4.2"/>
      <point x="972.6" y="155.4"/>
      <point x="972.6" y="379.2" type="curve" smooth="yes"/>
      <point x="972.6" y="530.6"/>
      <point x="875.4911460388169" y="677.2772432176489"/>
      <point x="589.0" y="769.0" type="curve" smooth="yes"/>
      <point x="345.0" y="845.2"/>
      <point x="267.20000000000005" y="944.8"/>
      <point x="267.20000000000005" y="1068.4" type="curve" smooth="yes"/>
      <point x="267.20000000000005" y="1212.444966442953"/>
      <point x="375.0" y="1310.2"/>
      <point x="538.6" y="1310.2" type="curve" smooth="yes"/>
      <point x="684.6" y="1310.2"/>
      <point x="773.0" y="1229.2298076923078"/>
      <point x="773.0" y="1122.4" type="curve" smooth="yes"/>
      <point x="773.0" y="1073.8" type="line" smooth="yes"/>
      <point x="773.0" y="1016.4"/>
      <point x="815.9609756097561" y="977.4"/>
      <point x="871.6" y="977.4" type="curve" smooth="yes"/>
      <point x="917.3739130434783" y="977.4"/>
      <point x="957.6" y="1024.2"/>
      <point x="957.6" y="1095.4" type="curve" smooth="yes"/>
      <point x="957.6" y="1267.0"/>
      <point x="805.8" y="1394.0"/>
    </contour>
    <contour>
      <point x="567.8" y="729.0" type="line"/>
      <point x="567.8" y="1296.6"/>
      <point x="595.6" y="1403.4"/>
      <point x="595.6" y="1488.6" type="curve" smooth="yes"/>
      <point x="595.6" y="1539.5375"/>
      <point x="569.0" y="1563.8"/>
      <point x="536.2" y="1563.8" type="curve" smooth="yes"/>
      <point x="500.2" y="1563.8"/>
      <point x="473.8" y="1538.3375"/>
      <point x="473.8" y="1490.2" type="curve" smooth="yes"/>
      <point x="473.8" y="1405.0"/>
      <point x="499.59999512604566" y="1296.1984939481156"/>
      <point x="497.6" y="729.0" type="curve"/>
    </contour>
    <contour>
      <point x="498.8" y="659.6" type="line"/>
      <point x="498.8" y="114.2"/>
      <point x="473.4" y="9.8"/>
      <point x="473.4" y="-76.0" type="curve" smooth="yes"/>
      <point x="473.4" y="-133.2923076923077"/>
      <point x="498.8" y="-159.60000000000002"/>
      <point x="534.0" y="-159.60000000000002" type="curve" smooth="yes"/>
      <point x="571.8" y="-159.60000000000002"/>
      <point x="595.8" y="-132.63157894736844"/>
      <point x="595.8" y="-78.80000000000001" type="curve" smooth="yes"/>
      <point x="595.8" y="9.4"/>
      <point x="567.6" y="114.6"/>
      <point x="568.4" y="659.6" type="curve"/>
    </contour>
  </outline>
</glyph>
<glyph name="ampersand" format="2">
  <advance width="1687.2"/>
  <unicode hex="0026"/>
  <outline>
    <contour>
      <point x="1165.4" y="-39.4" type="curve" smooth="yes"/>
      <point x="954.6" y="-39.4"/>
      <point x="824.6" y="57.2"/>
      <point x="693.6" y="273.6" type="curve" smooth="yes"/>
      <point x="557.6" y="494.8"/>
      <point x="487.4" y="681.4"/>
      <point x="487.4" y="884.2" type="curve" smooth="yes"/>
      <point x="487.4" y="1105.2"/>
      <point x="614.4" y="1264.4"/>
      <point x="819.6" y="1264.4" type="curve" smooth="yes"/>
      <point x="978.2" y="1264.4"/>
      <point x="1087.0" y="1146.2"/>
      <point x="1087.0" y="978.8" type="curve" smooth="yes"/>
      <point x="1087.0" y="791.2"/>
      <point x="943.8" y="655.0"/>
      <point x="678.6" y="620.6" type="curve"/>
      <point x="668.8" y="692.0" type="line"/>
      <point x="837.6" y="729.8"/>
      <point x="927.2" y="831.6"/>
      <point x="927.2" y="998.8" type="curve" smooth="yes"/>
      <point x="927.2" y="1110.0"/>
      <point x="876.0" y="1183.8"/>
      <point x="808.2" y="1183.8" type="curve" smooth="yes"/>
      <point x="711.4" y="1183.8"/>
      <point x="650.6" y="1094.6"/>
      <point x="650.6" y="949.6" type="curve" smooth="yes"/>
      <point x="650.6" y="782.2"/>
      <point x="712.4" y="602.8"/>
      <point x="838.0" y="402.6" type="curve" smooth="yes"/>
      <point x="984.2" y="167.2"/>
      <point x="1094.8" y="80.2"/>
      <point x="1224.0" y="80.2" type="curve" smooth="yes"/>
      <point x="1392.2" y="80.2"/>
      <point x="1538.2" y="211.8"/>
      <point x="1538.2" y="517.2" type="curve" smooth="yes"/>
      <point x="1538.2" y="825.6"/>
      <point x="1417.6" y="1082.0"/>
      <point x="1229.8" y="1254.4" type="curve" smooth="yes"/>
      <point x="1081.4" y="1390.4"/>
      <point x="889.4" y="1470.8"/>
      <point x="691.4" y="1470.8" type="curve" smooth="yes"/>
      <point x="379.8" y="1470.8"/>
      <point x="243.0" y="1317.8"/>
      <point x="243.0" y="1162.2" type="curve" smooth="yes"/>
      <point x="243.0" y="1073.8"/>
      <point x="300.0" y="1045.0"/>
      <point x="300.0" y="951.2" type="curve" smooth="yes"/>
      <point x="300.0" y="888.8"/>
      <point x="258.2" y="843.6"/>
      <point x="198.8" y="843.6" type="curve" smooth="yes"/>
      <point x="130.2" y="843.6"/>
      <point x="84.8" y="922.0"/>
      <point x="84.8" y="1032.8" type="curve" smooth="yes"/>
      <point x="84.8" y="1362.0"/>
      <point x="306.4" y="1561.0"/>
      <point x="695.2" y="1561.0" type="curve" smooth="yes"/>
      <point x="922.8" y="1561.0"/>
      <point x="1136.4" y="1475.0"/>
      <point x="1300.0" y="1325.6" type="curve" smooth="yes"/>
      <point x="1504.4" y="1137.8"/>
      <point x="1633.2" y="856.4"/>
      <point x="1633.2" y="517.2" type="curve" smooth="yes"/>
      <point x="1633.2" y="168.8"/>
      <point x="1451.8" y="-39.4"/>
    </contour>
    <contour>
      <point x="947.0" y="201.8" type="line"/>
      <point x="1071.6" y="305.8"/>
      <point x="1125.6" y="401.4"/>
      <point x="1125.6" y="495.0" type="curve" smooth="yes"/>
      <point x="1125.6" y="547.0"/>
      <point x="1107.4" y="568.8"/>
      <point x="1107.4" y="621.8" type="curve" smooth="yes"/>
      <point x="1107.4" y="679.4"/>
      <point x="1148.2" y="726.8"/>
      <point x="1200.2" y="726.8" type="curve" smooth="yes"/>
      <point x="1250.2" y="726.8"/>
      <point x="1292.0" y="674.0"/>
      <point x="1292.0" y="595.4" type="curve" smooth="yes"/>
      <point x="1292.0" y="437.4"/>
      <point x="1201.0" y="282.2"/>
      <point x="981.6" y="145.4" type="curve"/>
    </contour>
    <contour>
      <point x="554.8" y="606.2" type="line"/>
      <point x="368.20000000000005" y="574.8"/>
      <point x="291.0" y="461.0"/>
      <point x="291.0" y="310.8" type="curve" smooth="yes"/>
      <point x="291.0" y="168.0"/>
      <point x="388.20000000000005" y="72.8"/>
      <point x="518.2" y="72.8" type="curve" smooth="yes"/>
      <point x="613.8" y="72.8"/>
      <point x="695.8" y="103.60000000000001"/>
      <point x="789.0" y="176.2" type="curve"/>
      <point x="830.0" y="115.0" type="line"/>
      <point x="724.4" y="12.0"/>
      <point x="599.2" y="-31.0"/>
      <point x="444.8" y="-31.0" type="curve" smooth="yes"/>
      <point x="220.6" y="-31.0"/>
      <point x="87.6" y="85.4"/>
      <point x="87.6" y="289.0" type="curve" smooth="yes"/>
      <point x="87.6" y="497.4"/>
      <point x="240.8" y="655.4"/>
      <point x="554.8" y="682.6" type="curve"/>
    </contour>
  </outline>
</glyph>
<glyph name="quotesingle" format="2">
  <advance width="289.6"/>
  <unicode hex="0027"/>
  <outline>
    <contour>
      <point x="140.0" y="912.0" type="curve" smooth="yes"/>
      <point x="167.792" y="912.0"/>
      <point x="187.60000000000002" y="928.2"/>
      <point x="192.4" y="965.4" type="curve" smooth="yes"/>
      <point x="234.8" y="1419.2" type="line" smooth="yes"/>
      <point x="249.25444121630022" y="1509.2588518281798"/>
      <point x="220.82285714285715" y="1560.0"/>
      <point x="145.8" y="1560.0" type="curve" smooth="yes"/>
      <point x="71.17714285714285" y="1560.0"/>
      <point x="40.19446790746615" y="1510.0678460946071"/>
      <point x="54.0" y="1418.8" type="curve" smooth="yes"/>
      <point x="89.8" y="966.2" type="line" smooth="yes"/>
      <point x="94.2" y="930.2"/>
      <point x="115.42222222222222" y="912.0"/>
    </contour>
  </outline>
</glyph>
<glyph name="parenleft" format="2">
  <advance width="605.6"/>
  <unicode hex="0028"/>
  <outline>
    <contour>
      <point x="103.6" y="603.4" type="curve" smooth="yes"/>
      <point x="103.6" y="215.0"/>
      <point x="285.6" y="-116.8"/>
      <point x="501.0" y="-230.0" type="curve" smooth="yes"/>
      <point x="539.8" y="-245.8"/>
      <point x="566.8" y="-240.4"/>
      <point x="576.6" y="-215.0" type="curve" smooth="yes"/>
      <point x="585.0" y="-196.0"/>
      <point x="573.0" y="-174.4"/>
      <point x="549.6" y="-151.6" type="curve" smooth="yes"/>
      <point x="386.8" y="-4.399999999999999"/>
      <point x="270.4" y="276.2"/>
      <point x="270.4" y="603.4" type="curve" smooth="yes"/>
      <point x="270.4" y="932.0"/>
      <point x="391.2" y="1213.4"/>
      <point x="549.6" y="1357.8" type="curve" smooth="yes"/>
      <point x="572.6" y="1381.2"/>
      <point x="585.0" y="1402.0"/>
      <point x="576.6" y="1421.8" type="curve" smooth="yes"/>
      <point x="566.8" y="1446.6"/>
      <point x="539.8" y="1453.6"/>
      <point x="501.0" y="1437.8" type="curve" smooth="yes"/>
      <point x="285.0" y="1325.0"/>
      <point x="103.6" y="992.8"/>
    </contour>
  </outline>
</glyph>
<glyph name="asterisk" format="2">
  <advance width="1131.6"/>
  <unicode hex="002A"/>
  <outline>
    <contour>
      <point x="586.4" y="1020.2" type="line"/>
      <point x="586.4" y="1157.2"/>
      <point x="658.2" y="1362.4"/>
      <point x="658.2" y="1456.8" type="curve" smooth="yes"/>
      <point x="658.2" y="1511.0"/>
      <point x="624.4" y="1540.2"/>
      <point x="568.4" y="1540.2" type="curve" smooth="yes"/>
      <point x="507.4" y="1540.2"/>
      <point x="476.4" y="1511.0"/>
      <point x="476.4" y="1456.8" type="curve" smooth="yes"/>
      <point x="476.4" y="1362.4"/>
      <point x="548.8" y="1157.2"/>
      <point x="548.8" y="1020.2" type="curve"/>
    </contour>
    <contour>
      <point x="573.2" y="1038.6" type="line"/>
      <point x="447.8" y="1081.0"/>
      <point x="278.2" y="1215.6"/>
      <point x="191.0" y="1244.6" type="curve" smooth="yes"/>
      <point x="142.2" y="1262.6"/>
      <point x="104.2" y="1237.2"/>
      <point x="86.6" y="1180.8" type="curve" smooth="yes"/>
      <point x="68.19999999999999" y="1120.6"/>
      <point x="85.0" y="1081.0"/>
      <point x="134.4" y="1063.0" type="curve" smooth="yes"/>
      <point x="221.4" y="1034.4"/>
      <point x="436.4" y="1044.8"/>
      <point x="562.6" y="1001.8" type="curve"/>
    </contour>
    <contour>
      <point x="552.6" y="1031.8" type="line"/>
      <point x="474.6" y="921.0"/>
      <point x="297.4" y="797.4"/>
      <point x="243.8" y="720.8" type="curve" smooth="yes"/>
      <point x="213.39999999999998" y="677.8"/>
      <point x="224.6" y="632.6"/>
      <point x="270.0" y="598.0" type="curve" smooth="yes"/>
      <point x="318.8" y="560.4"/>
      <point x="361.2" y="564.4"/>
      <point x="391.2" y="609.0" type="curve" smooth="yes"/>
      <point x="445.4" y="686.0"/>
      <point x="505.4" y="897.2"/>
      <point x="582.4" y="1008.6" type="curve"/>
    </contour>
    <contour>
      <point x="552.6" y="1008.6" type="line"/>
      <point x="630.4" y="897.2"/>
      <point x="690.2" y="686.0"/>
      <point x="743.4" y="609.0" type="curve" smooth="yes"/>
      <point x="774.4" y="564.4"/>
      <point x="818.2" y="562.4"/>
      <point x="864.6" y="597.4" type="curve" smooth="yes"/>
      <point x="913.4" y="634.2"/>
      <point x="921.8" y="677.8"/>
      <point x="890.8" y="720.8" type="curve" smooth="yes"/>
      <point x="837.8" y="797.4"/>
      <point x="660.6" y="920.4"/>
      <point x="582.4" y="1031.8" type="curve"/>
    </contour>
    <contour>
      <point x="562.6" y="1038.0" type="curve"/>
      <point x="573.2" y="1001.2" type="line"/>
      <point x="698.8" y="1044.2"/>
      <point x="913.2" y="1034.4"/>
      <point x="1000.2" y="1063.0" type="curve" smooth="yes"/>
      <point x="1049.6" y="1081.0"/>
      <point x="1065.2" y="1123.8"/>
      <point x="1048.0" y="1179.6" type="curve" smooth="yes"/>
      <point x="1029.6" y="1240.0"/>
      <point x="993.0" y="1262.6"/>
      <point x="943.6" y="1244.6" type="curve" smooth="yes"/>
      <point x="857.0" y="1215.6"/>
      <point x="687.4" y="1080.4"/>
    </contour>
  </outline>
</glyph>
<glyph name="comma" format="2">
  <advance width="389.8"/>
  <unicode hex="002C"/>
  <outline>
    <contour>
      <point x="186.60000000000002" y="-4.0" type="curve" smooth="yes"/>
      <point x="201.2" y="-4.0" type="line" smooth="yes"/>
      <point x="224.75555555555556" y="-4.0"/>
      <point x="237.0" y="-15.2"/>
      <point x="237.0" y="-37.2" type="curve" smooth="yes"/>
      <point x="237.0" y="-133.6"/>
      <point x="187.0" y="-216.0"/>
      <point x="91.2" y="-250.2" type="curve" smooth="yes"/>
      <point x="54.8" y="-262.4"/>
      <point x="41.0" y="-287.6"/>
      <point x="50.0" y="-313.0" type="curve" smooth="yes"/>
      <point x="59.8" y="-340.6"/>
      <point x="81.0" y="-349.0"/>
      <point x="124.6" y="-336.2" type="curve" smooth="yes"/>
      <point x="270.20000000000005" y="-287.8"/>
      <point x="344.20000000000005" y="-179.2"/>
      <point x="344.20000000000005" y="39.8" type="curve" smooth="yes"/>
      <point x="344.20000000000005" y="182.6"/>
      <point x="279.8658227848101" y="244.4"/>
      <point x="197.60000000000002" y="244.4" type="curve" smooth="yes"/>
      <point x="127.8" y="244.4"/>
      <point x="76.0" y="188.20000000000002"/>
      <point x="76.0" y="112.0" type="curve" smooth="yes"/>
      <point x="76.0" y="43.2"/>
      <point x="111.6" y="-4.0"/>
    </contour>
  </outline>
</glyph>
<glyph name="hyphen" format="2">
  <advance width="543.8"/>
  <unicode hex="002D"/>
  <outline>
    <contour>
      <point x="473.0" y="584.8" type="curve" smooth="yes"/>
      <point x="105.4" y="584.8" type="line" smooth="yes"/>
      <point x="77.2" y="584.8"/>
      <point x="63.400000000000006" y="577.6"/>
      <point x="52.6" y="545.4" type="curve" smooth="yes"/>
      <point x="37.6" y="500.2" type="line" smooth="yes"/>
      <point x="27.6" y="469.6"/>
      <point x="36.4" y="451.4"/>
      <point x="70.2" y="451.4" type="curve" smooth="yes"/>
      <point x="437.8" y="451.4" type="line" smooth="yes"/>
      <point x="466.6" y="451.4"/>
      <point x="481.4" y="459.2"/>
      <point x="491.2" y="490.2" type="curve" smooth="yes"/>
      <point x="505.6" y="536.0" type="line" smooth="yes"/>
      <point x="515.6" y="566.6"/>
      <point x="506.8" y="584.8"/>
    </contour>
  </outline>
</glyph>
<glyph name="period" format="2">
  <advance width="382.0"/>
  <unicode hex="002E"/>
  <outline>
    <contour>
      <point x="191.2" y="-16.8" type="curve" smooth="yes"/>
      <point x="264.0" y="-16.8"/>
      <point x="317.20000000000005" y="41.6"/>
      <point x="317.20000000000005" y="111.8" type="curve" smooth="yes"/>
      <point x="317.20000000000005" y="183.6"/>
      <point x="264.0" y="239.8"/>
      <point x="191.2" y="239.8" type="curve" smooth="yes"/>
      <point x="120.4" y="239.8"/>
      <point x="65.4" y="183.6"/>
      <point x="65.4" y="111.8" type="curve" smooth="yes"/>
      <point x="65.4" y="41.6"/>
      <point x="120.4" y="-16.8"/>
    </contour>
  </outline>
</glyph>
<glyph name="slash" format="2">
  <advance width="755.0"/>
  <unicode hex="002F"/>
  <outline>
    <contour>
      <point x="434.4" y="585.8" type="curve" smooth="yes"/>
      <point x="494.9654901391691" y="781.1019002462059"/>
      <point x="625.3514742786082" y="1194.9747337440479"/>
      <point x="679.0" y="1375.4" type="curve" smooth="yes"/>
      <point x="693.4067203109969" y="1416.1184808552416"/>
      <point x="680.2720056154417" y="1452.7725692893555"/>
      <point x="644.6" y="1467.2" type="curve" smooth="yes"/>
      <point x="605.1514023055589" y="1483.5042276931204"/>
      <point x="574.9060753880124" y="1463.318226164037"/>
      <point x="556.2" y="1407.6" type="curve" smooth="yes"/>
      <point x="498.89232813977594" y="1209.801957160574"/>
      <point x="381.4488385333965" y="812.1613260534381"/>
      <point x="323.4" y="629.4" type="curve" smooth="yes"/>
      <point x="263.600656077361" y="440.1221665053585"/>
      <point x="137.2465295090648" y="43.187977011631006"/>
      <point x="76.2" y="-157.8" type="curve" smooth="yes"/>
      <point x="63.08002745020549" y="-200.19986274897258"/>
      <point x="77.19561655936434" y="-239.39846579577753"/>
      <point x="111.6" y="-251.8" type="curve" smooth="yes"/>
      <point x="152.1138970531219" y="-266.5930029391239"/>
      <point x="181.7401693968593" y="-249.51087198174804"/>
      <point x="197.2" y="-203.0" type="curve" smooth="yes"/>
      <point x="250.56629726993646" y="-26.545926166808254"/>
      <point x="373.08908500776664" y="388.5356993355462"/>
    </contour>
  </outline>
</glyph>
<glyph name="zero" format="2">
  <advance width="1179.8"/>
  <unicode hex="0030"/>
  <outline>
    <contour>
      <point x="600.0" y="1418.2" type="curve" smooth="yes"/>
      <point x="278.0" y="1418.2"/>
      <point x="70.4" y="1145.6"/>
      <point x="70.4" y="701.4" type="curve" smooth="yes"/>
      <point x="70.4" y="248.8"/>
      <point x="258.8" y="-19.4"/>
      <point x="586.6" y="-19.4" type="curve" smooth="yes"/>
      <point x="902.0" y="-19.4"/>
      <point x="1109.6" y="256.2"/>
      <point x="1109.6" y="702.8" type="curve" smooth="yes"/>
      <point x="1109.6" y="1151.8"/>
      <point x="924.8" y="1418.2"/>
    </contour>
    <contour>
      <point x="897.6" y="685.2" type="curve" smooth="yes"/>
      <point x="897.6" y="304.7236994219653"/>
      <point x="773.2821705426356" y="90.60000000000001"/>
      <point x="594.2" y="90.60000000000001" type="curve" smooth="yes"/>
      <point x="398.85944584382867" y="90.60000000000001"/>
      <point x="282.4" y="280.06712564543886"/>
      <point x="282.4" y="719.0" type="curve" smooth="yes"/>
      <point x="282.4" y="1093.4763005780346"/>
      <point x="405.6" y="1308.2"/>
      <point x="592.4" y="1308.2" type="curve" smooth="yes"/>
      <point x="781.6" y="1308.2"/>
      <point x="897.6" y="1116.9328743545611"/>
    </contour>
  </outline>
</glyph>
<glyph name="one" format="2">
  <advance width="740.6"/>
  <unicode hex="0031"/>
  <outline>
    <contour>
      <point x="110.2" y="1215.8" type="line" smooth="yes"/>
      <point x="66.6" y="1215.8"/>
      <point x="45.6" y="1237.4"/>
      <point x="45.6" y="1273.4" type="curve" smooth="yes"/>
      <point x="45.6" y="1308.6"/>
      <point x="70.0" y="1335.4"/>
      <point x="112.2" y="1335.4" type="curve" smooth="yes"/>
      <point x="232.2" y="1335.4" type="line" smooth="yes"/>
      <point x="293.8" y="1335.4"/>
      <point x="327.2" y="1353.0"/>
      <point x="367.8" y="1402.0" type="curve" smooth="yes"/>
      <point x="389.4" y="1427.6"/>
      <point x="408.4" y="1438.8"/>
      <point x="430.8" y="1438.8" type="curve" smooth="yes"/>
      <point x="466.20000000000005" y="1438.8"/>
      <point x="488.0" y="1417.2"/>
      <point x="488.0" y="1369.4" type="curve" smooth="yes"/>
      <point x="488.0" y="191.2" type="line" smooth="yes"/>
      <point x="488.0" y="151.0"/>
      <point x="501.6" y="128.2"/>
      <point x="536.0" y="122.60000000000001" type="curve" smooth="yes"/>
      <point x="657.6" y="107.2" type="line" smooth="yes"/>
      <point x="690.2" y="99.8"/>
      <point x="709.4" y="80.60000000000001"/>
      <point x="709.4" y="51.800000000000004" type="curve" smooth="yes"/>
      <point x="709.4" y="19.0"/>
      <point x="689.8" y="0.0"/>
      <point x="649.8" y="0.0" type="curve" smooth="yes"/>
      <point x="101.4" y="0.0" type="line" smooth="yes"/>
      <point x="61.4" y="0.0"/>
      <point x="41.2" y="19.0"/>
      <point x="41.2" y="51.800000000000004" type="curve" smooth="yes"/>
      <point x="41.2" y="80.60000000000001"/>
      <point x="60.6" y="101.8"/>
      <point x="93.6" y="107.60000000000001" type="curve" smooth="yes"/>
      <point x="228.8" y="122.60000000000001" type="line" smooth="yes"/>
      <point x="262.8" y="127.0"/>
      <point x="282.2" y="151.0"/>
      <point x="282.2" y="192.2" type="curve" smooth="yes"/>
      <point x="282.2" y="1147.0" type="line" smooth="yes"/>
      <point x="282.2" y="1201.6"/>
      <point x="269.4" y="1215.8"/>
      <point x="233.2" y="1215.8" type="curve" smooth="yes"/>
    </contour>
  </outline>
</glyph>
<glyph name="two" format="2">
  <advance width="1058.8"/>
  <unicode hex="0032"/>
  <outline>
    <contour>
      <point x="190.0" y="203.0" type="line"/>
      <point x="550.0" y="485.0" type="line" smooth="yes"/>
      <point x="861.3986821335577" y="707.3885458262047"/>
      <point x="954.4" y="848.4097297297297"/>
      <point x="954.4" y="1038.6" type="curve" smooth="yes"/>
      <point x="954.4" y="1257.4"/>
      <point x="818.6540540540541" y="1418.2"/>
      <point x="532.0" y="1418.2" type="curve" smooth="yes"/>
      <point x="238.6" y="1418.2"/>
      <point x="89.8" y="1243.0"/>
      <point x="89.8" y="1051.6" type="curve" smooth="yes"/>
      <point x="89.8" y="968.4"/>
      <point x="129.4" y="921.6"/>
      <point x="192.0" y="921.6" type="curve" smooth="yes"/>
      <point x="255.6" y="921.6"/>
      <point x="296.4" y="962.6"/>
      <point x="296.4" y="1033.6" type="curve" smooth="yes"/>
      <point x="296.4" y="1099.8" type="line" smooth="yes"/>
      <point x="296.4" y="1223.6"/>
      <point x="368.0" y="1319.0"/>
      <point x="517.8" y="1319.0" type="curve" smooth="yes"/>
      <point x="658.8490066225165" y="1319.0"/>
      <point x="741.0" y="1221.5692307692307"/>
      <point x="741.0" y="1021.0" type="curve" smooth="yes"/>
      <point x="741.0" y="845.8"/>
      <point x="662.3375054937475" y="708.1486767138601"/>
      <point x="423.6" y="510.4" type="curve" smooth="yes"/>
      <point x="139.0" y="259.8" type="line"/>
    </contour>
    <contour>
      <point x="66.8" y="108.8" type="curve" smooth="yes"/>
      <point x="66.8" y="28.845070422535212"/>
      <point x="109.8" y="-14.600000000000001"/>
      <point x="169.2" y="-14.600000000000001" type="curve" smooth="yes"/>
      <point x="233.2" y="-14.600000000000001"/>
      <point x="267.3310032263008" y="19.777630972488232"/>
      <point x="281.20000000000005" y="90.2" type="curve" smooth="yes"/>
      <point x="291.96919854894276" y="162.61284159581524"/>
      <point x="310.8" y="200.0"/>
      <point x="360.6" y="200.0" type="curve" smooth="yes"/>
      <point x="402.39888268156426" y="200.0"/>
      <point x="437.4054257963927" y="178.40565366614211"/>
      <point x="495.4" y="122.80000000000001" type="curve" smooth="yes"/>
      <point x="576.1951003947361" y="25.072987465091796"/>
      <point x="644.4" y="-15.8"/>
      <point x="752.4" y="-15.8" type="curve" smooth="yes"/>
      <point x="893.0" y="-15.8"/>
      <point x="975.5256344886054" y="74.31542171725943"/>
      <point x="999.4" y="283.2" type="curve" smooth="yes"/>
      <point x="1004.4" y="335.20000000000005"/>
      <point x="992.0" y="357.6"/>
      <point x="968.0" y="361.0" type="curve" smooth="yes"/>
      <point x="945.2" y="364.4"/>
      <point x="926.4" y="352.4"/>
      <point x="911.4" y="316.20000000000005" type="curve" smooth="yes"/>
      <point x="883.2270655151176" y="226.17604641011317"/>
      <point x="841.0" y="177.20000000000002"/>
      <point x="752.6" y="177.20000000000002" type="curve" smooth="yes"/>
      <point x="595.7630057803468" y="177.20000000000002"/>
      <point x="465.33757225433527" y="317.20000000000005"/>
      <point x="308.6" y="317.20000000000005" type="curve" smooth="yes"/>
      <point x="151.6" y="317.20000000000005"/>
      <point x="66.8" y="222.60000000000002"/>
    </contour>
  </outline>
</glyph>
<glyph name="three" format="2">
  <advance width="983.0"/>
  <unicode hex="0033"/>
  <outline>
    <contour>
      <point x="426.20000000000005" y="729.8" type="line"/>
      <point x="868.0" y="1243.2" type="line" smooth="yes"/>
      <point x="911.7285556889402" y="1289.3154900365982"/>
      <point x="930.4" y="1318.0"/>
      <point x="930.4" y="1350.0" type="curve" smooth="yes"/>
      <point x="930.4" y="1378.8"/>
      <point x="909.8" y="1400.0"/>
      <point x="870.4" y="1400.0" type="curve" smooth="yes"/>
      <point x="206.4" y="1400.0" type="line" smooth="yes"/>
      <point x="149.4" y="1400.0"/>
      <point x="120.29204062681107" y="1369.6104994459774"/>
      <point x="115.0" y="1317.8" type="curve" smooth="yes"/>
      <point x="91.0" y="1089.0" type="line" smooth="yes"/>
      <point x="86.2" y="1039.2"/>
      <point x="107.6" y="1017.4"/>
      <point x="139.4" y="1016.8" type="curve" smooth="yes"/>
      <point x="172.2" y="1016.2"/>
      <point x="189.0" y="1037.6"/>
      <point x="196.2" y="1071.0" type="curve" smooth="yes"/>
      <point x="218.8" y="1176.0" type="line" smooth="yes"/>
      <point x="227.55905885250525" y="1217.6834824920252"/>
      <point x="249.4" y="1235.0"/>
      <point x="286.6" y="1235.0" type="curve" smooth="yes"/>
      <point x="800.6" y="1235.0" type="line"/>
      <point x="791.6" y="1309.8" type="line"/>
      <point x="354.8" y="805.8" type="line" smooth="yes"/>
      <point x="326.9646485461446" y="775.6625451420655"/>
      <point x="307.4" y="750.8"/>
      <point x="307.4" y="719.2" type="curve" smooth="yes"/>
      <point x="307.4" y="684.8"/>
      <point x="329.4" y="661.8"/>
      <point x="373.6" y="661.8" type="curve" smooth="yes"/>
      <point x="423.4" y="661.8" type="line" smooth="yes"/>
      <point x="640.2785145888594" y="661.8"/>
      <point x="717.2" y="567.1806778453541"/>
      <point x="717.2" y="371.6" type="curve" smooth="yes"/>
      <point x="717.2" y="183.34739714268196"/>
      <point x="608.2666666666667" y="88.2"/>
      <point x="463.8" y="88.2" type="curve" smooth="yes"/>
      <point x="330.0" y="88.2"/>
      <point x="258.20000000000005" y="163.09391304347827"/>
      <point x="258.20000000000005" y="270.2" type="curve" smooth="yes"/>
      <point x="258.20000000000005" y="309.2" type="line" smooth="yes"/>
      <point x="258.20000000000005" y="377.6"/>
      <point x="226.95" y="418.4"/>
      <point x="165.2" y="418.4" type="curve" smooth="yes"/>
      <point x="99.93469387755103" y="418.4"/>
      <point x="53.8" y="371.9294117647059"/>
      <point x="53.8" y="298.0" type="curve" smooth="yes"/>
      <point x="53.8" y="115.0"/>
      <point x="191.0" y="-19.4"/>
      <point x="464.0" y="-19.4" type="curve" smooth="yes"/>
      <point x="743.4" y="-19.4"/>
      <point x="923.6" y="148.89937838970096"/>
      <point x="923.6" y="396.4" type="curve" smooth="yes"/>
      <point x="923.6" y="620.2119192648089"/>
      <point x="774.3458227848101" y="773.4"/>
      <point x="506.20000000000005" y="773.4" type="curve" smooth="yes"/>
      <point x="482.0" y="773.4"/>
      <point x="428.8737556801184" y="770.5262443198816"/>
      <point x="410.8" y="764.2" type="curve"/>
    </contour>
  </outline>
</glyph>
<glyph name="four" format="2">
  <advance width="1033.4"/>
  <unicode hex="0034"/>
  <outline>
    <contour>
      <point x="582.6" y="754.4" type="curve" smooth="yes"/>
      <point x="582.6" y="192.2" type="line" smooth="yes"/>
      <point x="582.6" y="151.0"/>
      <point x="566.0" y="128.4"/>
      <point x="535.2" y="122.60000000000001" type="curve" smooth="yes"/>
      <point x="441.4" y="107.60000000000001" type="line" smooth="yes"/>
      <point x="408.8" y="100.0"/>
      <point x="389.6" y="80.60000000000001"/>
      <point x="389.6" y="51.800000000000004" type="curve" smooth="yes"/>
      <point x="389.6" y="18.6"/>
      <point x="409.6" y="0.0"/>
      <point x="449.2" y="0.0" type="curve" smooth="yes"/>
      <point x="916.4" y="0.0" type="line" smooth="yes"/>
      <point x="957.4" y="0.0"/>
      <point x="976.6" y="19.0"/>
      <point x="976.6" y="51.800000000000004" type="curve" smooth="yes"/>
      <point x="976.6" y="78.60000000000001"/>
      <point x="959.4" y="96.0"/>
      <point x="924.8" y="107.2" type="curve" smooth="yes"/>
      <point x="838.0" y="122.60000000000001" type="line" smooth="yes"/>
      <point x="806.8" y="130.4"/>
      <point x="790.6" y="152.60000000000002"/>
      <point x="790.6" y="192.2" type="curve" smooth="yes"/>
      <point x="790.6" y="920.2" type="line" smooth="yes"/>
      <point x="790.6" y="950.0"/>
      <point x="776.8" y="963.4"/>
      <point x="758.6" y="963.4" type="curve" smooth="yes"/>
      <point x="741.4" y="963.4"/>
      <point x="730.8" y="956.4"/>
      <point x="707.8" y="932.8" type="curve" smooth="yes"/>
      <point x="608.8" y="840.0" type="line" smooth="yes"/>
      <point x="589.2" y="819.2"/>
      <point x="582.6" y="794.6"/>
    </contour>
    <contour>
      <point x="471.0" y="1019.2" type="curve" smooth="yes"/>
      <point x="61.8" y="509.8" type="line" smooth="yes"/>
      <point x="28.4" y="474.8"/>
      <point x="15.8" y="452.6"/>
      <point x="15.8" y="421.4" type="curve" smooth="yes"/>
      <point x="15.8" y="385.0"/>
      <point x="39.0" y="360.4"/>
      <point x="83.0" y="360.4" type="curve" smooth="yes"/>
      <point x="946.6" y="359.8" type="line" smooth="yes"/>
      <point x="986.4" y="359.8"/>
      <point x="1003.8" y="380.9224489795918"/>
      <point x="1003.8" y="417.0" type="curve" smooth="yes"/>
      <point x="1003.8" y="454.3895652173913"/>
      <point x="981.4" y="472.0"/>
      <point x="947.6" y="472.0" type="curve" smooth="yes"/>
      <point x="99.8" y="472.0" type="line"/>
      <point x="122.0" y="420.8" type="line"/>
      <point x="638.2" y="1036.2" type="line" smooth="yes"/>
      <point x="732.8" y="1138.4"/>
      <point x="757.2" y="1205.2"/>
      <point x="757.2" y="1286.4" type="curve" smooth="yes"/>
      <point x="757.2" y="1376.2"/>
      <point x="701.3509293680297" y="1428.2"/>
      <point x="615.6" y="1428.2" type="curve" smooth="yes"/>
      <point x="527.6973180076628" y="1428.2"/>
      <point x="478.0" y="1372.4"/>
      <point x="478.0" y="1298.4" type="curve" smooth="yes"/>
      <point x="478.0" y="1222.0"/>
      <point x="529.8" y="1202.6"/>
      <point x="529.8" y="1140.8" type="curve" smooth="yes"/>
      <point x="529.8" y="1102.8"/>
      <point x="514.4" y="1063.8"/>
    </contour>
  </outline>
</glyph>
<glyph name="five" format="2">
  <advance width="1008.6"/>
  <unicode hex="0035"/>
  <outline>
    <contour>
      <point x="85.2" y="278.2" type="curve" smooth="yes"/>
      <point x="85.2" y="101.74375"/>
      <point x="223.0" y="-19.4"/>
      <point x="484.2" y="-19.4" type="curve" smooth="yes"/>
      <point x="761.0" y="-19.4"/>
      <point x="942.2" y="153.08138528138528"/>
      <point x="942.2" y="429.8" type="curve" smooth="yes"/>
      <point x="942.2" y="682.8126696832579"/>
      <point x="787.8" y="858.8"/>
      <point x="546.0" y="858.8" type="curve" smooth="yes"/>
      <point x="400.6" y="858.8"/>
      <point x="281.4" y="789.2"/>
      <point x="205.6" y="682.0" type="curve"/>
      <point x="249.8" y="668.4" type="line"/>
      <point x="249.8" y="1322.2" type="line"/>
      <point x="190.8" y="1250.0" type="line"/>
      <point x="286.8035973368204" y="1177.1871235291528"/>
      <point x="434.28275862068966" y="1143.2"/>
      <point x="586.2" y="1143.2" type="curve" smooth="yes"/>
      <point x="767.1035460992907" y="1143.2"/>
      <point x="903.4047942100271" y="1212.6391802681526"/>
      <point x="932.4" y="1353.6" type="curve" smooth="yes"/>
      <point x="943.0" y="1404.8"/>
      <point x="933.4" y="1423.4"/>
      <point x="915.4" y="1425.8" type="curve" smooth="yes"/>
      <point x="899.6" y="1430.6"/>
      <point x="880.8" y="1422.8"/>
      <point x="855.6" y="1396.0" type="curve" smooth="yes"/>
      <point x="808.6" y="1341.4"/>
      <point x="731.0" y="1319.4"/>
      <point x="609.4" y="1319.4" type="curve" smooth="yes"/>
      <point x="480.2" y="1319.4"/>
      <point x="389.6133134109353" y="1344.6518573858514"/>
      <point x="292.6" y="1400.0" type="curve" smooth="yes"/>
      <point x="262.4" y="1414.2"/>
      <point x="239.4" y="1420.6"/>
      <point x="216.0" y="1420.6" type="curve" smooth="yes"/>
      <point x="163.0" y="1420.6"/>
      <point x="139.4" y="1387.0"/>
      <point x="139.4" y="1331.8" type="curve" smooth="yes"/>
      <point x="139.4" y="614.2" type="line" smooth="yes"/>
      <point x="139.4" y="576.2"/>
      <point x="158.0" y="555.2"/>
      <point x="188.4" y="555.2" type="curve" smooth="yes"/>
      <point x="214.0" y="555.2"/>
      <point x="229.8" y="570.2"/>
      <point x="257.2" y="596.2" type="curve" smooth="yes"/>
      <point x="327.6" y="690.0"/>
      <point x="402.8" y="729.6"/>
      <point x="487.8" y="729.6" type="curve" smooth="yes"/>
      <point x="632.8" y="729.6"/>
      <point x="734.6" y="625.8609375"/>
      <point x="734.6" y="409.8" type="curve" smooth="yes"/>
      <point x="734.6" y="186.9728155339806"/>
      <point x="633.0" y="88.2"/>
      <point x="496.4" y="88.2" type="curve" smooth="yes"/>
      <point x="364.0" y="88.2"/>
      <point x="291.20000000000005" y="160.6"/>
      <point x="291.20000000000005" y="265.0" type="curve" smooth="yes"/>
      <point x="291.20000000000005" y="311.2" type="line" smooth="yes"/>
      <point x="291.20000000000005" y="374.4595744680851"/>
      <point x="259.20000000000005" y="414.8"/>
      <point x="195.0" y="414.8" type="curve" smooth="yes"/>
      <point x="130.8" y="414.8"/>
      <point x="85.2" y="361.76746411483253"/>
    </contour>
  </outline>
</glyph>
<glyph name="six" format="2">
  <advance width="1091.6"/>
  <unicode hex="0036"/>
  <outline>
    <contour>
      <point x="630.8" y="1418.8" type="curve" smooth="yes"/>
      <point x="296.0" y="1418.8"/>
      <point x="73.4" y="1174.0306122448978"/>
      <point x="74.0" y="655.6" type="curve" smooth="yes"/>
      <point x="74.6" y="231.19942363112392"/>
      <point x="253.4" y="-15.8"/>
      <point x="567.2" y="-15.8" type="curve" smooth="yes"/>
      <point x="846.4" y="-15.8"/>
      <point x="1024.0" y="160.2"/>
      <point x="1024.0" y="430.4" type="curve" smooth="yes"/>
      <point x="1024.0" y="690.1916870415648"/>
      <point x="881.0" y="859.0"/>
      <point x="637.4" y="859.0" type="curve" smooth="yes"/>
      <point x="407.0" y="859.0"/>
      <point x="232.20000000000002" y="691.2"/>
      <point x="220.4" y="482.0" type="curve"/>
      <point x="276.4" y="438.4" type="line"/>
      <point x="285.20000000000005" y="594.2"/>
      <point x="414.8" y="731.0"/>
      <point x="566.8" y="731.0" type="curve" smooth="yes"/>
      <point x="722.2" y="731.0"/>
      <point x="822.4" y="618.3153153153153"/>
      <point x="822.4" y="404.4" type="curve" smooth="yes"/>
      <point x="822.4" y="209.95454545454547"/>
      <point x="725.8" y="94.60000000000001"/>
      <point x="575.0" y="94.60000000000001" type="curve" smooth="yes"/>
      <point x="401.0" y="94.60000000000001"/>
      <point x="286.4" y="237.8"/>
      <point x="286.0" y="656.8" type="curve" smooth="yes"/>
      <point x="286.8" y="1154.6"/>
      <point x="442.2" y="1308.4"/>
      <point x="608.2" y="1308.4" type="curve" smooth="yes"/>
      <point x="720.0153846153846" y="1308.4"/>
      <point x="771.0" y="1248.8"/>
      <point x="771.0" y="1149.8" type="curve" smooth="yes"/>
      <point x="771.0" y="1117.2" type="line" smooth="yes"/>
      <point x="771.0" y="1046.8"/>
      <point x="808.0046511627907" y="1002.0"/>
      <point x="884.6" y="1002.0" type="curve" smooth="yes"/>
      <point x="957.4" y="1002.0"/>
      <point x="1001.2" y="1049.0632653061225"/>
      <point x="1001.2" y="1133.4" type="curve" smooth="yes"/>
      <point x="1001.2" y="1289.6"/>
      <point x="865.4268656716418" y="1418.8"/>
    </contour>
  </outline>
</glyph>
<glyph name="seven" format="2">
  <advance width="915.2"/>
  <unicode hex="0037"/>
  <outline>
    <contour>
      <point x="747.6" y="1231.2" type="line"/>
      <point x="525.0" y="872.2" type="line" smooth="yes"/>
      <point x="334.6810717636246" y="598.0944348681697"/>
      <point x="256.2" y="419.2"/>
      <point x="256.2" y="226.2" type="curve" smooth="yes"/>
      <point x="256.2" y="72.4"/>
      <point x="313.2" y="-12.8"/>
      <point x="409.0" y="-12.8" type="curve" smooth="yes"/>
      <point x="505.20000000000005" y="-12.8"/>
      <point x="551.4" y="43.6"/>
      <point x="551.4" y="121.4" type="curve" smooth="yes"/>
      <point x="551.4" y="208.6"/>
      <point x="470.4" y="268.4"/>
      <point x="470.4" y="376.4" type="curve" smooth="yes"/>
      <point x="470.4" y="511.6"/>
      <point x="523.8" y="652.0"/>
      <point x="672.0" y="889.0" type="curve" smooth="yes"/>
      <point x="871.0" y="1227.4" type="line" smooth="yes"/>
      <point x="905.0" y="1272.4"/>
      <point x="918.4" y="1300.2"/>
      <point x="918.4" y="1327.8" type="curve" smooth="yes"/>
      <point x="918.4" y="1372.2"/>
      <point x="889.4" y="1400.0"/>
      <point x="835.8" y="1400.0" type="curve" smooth="yes"/>
      <point x="147.6" y="1400.0" type="line" smooth="yes"/>
      <point x="94.6" y="1400.0"/>
      <point x="68.4" y="1369.0"/>
      <point x="63.8" y="1316.8" type="curve" smooth="yes"/>
      <point x="41.6" y="1070.2" type="line" smooth="yes"/>
      <point x="36.6" y="1017.6"/>
      <point x="56.2" y="995.0"/>
      <point x="90.2" y="994.4" type="curve" smooth="yes"/>
      <point x="121.60000000000001" y="993.8"/>
      <point x="139.8" y="1013.2"/>
      <point x="147.0" y="1047.8" type="curve" smooth="yes"/>
      <point x="171.2" y="1159.6" type="line" smooth="yes"/>
      <point x="180.2" y="1200.6"/>
      <point x="194.60000000000002" y="1218.2"/>
      <point x="237.20000000000002" y="1218.2" type="curve" smooth="yes"/>
      <point x="783.8" y="1218.2" type="line"/>
    </contour>
  </outline>
</glyph>
<glyph name="eight" format="2">
  <advance width="1064.0"/>
  <unicode hex="0038"/>
  <outline>
    <contour>
      <point x="512.4" y="-19.4" type="curve" smooth="yes"/>
      <point x="819.0" y="-19.4"/>
      <point x="995.6" y="117.6"/>
      <point x="995.6" y="338.8" type="curve" smooth="yes"/>
      <point x="995.6" y="499.95772357723575"/>
      <point x="882.1505820637401" y="622.2174310538808"/>
      <point x="606.8" y="716.4" type="curve" smooth="yes"/>
      <point x="348.1703128740495" y="805.6434551135592"/>
      <point x="274.20000000000005" y="918.408695652174"/>
      <point x="274.20000000000005" y="1054.6" type="curve" smooth="yes"/>
      <point x="274.20000000000005" y="1198.9076923076923"/>
      <point x="378.31671732522796" y="1307.6"/>
      <point x="537.2" y="1307.6" type="curve" smooth="yes"/>
      <point x="701.2670658682634" y="1307.6"/>
      <point x="805.6" y="1212.0506024096385"/>
      <point x="805.6" y="1038.4" type="curve" smooth="yes"/>
      <point x="805.6" y="890.6153846153846"/>
      <point x="716.5136445073094" y="770.9126594926363"/>
      <point x="583.0" y="685.0" type="curve"/>
      <point x="609.2" y="647.8" type="line"/>
      <point x="871.1960952537056" y="704.3257312814725"/>
      <point x="1003.0" y="858.6"/>
      <point x="1003.0" y="1045.4" type="curve" smooth="yes"/>
      <point x="1003.0" y="1248.2"/>
      <point x="846.451948051948" y="1418.2"/>
      <point x="562.0" y="1418.2" type="curve" smooth="yes"/>
      <point x="252.7561224489796" y="1418.2"/>
      <point x="75.6" y="1235.6"/>
      <point x="75.6" y="1003.8" type="curve" smooth="yes"/>
      <point x="75.6" y="816.2"/>
      <point x="188.42920802432687" y="694.4140469908774"/>
      <point x="472.2" y="598.6" type="curve" smooth="yes"/>
      <point x="714.6813385068359" y="515.2875319954475"/>
      <point x="782.0" y="435.7856442920137"/>
      <point x="782.0" y="309.8" type="curve" smooth="yes"/>
      <point x="782.0" y="173.3"/>
      <point x="689.7646302250804" y="92.60000000000001"/>
      <point x="539.0" y="92.60000000000001" type="curve" smooth="yes"/>
      <point x="380.33172205438063" y="92.60000000000001"/>
      <point x="284.4" y="184.92131147540982"/>
      <point x="284.4" y="336.2" type="curve" smooth="yes"/>
      <point x="284.4" y="437.47260567606963"/>
      <point x="343.70832526116027" y="551.5161780710131"/>
      <point x="472.2" y="617.4" type="curve"/>
      <point x="462.0" y="656.4" type="line"/>
      <point x="215.99959428259893" y="617.3999964410755"/>
      <point x="82.8" y="470.78216560509554"/>
      <point x="82.8" y="299.8" type="curve"/>
      <point x="82.8" y="112.2"/>
      <point x="223.4" y="-19.4"/>
    </contour>
  </outline>
</glyph>
<glyph name="nine" format="2">
  <advance width="1083.6"/>
  <unicode hex="0039"/>
  <outline>
    <contour>
      <point x="475.2" y="-18.8" type="curve" smooth="yes"/>
      <point x="805.2" y="-18.8"/>
      <point x="1004.4" y="239.2"/>
      <point x="1012.2" y="744.4" type="curve" smooth="yes"/>
      <point x="1018.2" y="1170.8"/>
      <point x="837.0" y="1418.8"/>
      <point x="521.4" y="1418.8" type="curve" smooth="yes"/>
      <point x="244.6" y="1418.8"/>
      <point x="62.8" y="1243.0"/>
      <point x="62.8" y="971.6" type="curve" smooth="yes"/>
      <point x="62.8" y="714.8059405940594"/>
      <point x="207.0" y="548.6"/>
      <point x="450.6" y="548.6" type="curve" smooth="yes"/>
      <point x="679.8" y="548.6"/>
      <point x="854.0" y="721.2"/>
      <point x="865.8" y="935.2" type="curve"/>
      <point x="810.4" y="979.4" type="line"/>
      <point x="801.0" y="820.0"/>
      <point x="672.0" y="679.6"/>
      <point x="523.0" y="679.6" type="curve" smooth="yes"/>
      <point x="367.0" y="679.6"/>
      <point x="264.4" y="789.4912442396313"/>
      <point x="264.4" y="997.6" type="curve" smooth="yes"/>
      <point x="264.4" y="1190.8418604651163"/>
      <point x="365.8" y="1305.4"/>
      <point x="513.6" y="1305.4" type="curve" smooth="yes"/>
      <point x="690.6" y="1305.4"/>
      <point x="805.8" y="1165.6"/>
      <point x="800.2" y="736.6" type="curve" smooth="yes"/>
      <point x="793.4" y="250.8"/>
      <point x="660.2" y="93.4"/>
      <point x="496.6" y="93.4" type="curve" smooth="yes"/>
      <point x="386.4" y="93.4"/>
      <point x="318.20000000000005" y="149.4"/>
      <point x="318.20000000000005" y="240.6" type="curve" smooth="yes"/>
      <point x="318.20000000000005" y="281.4" type="line" smooth="yes"/>
      <point x="318.20000000000005" y="356.0"/>
      <point x="281.6" y="402.6"/>
      <point x="205.8" y="402.6" type="curve" smooth="yes"/>
      <point x="131.8" y="402.6"/>
      <point x="88.0" y="352.47699530516434"/>
      <point x="88.0" y="262.6" type="curve" smooth="yes"/>
      <point x="88.0" y="98.52337662337662"/>
      <point x="236.8" y="-18.8"/>
    </contour>
  </outline>
</glyph>
<glyph name="less" format="2">
  <advance width="875.2"/>
  <unicode hex="003C"/>
  <outline>
    <contour>
      <point x="188.0" y="695.0" type="line"/>
      <point x="735.4" y="352.6" type="line" smooth="yes"/>
      <point x="774.2" y="327.0"/>
      <point x="792.6" y="298.0"/>
      <point x="792.6" y="272.6" type="curve" smooth="yes"/>
      <point x="793.0" y="239.2"/>
      <point x="777.4" y="215.0"/>
      <point x="740.4" y="215.0" type="curve" smooth="yes"/>
      <point x="710.0" y="215.0"/>
      <point x="681.6" y="228.8"/>
      <point x="638.6" y="256.8" type="curve" smooth="yes"/>
      <point x="110.0" y="582.2" type="line" smooth="yes"/>
      <point x="65.8" y="610.6"/>
      <point x="44.6" y="642.6"/>
      <point x="44.6" y="684.0" type="curve" smooth="yes"/>
      <point x="44.6" y="726.6"/>
      <point x="66.4" y="758.0"/>
      <point x="110.0" y="785.8" type="curve" smooth="yes"/>
      <point x="638.6" y="1111.2" type="line" smooth="yes"/>
      <point x="681.6" y="1139.2"/>
      <point x="710.0" y="1153.0"/>
      <point x="740.4" y="1153.0" type="curve" smooth="yes"/>
      <point x="777.4" y="1153.0"/>
      <point x="793.0" y="1128.8"/>
      <point x="792.6" y="1095.4" type="curve" smooth="yes"/>
      <point x="792.6" y="1070.0"/>
      <point x="774.2" y="1041.0"/>
      <point x="735.4" y="1015.4" type="curve" smooth="yes"/>
      <point x="188.0" y="673.0" type="line"/>
    </contour>
  </outline>
</glyph>
<glyph name="question" format="2">
  <advance width="939.6"/>
  <unicode hex="003F"/>
  <outline>
    <contour>
      <point x="346.8" y="609.8" type="line" smooth="yes"/>
      <point x="339.8" y="653.6"/>
      <point x="355.8" y="687.4"/>
      <point x="394.4" y="712.2" type="curve" smooth="yes"/>
      <point x="457.4" y="751.6" type="line" smooth="yes"/>
      <point x="583.766669547764" y="828.7925389904896"/>
      <point x="651.4" y="938.699727520436"/>
      <point x="651.4" y="1104.6" type="curve" smooth="yes"/>
      <point x="651.4" y="1262.78125"/>
      <point x="573.0381322957198" y="1346.0"/>
      <point x="468.0" y="1346.0" type="curve" smooth="yes"/>
      <point x="352.4" y="1346.0"/>
      <point x="296.20000000000005" y="1285.663436123348"/>
      <point x="296.20000000000005" y="1192.2" type="curve" smooth="yes"/>
      <point x="296.20000000000005" y="1132.6" type="line" smooth="yes"/>
      <point x="296.20000000000005" y="1050.7297709923664"/>
      <point x="258.0" y="1005.2"/>
      <point x="187.60000000000002" y="1004.6" type="curve" smooth="yes"/>
      <point x="119.8" y="1004.0"/>
      <point x="75.0" y="1050.5469387755102"/>
      <point x="75.0" y="1128.6" type="curve" smooth="yes"/>
      <point x="75.0" y="1293.8051948051948"/>
      <point x="241.4" y="1440.2"/>
      <point x="483.4" y="1440.2" type="curve" smooth="yes"/>
      <point x="730.542933730088" y="1440.2"/>
      <point x="881.2" y="1314.9771556704297"/>
      <point x="881.2" y="1087.0" type="curve" smooth="yes"/>
      <point x="881.2" y="879.6712107909649"/>
      <point x="768.7715969829414" y="752.6461097846264"/>
      <point x="564.4" y="670.2" type="curve" smooth="yes"/>
      <point x="523.6" y="650.8" type="line" smooth="yes"/>
      <point x="503.2166251501319" y="642.7479735075957"/>
      <point x="490.8" y="628.0"/>
      <point x="484.20000000000005" y="599.8" type="curve" smooth="yes"/>
      <point x="469.20000000000005" y="425.0" type="line" smooth="yes"/>
      <point x="455.17664459229184" y="387.8726727182024"/>
      <point x="439.94444444444446" y="376.2"/>
      <point x="410.8" y="376.2" type="curve" smooth="yes"/>
      <point x="381.47407407407405" y="376.2"/>
      <point x="361.6" y="392.2"/>
      <point x="356.4" y="424.4" type="curve" smooth="yes"/>
    </contour>
    <component base="period" xOffset="217.4"/>
  </outline>
</glyph>
<glyph name="at" format="2">
  <advance width="1591.4"/>
  <unicode hex="0040"/>
  <outline>
    <contour>
      <point x="958.2" y="486.2" type="curve"/>
      <point x="973.0" y="551.2" type="line"/>
      <point x="921.8" y="571.2"/>
      <point x="867.6" y="582.4"/>
      <point x="800.0" y="582.4" type="curve" smooth="yes"/>
      <point x="592.4" y="582.4"/>
      <point x="468.4" y="479.2"/>
      <point x="468.4" y="343.0" type="curve" smooth="yes"/>
      <point x="468.4" y="211.8"/>
      <point x="569.2" y="137.0"/>
      <point x="714.6" y="137.0" type="curve" smooth="yes"/>
      <point x="821.8" y="137.0"/>
      <point x="913.6" y="180.4"/>
      <point x="984.4" y="268.0" type="curve"/>
      <point x="963.0" y="322.4" type="line"/>
      <point x="908.2" y="263.8"/>
      <point x="854.8" y="242.60000000000002"/>
      <point x="784.6" y="242.60000000000002" type="curve" smooth="yes"/>
      <point x="705.6" y="242.60000000000002"/>
      <point x="645.0" y="289.4"/>
      <point x="645.0" y="374.6" type="curve" smooth="yes"/>
      <point x="645.0" y="461.8"/>
      <point x="715.0" y="514.2"/>
      <point x="816.6" y="514.2" type="curve" smooth="yes"/>
      <point x="871.4" y="514.2"/>
      <point x="914.2" y="501.8"/>
    </contour>
    <contour>
      <point x="1201.6" y="242.8" type="curve" smooth="yes"/>
      <point x="1141.0" y="242.8"/>
      <point x="1113.4" y="272.4"/>
      <point x="1113.4" y="331.2" type="curve" smooth="yes"/>
      <point x="1113.4" y="772.2" type="line" smooth="yes"/>
      <point x="1113.4" y="920.6"/>
      <point x="1007.4" y="1004.6"/>
      <point x="848.4" y="1004.6" type="curve" smooth="yes"/>
      <point x="627.0" y="1004.6"/>
      <point x="505.2" y="905.0"/>
      <point x="505.2" y="779.0" type="curve" smooth="yes"/>
      <point x="505.2" y="729.4"/>
      <point x="545.0" y="701.6"/>
      <point x="589.8" y="701.6" type="curve" smooth="yes"/>
      <point x="641.8" y="701.6"/>
      <point x="687.0" y="728.2"/>
      <point x="687.0" y="781.6" type="curve" smooth="yes"/>
      <point x="687.0" y="822.2" type="line" smooth="yes"/>
      <point x="687.0" y="877.6"/>
      <point x="729.2" y="920.4"/>
      <point x="809.2" y="920.4" type="curve" smooth="yes"/>
      <point x="893.8" y="920.4"/>
      <point x="940.4" y="866.8"/>
      <point x="940.4" y="777.8" type="curve" smooth="yes"/>
      <point x="940.4" y="287.4" type="line"/>
      <point x="950.6" y="282.4" type="line"/>
      <point x="952.2" y="189.2"/>
      <point x="1045.2" y="137.0"/>
      <point x="1161.2" y="137.0" type="curve" smooth="yes"/>
      <point x="1378.8" y="137.0"/>
      <point x="1518.0" y="345.4"/>
      <point x="1518.0" y="628.0" type="curve" smooth="yes"/>
      <point x="1518.0" y="1084.2"/>
      <point x="1211.2" y="1349.4"/>
      <point x="822.0" y="1349.4" type="curve" smooth="yes"/>
      <point x="355.6" y="1349.4"/>
      <point x="62.0" y="999.8"/>
      <point x="62.0" y="551.4" type="curve" smooth="yes"/>
      <point x="62.0" y="67.0"/>
      <point x="384.4" y="-231.4"/>
      <point x="817.0" y="-231.4" type="curve" smooth="yes"/>
      <point x="1103.6" y="-231.4"/>
      <point x="1346.6" y="-133.0"/>
      <point x="1465.6" y="20.200000000000003" type="curve" smooth="yes"/>
      <point x="1492.2" y="51.6"/>
      <point x="1498.8" y="82.0"/>
      <point x="1477.2" y="104.0" type="curve" smooth="yes"/>
      <point x="1456.0" y="126.2"/>
      <point x="1423.0" y="112.6"/>
      <point x="1398.6" y="90.2" type="curve" smooth="yes"/>
      <point x="1255.2" y="-58.6"/>
      <point x="1054.2" y="-137.4"/>
      <point x="819.6" y="-137.4" type="curve" smooth="yes"/>
      <point x="435.0" y="-137.4"/>
      <point x="167.0" y="137.6"/>
      <point x="167.0" y="551.4" type="curve" smooth="yes"/>
      <point x="167.0" y="971.0"/>
      <point x="421.4" y="1261.4"/>
      <point x="816.4" y="1261.4" type="curve" smooth="yes"/>
      <point x="1152.4" y="1261.4"/>
      <point x="1410.2" y="1016.2"/>
      <point x="1410.2" y="626.6" type="curve" smooth="yes"/>
      <point x="1410.2" y="379.8"/>
      <point x="1326.4" y="242.8"/>
    </contour>
  </outline>
</glyph>
<glyph name="A" format="2">
  <advance width="1269.2"/>
  <unicode hex="0041"/>
  <anchor x="626.6" y="1469.6" name="center"/>
  <outline>
    <contour>
      <point x="295.2" y="574.4" type="line"/>
      <point x="290.4" y="466.6" type="line"/>
      <point x="876.8" y="466.6" type="line"/>
      <point x="870.2" y="574.4" type="line"/>
    </contour>
    <contour>
      <point x="406.6" y="51.800000000000004" type="curve" smooth="yes"/>
      <point x="406.6" y="77.6"/>
      <point x="393.0" y="94.60000000000001"/>
      <point x="361.8" y="104.8" type="curve" smooth="yes"/>
      <point x="291.0" y="117.2" type="line" smooth="yes"/>
      <point x="247.60000000000002" y="128.60000000000002"/>
      <point x="238.0" y="155.60000000000002"/>
      <point x="261.0" y="230.0" type="curve" smooth="yes"/>
      <point x="600.6" y="1304.4" type="line" smooth="yes"/>
      <point x="572.2" y="1301.4" type="line"/>
      <point x="915.8" y="206.8" type="line" smooth="yes"/>
      <point x="934.8" y="143.8"/>
      <point x="929.8" y="122.4"/>
      <point x="903.8" y="117.2" type="curve" smooth="yes"/>
      <point x="836.0" y="105.60000000000001" type="line" smooth="yes"/>
      <point x="806.8" y="95.8"/>
      <point x="790.6" y="79.2"/>
      <point x="790.6" y="51.800000000000004" type="curve" smooth="yes"/>
      <point x="790.6" y="19.0"/>
      <point x="809.4" y="0.0"/>
      <point x="850.2" y="0.0" type="curve" smooth="yes"/>
      <point x="1205.8" y="0.0" type="line" smooth="yes"/>
      <point x="1246.0" y="0.0"/>
      <point x="1266.0" y="20.2"/>
      <point x="1266.0" y="51.800000000000004" type="curve" smooth="yes"/>
      <point x="1266.0" y="78.8"/>
      <point x="1253.2" y="94.2"/>
      <point x="1216.4" y="109.2" type="curve" smooth="yes"/>
      <point x="1171.2" y="126.4"/>
      <point x="1148.2" y="148.60000000000002"/>
      <point x="1127.0" y="218.4" type="curve" smooth="yes"/>
      <point x="806.6" y="1224.2" type="line" smooth="yes"/>
      <point x="792.8" y="1269.4"/>
      <point x="800.8" y="1280.0"/>
      <point x="834.2" y="1292.4" type="curve" smooth="yes"/>
      <point x="871.4000000000001" y="1305.8"/>
      <point x="890.0" y="1320.2"/>
      <point x="890.0" y="1348.2" type="curve" smooth="yes"/>
      <point x="890.0" y="1380.6"/>
      <point x="868.6" y="1400.0"/>
      <point x="829.8" y="1400.0" type="curve" smooth="yes"/>
      <point x="430.2" y="1400.0" type="line" smooth="yes"/>
      <point x="391.4" y="1400.0"/>
      <point x="370.6" y="1381.8"/>
      <point x="370.6" y="1348.2" type="curve" smooth="yes"/>
      <point x="370.6" y="1319.6"/>
      <point x="389.8" y="1305.8"/>
      <point x="427.0" y="1292.4" type="curve" smooth="yes"/>
      <point x="464.6" y="1278.8"/>
      <point x="472.6" y="1267.0"/>
      <point x="457.0" y="1218.2" type="curve" smooth="yes"/>
      <point x="139.8" y="213.2" type="line" smooth="yes"/>
      <point x="120.2" y="147.60000000000002"/>
      <point x="112.6" y="129.4"/>
      <point x="80.0" y="117.4" type="curve" smooth="yes"/>
      <point x="44.6" y="105.2" type="line" smooth="yes"/>
      <point x="16.8" y="90.8"/>
      <point x="2.6000000000000014" y="76.80000000000001"/>
      <point x="2.6000000000000014" y="51.800000000000004" type="curve" smooth="yes"/>
      <point x="2.6000000000000014" y="19.0"/>
      <point x="22.200000000000003" y="0.0"/>
      <point x="61.60000000000001" y="0.0" type="curve" smooth="yes"/>
      <point x="347.0" y="0.0" type="line" smooth="yes"/>
      <point x="387.4" y="0.0"/>
      <point x="406.6" y="19.0"/>
    </contour>
  </outline>
</glyph>
<glyph name="B" format="2">
  <advance width="1217.2"/>
  <unicode hex="0042"/>
  <outline>
    <contour>
      <point x="1166.4" y="337.2" type="curve" smooth="yes"/>
      <point x="1166.4" y="540.2"/>
      <point x="1000.4" y="683.6"/>
      <point x="700.0" y="683.6" type="curve"/>
      <point x="635.4" y="649.2" type="line"/>
      <point x="947.8" y="649.2"/>
      <point x="1094.2" y="796.4"/>
      <point x="1094.2" y="995.2" type="curve" smooth="yes"/>
      <point x="1094.2" y="1235.4"/>
      <point x="905.4" y="1400.0"/>
      <point x="572.6" y="1400.0" type="curve" smooth="yes"/>
      <point x="121.6" y="1400.0" type="line" smooth="yes"/>
      <point x="82.8" y="1400.0"/>
      <point x="62.0" y="1381.8"/>
      <point x="62.0" y="1348.2" type="curve" smooth="yes"/>
      <point x="62.0" y="1320.2"/>
      <point x="77.2" y="1301.6"/>
      <point x="106.6" y="1291.2" type="curve" smooth="yes"/>
      <point x="166.0" y="1279.0" type="line" smooth="yes"/>
      <point x="200.0" y="1268.2"/>
      <point x="214.0" y="1247.8"/>
      <point x="214.0" y="1209.8" type="curve" smooth="yes"/>
      <point x="214.0" y="190.2" type="line" smooth="yes"/>
      <point x="214.0" y="152.2"/>
      <point x="197.6" y="132.4"/>
      <point x="160.0" y="121.0" type="curve" smooth="yes"/>
      <point x="106.6" y="108.8" type="line" smooth="yes"/>
      <point x="77.2" y="97.8"/>
      <point x="62.0" y="79.8"/>
      <point x="62.0" y="51.800000000000004" type="curve" smooth="yes"/>
      <point x="62.0" y="18.2"/>
      <point x="82.8" y="0.0"/>
      <point x="121.6" y="0.0" type="curve" smooth="yes"/>
      <point x="703.8" y="0.0" type="line" smooth="yes"/>
      <point x="1010.8" y="0.0"/>
      <point x="1166.4" y="141.6"/>
    </contour>
    <contour>
      <point x="618.2" y="609.4" type="line" smooth="yes"/>
      <point x="847.8" y="609.4"/>
      <point x="960.8" y="503.2924623115578"/>
      <point x="960.8" y="346.2" type="curve" smooth="yes"/>
      <point x="960.8" y="203.44"/>
      <point x="862.4" y="107.60000000000001"/>
      <point x="661.8" y="107.60000000000001" type="curve" smooth="yes"/>
      <point x="531.0" y="107.60000000000001" type="line" smooth="yes"/>
      <point x="458.0" y="107.60000000000001"/>
      <point x="422.4" y="139.8"/>
      <point x="422.4" y="203.6" type="curve" smooth="yes"/>
      <point x="422.4" y="1294.8" type="line"/>
      <point x="541.8" y="1294.8" type="line" smooth="yes"/>
      <point x="779.8" y="1294.8"/>
      <point x="895.4" y="1172.387951807229"/>
      <point x="895.4" y="993.2" type="curve" smooth="yes"/>
      <point x="895.4" y="816.3904761904762"/>
      <point x="784.8" y="714.0"/>
      <point x="596.4" y="714.0" type="curve" smooth="yes"/>
      <point x="347.6" y="714.0" type="line"/>
      <point x="347.6" y="609.4" type="line"/>
    </contour>
  </outline>
</glyph>
<glyph name="C" format="2">
  <advance width="1240.2"/>
  <unicode hex="0043"/>
  <anchor x="715.8" y="1520.0" name="center"/>
  <outline>
    <contour>
      <point x="1207.8" y="335.8" type="curve" smooth="yes"/>
      <point x="1212.0" y="361.4"/>
      <point x="1202.2" y="379.4"/>
      <point x="1183.4" y="382.6" type="curve" smooth="yes"/>
      <point x="1164.4" y="386.6"/>
      <point x="1147.0" y="379.8"/>
      <point x="1123.6" y="349.6" type="curve" smooth="yes"/>
      <point x="1034.7453636389623" y="190.41643520878947"/>
      <point x="901.4" y="122.4"/>
      <point x="752.4" y="122.4" type="curve" smooth="yes"/>
      <point x="482.4" y="122.4"/>
      <point x="274.20000000000005" y="349.2559595983517"/>
      <point x="274.20000000000005" y="727.2" type="curve" smooth="yes"/>
      <point x="274.20000000000005" y="1069.371690077705"/>
      <point x="454.8" y="1314.0"/>
      <point x="711.4" y="1314.0" type="curve" smooth="yes"/>
      <point x="896.2" y="1314.0"/>
      <point x="1008.4913212092652" y="1236.9860135904773"/>
      <point x="1093.4" y="1002.2" type="curve" smooth="yes"/>
      <point x="1108.2" y="965.8"/>
      <point x="1132.2" y="953.0"/>
      <point x="1162.8" y="958.2" type="curve" smooth="yes"/>
      <point x="1197.6216501051254" y="964.4032475157688"/>
      <point x="1213.314964639454" y="994.5965967094493"/>
      <point x="1204.2" y="1026.8" type="curve" smooth="yes"/>
      <point x="1103.2" y="1362.0" type="line" smooth="yes"/>
      <point x="1090.4" y="1407.6"/>
      <point x="1077.2" y="1418.2"/>
      <point x="1056.2" y="1418.2" type="curve" smooth="yes"/>
      <point x="1001.4" y="1418.2"/>
      <point x="1017.2" y="1344.0"/>
      <point x="987.6" y="1344.0" type="curve" smooth="yes"/>
      <point x="957.0" y="1344.0"/>
      <point x="876.6" y="1418.8"/>
      <point x="685.6" y="1418.8" type="curve" smooth="yes"/>
      <point x="340.4" y="1418.8"/>
      <point x="60.6" y="1106.3948158253752"/>
      <point x="60.6" y="697.8" type="curve" smooth="yes"/>
      <point x="60.6" y="278.45679012345676"/>
      <point x="303.8" y="-22.4"/>
      <point x="695.4" y="-22.4" type="curve" smooth="yes"/>
      <point x="985.0" y="-22.4"/>
      <point x="1159.3171848374666" y="139.4585212211514"/>
    </contour>
  </outline>
</glyph>
<glyph name="D" format="2">
  <advance width="1397.8"/>
  <unicode hex="0044"/>
  <anchor x="686.2" y="1535.0" name="center"/>
  <outline>
    <contour>
      <point x="62.0" y="51.800000000000004" type="curve" smooth="yes"/>
      <point x="62.0" y="18.2"/>
      <point x="82.8" y="0.0"/>
      <point x="121.6" y="0.0" type="curve" smooth="yes"/>
      <point x="642.8" y="0.0" type="line" smooth="yes"/>
      <point x="1089.0" y="0.0"/>
      <point x="1334.6" y="287.0"/>
      <point x="1334.6" y="664.6" type="curve" smooth="yes"/>
      <point x="1334.6" y="1089.4"/>
      <point x="1027.156274256145" y="1400.0"/>
      <point x="564.8" y="1400.0" type="curve" smooth="yes"/>
      <point x="121.6" y="1400.0" type="line" smooth="yes"/>
      <point x="82.8" y="1400.0"/>
      <point x="62.0" y="1381.8"/>
      <point x="62.0" y="1348.2" type="curve" smooth="yes"/>
      <point x="62.0" y="1320.2"/>
      <point x="77.2" y="1301.6"/>
      <point x="106.6" y="1291.2" type="curve" smooth="yes"/>
      <point x="166.0" y="1279.0" type="line" smooth="yes"/>
      <point x="200.01729838178554" y="1268.4106875261257"/>
      <point x="214.0" y="1247.9636363636364"/>
      <point x="214.0" y="1209.8" type="curve" smooth="yes"/>
      <point x="214.0" y="190.2" type="line" smooth="yes"/>
      <point x="214.0" y="152.2"/>
      <point x="200.01729838178554" y="131.58931247387432"/>
      <point x="166.0" y="121.0" type="curve" smooth="yes"/>
      <point x="106.6" y="108.8" type="line" smooth="yes"/>
      <point x="77.2" y="98.4"/>
      <point x="62.0" y="79.8"/>
    </contour>
    <contour>
      <point x="631.2" y="105.2" type="curve" smooth="yes"/>
      <point x="522.0" y="105.2" type="line" smooth="yes"/>
      <point x="452.8" y="105.2"/>
      <point x="419.4" y="136.94496644295305"/>
      <point x="419.4" y="207.6" type="curve" smooth="yes"/>
      <point x="419.4" y="1295.4" type="line"/>
      <point x="549.2" y="1295.4" type="line" smooth="yes"/>
      <point x="889.8510578279266" y="1295.4"/>
      <point x="1122.0" y="1031.5092936802973"/>
      <point x="1122.0" y="672.0" type="curve" smooth="yes"/>
      <point x="1122.0" y="323.5207437487831"/>
      <point x="940.0" y="105.2"/>
    </contour>
  </outline>
</glyph>
<glyph name="E" format="2">
  <advance width="1147.4"/>
  <unicode hex="0045"/>
  <anchor x="604.2" y="1511.8" name="center"/>
  <outline>
    <contour>
      <point x="325.2" y="747.8" type="line"/>
      <point x="325.2" y="643.2" type="line"/>
      <point x="716.4" y="643.2" type="line" smooth="yes"/>
      <point x="783.0" y="643.2"/>
      <point x="809.0" y="623.4"/>
      <point x="839.4" y="548.6" type="curve" smooth="yes"/>
      <point x="854.0" y="521.2"/>
      <point x="877.8" y="508.4"/>
      <point x="903.6" y="516.2" type="curve" smooth="yes"/>
      <point x="929.2" y="524.0"/>
      <point x="939.4" y="547.8"/>
      <point x="930.4" y="586.0" type="curve" smooth="yes"/>
      <point x="868.0" y="853.6" type="line" smooth="yes"/>
      <point x="860.2" y="886.4"/>
      <point x="844.8" y="900.8"/>
      <point x="818.6" y="899.0" type="curve" smooth="yes"/>
      <point x="795.8" y="897.2"/>
      <point x="780.8" y="879.8"/>
      <point x="774.6" y="842.8" type="curve" smooth="yes"/>
      <point x="773.4" y="768.2"/>
      <point x="750.2" y="747.8"/>
      <point x="705.0" y="747.8" type="curve" smooth="yes"/>
    </contour>
    <contour>
      <point x="62.0" y="1348.2" type="curve" smooth="yes"/>
      <point x="62.0" y="1320.2"/>
      <point x="77.2" y="1301.6"/>
      <point x="106.6" y="1291.2" type="curve" smooth="yes"/>
      <point x="166.0" y="1279.0" type="line" smooth="yes"/>
      <point x="200.0" y="1268.2"/>
      <point x="214.0" y="1247.8"/>
      <point x="214.0" y="1209.8" type="curve" smooth="yes"/>
      <point x="214.0" y="190.2" type="line" smooth="yes"/>
      <point x="214.0" y="152.2"/>
      <point x="200.0" y="131.8"/>
      <point x="166.0" y="121.0" type="curve" smooth="yes"/>
      <point x="106.6" y="108.8" type="line" smooth="yes"/>
      <point x="77.2" y="98.4"/>
      <point x="62.0" y="79.8"/>
      <point x="62.0" y="51.800000000000004" type="curve" smooth="yes"/>
      <point x="62.0" y="18.2"/>
      <point x="82.8" y="0.0"/>
      <point x="121.6" y="0.0" type="curve" smooth="yes"/>
      <point x="848.8" y="0.0" type="line" smooth="yes"/>
      <point x="899.0" y="0.0"/>
      <point x="927.8" y="-31.2"/>
      <point x="966.0" y="-31.2" type="curve" smooth="yes"/>
      <point x="1007.2" y="-31.2"/>
      <point x="1025.4" y="-8.8"/>
      <point x="1038.6" y="40.60000000000001" type="curve" smooth="yes"/>
      <point x="1109.6" y="323.6" type="line" smooth="yes"/>
      <point x="1119.8" y="364.2"/>
      <point x="1107.2" y="391.6"/>
      <point x="1075.4" y="398.0" type="curve" smooth="yes"/>
      <point x="1045.8" y="404.4"/>
      <point x="1023.2" y="393.0"/>
      <point x="1010.6" y="356.8" type="curve" smooth="yes"/>
      <point x="942.8" y="143.2"/>
      <point x="895.8" y="105.2"/>
      <point x="788.4" y="105.2" type="curve" smooth="yes"/>
      <point x="515.4" y="105.2" type="line" smooth="yes"/>
      <point x="450.8" y="105.2"/>
      <point x="418.8" y="141.4"/>
      <point x="418.8" y="211.0" type="curve" smooth="yes"/>
      <point x="418.8" y="1294.8" type="line"/>
      <point x="762.2" y="1294.8" type="line" smooth="yes"/>
      <point x="865.0" y="1294.8"/>
      <point x="906.8" y="1262.2"/>
      <point x="964.2" y="1095.0" type="curve" smooth="yes"/>
      <point x="979.6" y="1055.4"/>
      <point x="1006.0" y="1044.0"/>
      <point x="1037.6" y="1050.8" type="curve" smooth="yes"/>
      <point x="1067.8" y="1057.2"/>
      <point x="1084.8" y="1081.4"/>
      <point x="1074.8" y="1119.6" type="curve" smooth="yes"/>
      <point x="1008.8" y="1365.2" type="line" smooth="yes"/>
      <point x="995.2" y="1414.8"/>
      <point x="977.0" y="1437.0"/>
      <point x="937.8" y="1437.0" type="curve" smooth="yes"/>
      <point x="892.2" y="1437.0"/>
      <point x="876.4" y="1400.0"/>
      <point x="819.0" y="1400.0" type="curve" smooth="yes"/>
      <point x="121.6" y="1400.0" type="line" smooth="yes"/>
      <point x="82.8" y="1400.0"/>
      <point x="62.0" y="1381.8"/>
    </contour>
  </outline>
</glyph>
<glyph name="F" format="2">
  <advance width="1051.6"/>
  <unicode hex="0046"/>
  <outline>
    <contour>
      <point x="767.6" y="1400.0" type="curve" smooth="yes"/>
      <point x="121.6" y="1400.0" type="line" smooth="yes"/>
      <point x="82.8" y="1400.0"/>
      <point x="62.0" y="1381.8"/>
      <point x="62.0" y="1348.2" type="curve" smooth="yes"/>
      <point x="62.0" y="1320.2"/>
      <point x="77.2" y="1301.6"/>
      <point x="106.6" y="1291.2" type="curve" smooth="yes"/>
      <point x="166.0" y="1279.0" type="line" smooth="yes"/>
      <point x="200.0" y="1268.2"/>
      <point x="214.0" y="1247.8"/>
      <point x="214.0" y="1209.8" type="curve" smooth="yes"/>
      <point x="214.0" y="190.2" type="line" smooth="yes"/>
      <point x="214.0" y="152.03636363636363"/>
      <point x="200.01729838178554" y="131.58931247387432"/>
      <point x="166.0" y="121.0" type="curve" smooth="yes"/>
      <point x="106.6" y="108.8" type="line" smooth="yes"/>
      <point x="77.2" y="98.4"/>
      <point x="62.0" y="79.8"/>
      <point x="62.0" y="51.800000000000004" type="curve" smooth="yes"/>
      <point x="62.0" y="18.2"/>
      <point x="82.8" y="0.0"/>
      <point x="121.6" y="0.0" type="curve" smooth="yes"/>
      <point x="543.6" y="0.0" type="line" smooth="yes"/>
      <point x="583.0" y="0.0"/>
      <point x="603.8" y="18.2"/>
      <point x="603.8" y="51.800000000000004" type="curve" smooth="yes"/>
      <point x="603.8" y="83.60000000000001"/>
      <point x="588.0" y="98.8"/>
      <point x="558.6" y="106.4" type="curve" smooth="yes"/>
      <point x="469.8" y="121.0" type="line" smooth="yes"/>
      <point x="437.4" y="127.8"/>
      <point x="422.4" y="150.03636363636363"/>
      <point x="422.4" y="190.2" type="curve" smooth="yes"/>
      <point x="422.4" y="1295.4" type="line"/>
      <point x="728.8" y="1295.4" type="line" smooth="yes"/>
      <point x="820.2" y="1295.4"/>
      <point x="862.0109423545762" y="1262.8426726697587"/>
      <point x="918.8" y="1088.4" type="curve" smooth="yes"/>
      <point x="933.6" y="1048.8"/>
      <point x="959.4" y="1038.4"/>
      <point x="984.2" y="1043.0" type="curve" smooth="yes"/>
      <point x="1014.4" y="1048.2"/>
      <point x="1033.4" y="1072.4"/>
      <point x="1023.8" y="1108.2" type="curve" smooth="yes"/>
      <point x="959.2" y="1365.2" type="line" smooth="yes"/>
      <point x="945.6" y="1414.4"/>
      <point x="927.4" y="1437.0"/>
      <point x="887.2" y="1437.0" type="curve" smooth="yes"/>
      <point x="847.4" y="1437.0"/>
      <point x="819.4" y="1400.0"/>
    </contour>
    <contour>
      <point x="319.6" y="708.8" type="line"/>
      <point x="319.6" y="604.2" type="line"/>
      <point x="713.2" y="604.2" type="line" smooth="yes"/>
      <point x="778.8" y="604.2"/>
      <point x="801.0296512184622" y="579.0111979887603"/>
      <point x="830.6" y="508.4" type="curve" smooth="yes"/>
      <point x="845.0" y="480.2"/>
      <point x="869.4" y="468.0"/>
      <point x="893.6" y="475.0" type="curve" smooth="yes"/>
      <point x="921.2" y="483.8"/>
      <point x="929.6" y="507.6"/>
      <point x="921.2" y="545.8" type="curve" smooth="yes"/>
      <point x="858.6" y="813.4" type="line" smooth="yes"/>
      <point x="851.8" y="846.2"/>
      <point x="835.6" y="860.6"/>
      <point x="809.6" y="858.8" type="curve" smooth="yes"/>
      <point x="784.6" y="857.0"/>
      <point x="768.8" y="838.0"/>
      <point x="765.0" y="804.2" type="curve" smooth="yes"/>
      <point x="765.0" y="733.0"/>
      <point x="749.6" y="708.8"/>
      <point x="694.4" y="708.8" type="curve" smooth="yes"/>
    </contour>
  </outline>
</glyph>
<glyph name="G" format="2">
  <advance width="1353.6"/>
  <unicode hex="0047"/>
  <anchor x="728.4" y="1516.0" name="center"/>
  <outline>
    <contour>
      <point x="1192.2" y="47.800000000000004" type="curve" smooth="yes"/>
      <point x="1192.2" y="457.8" type="line" smooth="yes"/>
      <point x="1192.2" y="497.6"/>
      <point x="1210.5053230126873" y="516.063165376586"/>
      <point x="1239.6" y="524.0" type="curve" smooth="yes"/>
      <point x="1294.4" y="533.6" type="line" smooth="yes"/>
      <point x="1323.2" y="543.8"/>
      <point x="1339.4" y="558.8"/>
      <point x="1339.4" y="586.2" type="curve" smooth="yes"/>
      <point x="1339.4" y="617.6"/>
      <point x="1320.6" y="636.0"/>
      <point x="1279.2" y="636.0" type="curve" smooth="yes"/>
      <point x="893.8" y="636.0" type="line" smooth="yes"/>
      <point x="853.8" y="636.0"/>
      <point x="834.2" y="617.4"/>
      <point x="834.2" y="586.2" type="curve" smooth="yes"/>
      <point x="834.2" y="557.4"/>
      <point x="854.6" y="542.0"/>
      <point x="886.0" y="531.6" type="curve" smooth="yes"/>
      <point x="955.0" y="519.6" type="line" smooth="yes"/>
      <point x="985.8" y="511.8"/>
      <point x="1002.4" y="494.8"/>
      <point x="1002.4" y="457.8" type="curve" smooth="yes"/>
      <point x="1002.4" y="248.2" type="line" smooth="yes"/>
      <point x="1002.4" y="157.8"/>
      <point x="929.1243553008596" y="103.60000000000001"/>
      <point x="754.4" y="103.60000000000001" type="curve" smooth="yes"/>
      <point x="487.4" y="103.60000000000001"/>
      <point x="271.20000000000005" y="338.6338680926916"/>
      <point x="271.20000000000005" y="723.2" type="curve" smooth="yes"/>
      <point x="271.20000000000005" y="1077.4305676855895"/>
      <point x="467.6844036697248" y="1314.0"/>
      <point x="734.2" y="1314.0" type="curve" smooth="yes"/>
      <point x="928.2170212765957" y="1314.0"/>
      <point x="1051.4224415271178" y="1239.9403458161332"/>
      <point x="1142.6" y="1001.0" type="curve" smooth="yes"/>
      <point x="1156.2" y="968.8"/>
      <point x="1183.809645010634" y="954.2590354989367"/>
      <point x="1215.2" y="959.0" type="curve" smooth="yes"/>
      <point x="1246.0" y="964.2"/>
      <point x="1261.0" y="992.2"/>
      <point x="1251.8" y="1023.8" type="curve" smooth="yes"/>
      <point x="1153.6" y="1356.0" type="line" smooth="yes"/>
      <point x="1140.0561373240291" y="1404.0678240421128"/>
      <point x="1125.6" y="1417.6"/>
      <point x="1100.6" y="1417.6" type="curve" smooth="yes"/>
      <point x="1055.0" y="1417.6"/>
      <point x="1060.929411764706" y="1344.6"/>
      <point x="1034.2" y="1344.6" type="curve" smooth="yes"/>
      <point x="998.328323699422" y="1344.6"/>
      <point x="929.4601156069364" y="1418.8"/>
      <point x="710.6" y="1418.8" type="curve" smooth="yes"/>
      <point x="343.00458265139116" y="1418.8"/>
      <point x="57.6" y="1110.730670470756"/>
      <point x="57.6" y="694.8" type="curve" smooth="yes"/>
      <point x="57.6" y="274.06062246278753"/>
      <point x="297.6" y="-20.0"/>
      <point x="695.8" y="-20.0" type="curve" smooth="yes"/>
      <point x="934.8991304347827" y="-20.0"/>
      <point x="1009.3760683760684" y="74.0"/>
      <point x="1041.8" y="74.0" type="curve" smooth="yes"/>
      <point x="1070.7882352941176" y="74.0"/>
      <point x="1078.5800000000002" y="-28.8"/>
      <point x="1128.4" y="-28.8" type="curve" smooth="yes"/>
      <point x="1171.0" y="-28.8"/>
      <point x="1192.2" y="-4.399999999999999"/>
    </contour>
  </outline>
</glyph>
<glyph name="H" format="2">
  <advance width="1468.0"/>
  <unicode hex="0048"/>
  <outline>
    <contour>
      <point x="298.2" y="717.4" type="line"/>
      <point x="298.2" y="606.0" type="line"/>
      <point x="1129.0" y="606.0" type="line"/>
      <point x="1129.0" y="717.4" type="line"/>
    </contour>
    <contour>
      <point x="419.4" y="190.8" type="curve" smooth="yes"/>
      <point x="419.4" y="1211.0" type="line" smooth="yes"/>
      <point x="419.4" y="1247.8"/>
      <point x="433.4" y="1267.0"/>
      <point x="466.8" y="1277.8" type="curve" smooth="yes"/>
      <point x="526.8" y="1291.2" type="line" smooth="yes"/>
      <point x="556.8" y="1302.2"/>
      <point x="572.0" y="1320.2"/>
      <point x="572.0" y="1348.2" type="curve" smooth="yes"/>
      <point x="572.0" y="1381.8"/>
      <point x="551.2" y="1400.0"/>
      <point x="512.4" y="1400.0" type="curve" smooth="yes"/>
      <point x="121.6" y="1400.0" type="line" smooth="yes"/>
      <point x="82.8" y="1400.0"/>
      <point x="62.0" y="1381.8"/>
      <point x="62.0" y="1348.2" type="curve" smooth="yes"/>
      <point x="62.0" y="1320.2"/>
      <point x="76.6" y="1302.2"/>
      <point x="106.6" y="1291.2" type="curve" smooth="yes"/>
      <point x="166.0" y="1277.8" type="line" smooth="yes"/>
      <point x="199.4" y="1267.0"/>
      <point x="214.0" y="1247.8"/>
      <point x="214.0" y="1211.0" type="curve" smooth="yes"/>
      <point x="214.0" y="190.8" type="line" smooth="yes"/>
      <point x="214.0" y="152.8"/>
      <point x="197.6" y="133.0"/>
      <point x="160.0" y="121.60000000000001" type="curve" smooth="yes"/>
      <point x="106.6" y="108.8" type="line" smooth="yes"/>
      <point x="77.2" y="97.8"/>
      <point x="62.0" y="79.8"/>
      <point x="62.0" y="51.800000000000004" type="curve" smooth="yes"/>
      <point x="62.0" y="18.2"/>
      <point x="82.8" y="0.0"/>
      <point x="121.6" y="0.0" type="curve" smooth="yes"/>
      <point x="512.4" y="0.0" type="line" smooth="yes"/>
      <point x="551.2" y="0.0"/>
      <point x="572.0" y="18.2"/>
      <point x="572.0" y="51.800000000000004" type="curve" smooth="yes"/>
      <point x="572.0" y="79.8"/>
      <point x="556.2" y="97.8"/>
      <point x="526.8" y="108.8" type="curve" smooth="yes"/>
      <point x="472.8" y="121.60000000000001" type="line" smooth="yes"/>
      <point x="435.8" y="133.0"/>
      <point x="419.4" y="152.8"/>
    </contour>
    <contour>
      <point x="1252.8" y="190.8" type="curve" smooth="yes"/>
      <point x="1252.8" y="1211.0" type="line" smooth="yes"/>
      <point x="1252.8" y="1247.8"/>
      <point x="1266.8" y="1267.0"/>
      <point x="1300.2" y="1277.8" type="curve" smooth="yes"/>
      <point x="1360.2" y="1291.2" type="line" smooth="yes"/>
      <point x="1390.2" y="1302.2"/>
      <point x="1405.4" y="1320.2"/>
      <point x="1405.4" y="1348.2" type="curve" smooth="yes"/>
      <point x="1405.4" y="1381.8"/>
      <point x="1384.6" y="1400.0"/>
      <point x="1345.8" y="1400.0" type="curve" smooth="yes"/>
      <point x="955.0" y="1400.0" type="line" smooth="yes"/>
      <point x="916.2" y="1400.0"/>
      <point x="895.4" y="1381.8"/>
      <point x="895.4" y="1348.2" type="curve" smooth="yes"/>
      <point x="895.4" y="1320.2"/>
      <point x="910.0" y="1302.2"/>
      <point x="940.0" y="1291.2" type="curve" smooth="yes"/>
      <point x="999.4" y="1277.8" type="line" smooth="yes"/>
      <point x="1032.8" y="1267.0"/>
      <point x="1047.4" y="1247.8"/>
      <point x="1047.4" y="1211.0" type="curve" smooth="yes"/>
      <point x="1047.4" y="190.8" type="line" smooth="yes"/>
      <point x="1047.4" y="152.8"/>
      <point x="1031.0" y="133.0"/>
      <point x="993.4" y="121.60000000000001" type="curve" smooth="yes"/>
      <point x="940.0" y="108.8" type="line" smooth="yes"/>
      <point x="910.6" y="97.8"/>
      <point x="895.4" y="79.8"/>
      <point x="895.4" y="51.800000000000004" type="curve" smooth="yes"/>
      <point x="895.4" y="18.2"/>
      <point x="916.2" y="0.0"/>
      <point x="955.0" y="0.0" type="curve" smooth="yes"/>
      <point x="1345.8" y="0.0" type="line" smooth="yes"/>
      <point x="1384.6" y="0.0"/>
      <point x="1405.4" y="18.2"/>
      <point x="1405.4" y="51.800000000000004" type="curve" smooth="yes"/>
      <point x="1405.4" y="79.8"/>
      <point x="1389.6" y="97.8"/>
      <point x="1360.2" y="108.8" type="curve" smooth="yes"/>
      <point x="1306.2" y="121.60000000000001" type="line" smooth="yes"/>
      <point x="1269.2" y="133.0"/>
      <point x="1252.8" y="152.8"/>
    </contour>
  </outline>
</glyph>
<glyph name="I" format="2">
  <advance width="623.2"/>
  <unicode hex="0049"/>
  <outline>
    <contour>
      <point x="414.0" y="190.8" type="curve" smooth="yes"/>
      <point x="414.0" y="1211.0" type="line" smooth="yes"/>
      <point x="414.0" y="1247.8"/>
      <point x="428.0" y="1267.0"/>
      <point x="461.4" y="1277.8" type="curve" smooth="yes"/>
      <point x="521.4" y="1291.2" type="line" smooth="yes"/>
      <point x="551.4" y="1302.2"/>
      <point x="566.6" y="1320.2"/>
      <point x="566.6" y="1348.2" type="curve" smooth="yes"/>
      <point x="566.6" y="1381.8"/>
      <point x="545.8" y="1400.0"/>
      <point x="507.0" y="1400.0" type="curve" smooth="yes"/>
      <point x="116.2" y="1400.0" type="line" smooth="yes"/>
      <point x="77.4" y="1400.0"/>
      <point x="56.6" y="1381.8"/>
      <point x="56.6" y="1348.2" type="curve" smooth="yes"/>
      <point x="56.6" y="1320.2"/>
      <point x="71.2" y="1302.2"/>
      <point x="101.2" y="1291.2" type="curve" smooth="yes"/>
      <point x="160.6" y="1277.8" type="line" smooth="yes"/>
      <point x="194.0" y="1267.0"/>
      <point x="208.6" y="1247.8"/>
      <point x="208.6" y="1211.0" type="curve" smooth="yes"/>
      <point x="208.6" y="190.8" type="line" smooth="yes"/>
      <point x="208.6" y="152.8"/>
      <point x="192.2" y="133.0"/>
      <point x="154.6" y="121.60000000000001" type="curve" smooth="yes"/>
      <point x="101.2" y="108.8" type="line" smooth="yes"/>
      <point x="71.8" y="97.8"/>
      <point x="56.6" y="79.8"/>
      <point x="56.6" y="51.800000000000004" type="curve" smooth="yes"/>
      <point x="56.6" y="18.2"/>
      <point x="77.4" y="0.0"/>
      <point x="116.2" y="0.0" type="curve" smooth="yes"/>
      <point x="507.0" y="0.0" type="line" smooth="yes"/>
      <point x="545.8" y="0.0"/>
      <point x="566.6" y="18.2"/>
      <point x="566.6" y="51.800000000000004" type="curve" smooth="yes"/>
      <point x="566.6" y="79.8"/>
      <point x="550.8" y="97.8"/>
      <point x="521.4" y="108.8" type="curve" smooth="yes"/>
      <point x="467.4" y="121.60000000000001" type="line" smooth="yes"/>
      <point x="430.4" y="133.0"/>
      <point x="414.0" y="152.8"/>
    </contour>
  </outline>
</glyph>
<glyph name="J" format="2">
  <advance width="805.0"/>
  <unicode hex="004A"/>
  <anchor x="466.8" y="1464.8" name="center"/>
  <outline>
    <contour>
      <point x="685.4000000000001" y="232.2" type="curve" smooth="yes"/>
      <point x="685.4000000000001" y="377.0"/>
      <point x="590.4000000000001" y="418.7111111111111"/>
      <point x="590.4000000000001" y="620.4" type="curve" smooth="yes"/>
      <point x="590.4000000000001" y="1203.4" type="line" smooth="yes"/>
      <point x="590.4000000000001" y="1241.4581818181819"/>
      <point x="604.3537894233486" y="1261.7648013101268"/>
      <point x="640.8" y="1272.6" type="curve" smooth="yes"/>
      <point x="700.8" y="1284.8" type="line" smooth="yes"/>
      <point x="730.2" y="1295.2"/>
      <point x="746.0" y="1313.8"/>
      <point x="746.0" y="1341.8" type="curve" smooth="yes"/>
      <point x="746.0" y="1375.4"/>
      <point x="725.2" y="1393.6"/>
      <point x="686.4" y="1393.6" type="curve" smooth="yes"/>
      <point x="284.4" y="1393.6" type="line" smooth="yes"/>
      <point x="245.60000000000002" y="1393.6"/>
      <point x="224.8" y="1375.4"/>
      <point x="224.8" y="1341.8" type="curve" smooth="yes"/>
      <point x="224.8" y="1310.6"/>
      <point x="240.60000000000002" y="1296.8"/>
      <point x="270.0" y="1287.2" type="curve" smooth="yes"/>
      <point x="337.6" y="1271.4" type="line" smooth="yes"/>
      <point x="370.72723838178615" y="1262.0391648021016"/>
      <point x="385.0" y="1242.2"/>
      <point x="385.0" y="1202.2" type="curve" smooth="yes"/>
      <point x="385.0" y="597.0" type="line" smooth="yes"/>
      <point x="385.0" y="378.4"/>
      <point x="496.6" y="334.6"/>
      <point x="496.6" y="203.2" type="curve" smooth="yes"/>
      <point x="496.6" y="111.2"/>
      <point x="444.3333333333333" y="64.8"/>
      <point x="367.8" y="64.8" type="curve" smooth="yes"/>
      <point x="281.9428571428572" y="64.8"/>
      <point x="251.4" y="110.6"/>
      <point x="251.4" y="186.6" type="curve" smooth="yes"/>
      <point x="251.4" y="248.8" type="line" smooth="yes"/>
      <point x="251.4" y="316.4"/>
      <point x="213.60000000000002" y="356.0"/>
      <point x="159.2" y="356.0" type="curve" smooth="yes"/>
      <point x="94.8" y="356.0"/>
      <point x="53.599999999999994" y="304.525"/>
      <point x="53.599999999999994" y="226.4" type="curve" smooth="yes"/>
      <point x="53.599999999999994" y="77.00000000000001"/>
      <point x="164.20000000000002" y="-23.6"/>
      <point x="360.6" y="-23.6" type="curve" smooth="yes"/>
      <point x="551.2" y="-23.6"/>
      <point x="685.4000000000001" y="75.4"/>
    </contour>
  </outline>
</glyph>
<glyph name="K" format="2">
  <advance width="1347.2"/>
  <unicode hex="004B"/>
  <anchor x="724.4" y="1468.0" name="center"/>
  <outline>
    <contour>
      <point x="334.6" y="542.2" type="line"/>
      <point x="368.0" y="437.6" type="line"/>
      <point x="1084.8" y="1186.4" type="line" smooth="yes"/>
      <point x="1150.2204244462037" y="1252.0943930943633"/>
      <point x="1173.188046284801" y="1271.8346020209779"/>
      <point x="1223.2" y="1287.0" type="curve" smooth="yes"/>
      <point x="1273.8" y="1304.6"/>
      <point x="1293.4" y="1319.4"/>
      <point x="1293.4" y="1348.2" type="curve" smooth="yes"/>
      <point x="1293.4" y="1381.0"/>
      <point x="1273.8" y="1400.0"/>
      <point x="1233.2" y="1400.0" type="curve" smooth="yes"/>
      <point x="908.4" y="1400.0" type="line" smooth="yes"/>
      <point x="868.4" y="1400.0"/>
      <point x="848.8" y="1381.0"/>
      <point x="848.8" y="1348.2" type="curve" smooth="yes"/>
      <point x="848.8" y="1320.2"/>
      <point x="865.0" y="1302.8"/>
      <point x="894.0" y="1292.0" type="curve" smooth="yes"/>
      <point x="957.8" y="1281.0" type="line" smooth="yes"/>
      <point x="993.7605516618333" y="1270.1617946938754"/>
      <point x="999.0719764380838" y="1246.4542325816622"/>
      <point x="965.8" y="1212.4" type="curve" smooth="yes"/>
    </contour>
    <contour>
      <point x="596.0" y="765.8" type="line"/>
      <point x="950.2" y="185.2" type="line" smooth="yes"/>
      <point x="975.8" y="142.8"/>
      <point x="973.0917912974464" y="124.24876481703592"/>
      <point x="943.4" y="115.4" type="curve" smooth="yes"/>
      <point x="884.8" y="106.4" type="line" smooth="yes"/>
      <point x="858.8" y="95.60000000000001"/>
      <point x="844.0" y="79.4"/>
      <point x="844.0" y="51.800000000000004" type="curve" smooth="yes"/>
      <point x="844.0" y="19.0"/>
      <point x="862.6" y="0.0"/>
      <point x="902.6" y="0.0" type="curve" smooth="yes"/>
      <point x="1289.8" y="0.0" type="line" smooth="yes"/>
      <point x="1329.8" y="0.0"/>
      <point x="1349.4" y="19.0"/>
      <point x="1349.4" y="51.800000000000004" type="curve" smooth="yes"/>
      <point x="1349.4" y="86.2"/>
      <point x="1334.4" y="99.60000000000001"/>
      <point x="1282.2" y="116.0" type="curve" smooth="yes"/>
      <point x="1246.8749144328106" y="127.97437652660297"/>
      <point x="1216.0215787423208" y="144.64956960486876"/>
      <point x="1193.8" y="180.60000000000002" type="curve" smooth="yes"/>
      <point x="748.0" y="898.4" type="line"/>
    </contour>
    <contour>
      <point x="419.4" y="196.2" type="curve" smooth="yes"/>
      <point x="419.4" y="1209.8" type="line" smooth="yes"/>
      <point x="419.4" y="1247.8"/>
      <point x="434.0" y="1268.2"/>
      <point x="467.4" y="1279.0" type="curve" smooth="yes"/>
      <point x="526.2" y="1291.2" type="line" smooth="yes"/>
      <point x="556.8" y="1302.2"/>
      <point x="572.0" y="1320.2"/>
      <point x="572.0" y="1348.2" type="curve" smooth="yes"/>
      <point x="572.0" y="1380.6"/>
      <point x="551.2" y="1400.0"/>
      <point x="512.4" y="1400.0" type="curve" smooth="yes"/>
      <point x="121.6" y="1400.0" type="line" smooth="yes"/>
      <point x="82.8" y="1400.0"/>
      <point x="62.0" y="1381.8"/>
      <point x="62.0" y="1348.2" type="curve" smooth="yes"/>
      <point x="62.0" y="1320.2"/>
      <point x="77.2" y="1301.6"/>
      <point x="106.6" y="1291.2" type="curve" smooth="yes"/>
      <point x="166.0" y="1279.0" type="line" smooth="yes"/>
      <point x="200.01729838178554" y="1268.4106875261257"/>
      <point x="214.0" y="1247.8"/>
      <point x="214.0" y="1209.8" type="curve" smooth="yes"/>
      <point x="214.0" y="196.2" type="line" smooth="yes"/>
      <point x="214.0" y="154.60000000000002"/>
      <point x="200.03746480639344" y="131.59160991465242"/>
      <point x="166.0" y="121.0" type="curve" smooth="yes"/>
      <point x="106.6" y="108.8" type="line" smooth="yes"/>
      <point x="77.2" y="98.4"/>
      <point x="62.0" y="79.8"/>
      <point x="62.0" y="51.800000000000004" type="curve" smooth="yes"/>
      <point x="62.0" y="18.2"/>
      <point x="82.8" y="0.0"/>
      <point x="121.6" y="0.0" type="curve" smooth="yes"/>
      <point x="513.0" y="0.0" type="line" smooth="yes"/>
      <point x="552.4" y="0.0"/>
      <point x="573.2" y="19.4"/>
      <point x="573.2" y="51.800000000000004" type="curve" smooth="yes"/>
      <point x="573.2" y="80.4"/>
      <point x="557.4" y="97.8"/>
      <point x="527.4" y="108.8" type="curve" smooth="yes"/>
      <point x="467.4" y="121.60000000000001" type="line" smooth="yes"/>
      <point x="434.0" y="132.4"/>
      <point x="419.4" y="155.2"/>
    </contour>
  </outline>
</glyph>
<glyph name="L" format="2">
  <advance width="1076.8"/>
  <unicode hex="004C"/>
  <anchor x="841.8" y="1380.0" name="right"/>
  <anchor x="321.8" y="1473.6" name="center"/>
  <outline>
    <contour>
      <point x="526.2" y="1291.2" type="line" smooth="yes"/>
      <point x="556.8" y="1302.2"/>
      <point x="572.0" y="1320.2"/>
      <point x="572.0" y="1348.2" type="curve" smooth="yes"/>
      <point x="572.0" y="1381.8"/>
      <point x="551.2" y="1400.0"/>
      <point x="512.4" y="1400.0" type="curve" smooth="yes"/>
      <point x="121.6" y="1400.0" type="line" smooth="yes"/>
      <point x="82.8" y="1400.0"/>
      <point x="62.0" y="1381.8"/>
      <point x="62.0" y="1348.2" type="curve" smooth="yes"/>
      <point x="62.0" y="1320.2"/>
      <point x="77.2" y="1301.6"/>
      <point x="106.6" y="1291.2" type="curve" smooth="yes"/>
      <point x="166.0" y="1279.0" type="line" smooth="yes"/>
      <point x="200.0172983817855" y="1268.4106875261257"/>
      <point x="214.0" y="1247.8"/>
      <point x="214.0" y="1209.8" type="curve" smooth="yes"/>
      <point x="214.0" y="190.2" type="line" smooth="yes"/>
      <point x="214.0" y="152.2"/>
      <point x="199.91146154900264" y="131.57725511317753"/>
      <point x="166.0" y="121.0" type="curve" smooth="yes"/>
      <point x="106.6" y="108.8" type="line" smooth="yes"/>
      <point x="77.2" y="98.4"/>
      <point x="62.0" y="79.8"/>
      <point x="62.0" y="51.800000000000004" type="curve" smooth="yes"/>
      <point x="62.0" y="18.2"/>
      <point x="82.8" y="0.0"/>
      <point x="121.6" y="0.0" type="curve" smooth="yes"/>
      <point x="790.4" y="0.0" type="line" smooth="yes"/>
      <point x="841.2" y="0.0"/>
      <point x="869.6" y="-32.4"/>
      <point x="911.6" y="-32.4" type="curve" smooth="yes"/>
      <point x="949.0" y="-32.4"/>
      <point x="969.0" y="-10.399999999999999"/>
      <point x="981.4" y="39.400000000000006" type="curve" smooth="yes"/>
      <point x="1057.2" y="336.2" type="line" smooth="yes"/>
      <point x="1067.4" y="376.8"/>
      <point x="1054.2" y="403.6"/>
      <point x="1022.2" y="410.6" type="curve" smooth="yes"/>
      <point x="993.6" y="416.0"/>
      <point x="970.0" y="404.4"/>
      <point x="954.6" y="364.6" type="curve" smooth="yes"/>
      <point x="913.6" y="249.60000000000002" type="line" smooth="yes"/>
      <point x="873.8" y="140.0"/>
      <point x="835.8" y="107.8"/>
      <point x="759.8" y="107.8" type="curve" smooth="yes"/>
      <point x="497.8" y="107.8" type="line" smooth="yes"/>
      <point x="444.6" y="107.8"/>
      <point x="419.4" y="132.2"/>
      <point x="419.4" y="186.0" type="curve" smooth="yes"/>
      <point x="419.4" y="1209.8" type="line" smooth="yes"/>
      <point x="419.4" y="1247.8"/>
      <point x="434.0" y="1268.2"/>
      <point x="467.4" y="1279.0" type="curve" smooth="yes"/>
    </contour>
  </outline>
</glyph>
<glyph name="M" format="2">
  <advance width="1636.4"/>
  <unicode hex="004D"/>
  <anchor x="787.2" y="1478.8" name="center"/>
  <outline>
    <contour>
      <point x="870.2" y="277.2" type="line"/>
      <point x="478.0" y="1314.8" type="line" smooth="yes"/>
      <point x="454.4" y="1381.2"/>
      <point x="425.6" y="1400.0"/>
      <point x="372.6" y="1400.0" type="curve" smooth="yes"/>
      <point x="160.8" y="1400.0" type="line" smooth="yes"/>
      <point x="121.2" y="1400.0"/>
      <point x="101.2" y="1381.4"/>
      <point x="101.2" y="1348.2" type="curve" smooth="yes"/>
      <point x="101.2" y="1320.2"/>
      <point x="114.0" y="1304.2"/>
      <point x="146.4" y="1291.2" type="curve" smooth="yes"/>
      <point x="211.4" y="1277.2" type="line" smooth="yes"/>
      <point x="242.2" y="1265.0"/>
      <point x="250.2" y="1240.6"/>
      <point x="247.8" y="1202.0" type="curve" smooth="yes"/>
      <point x="177.4" y="196.8" type="line" smooth="yes"/>
      <point x="174.0" y="150.8"/>
      <point x="161.06283734006405" y="129.532854667508"/>
      <point x="130.0" y="121.0" type="curve" smooth="yes"/>
      <point x="73.6" y="110.2" type="line" smooth="yes"/>
      <point x="41.2" y="97.2"/>
      <point x="25.2" y="81.0"/>
      <point x="25.2" y="51.800000000000004" type="curve" smooth="yes"/>
      <point x="25.2" y="19.0"/>
      <point x="44.400000000000006" y="0.0"/>
      <point x="84.80000000000001" y="0.0" type="curve" smooth="yes"/>
      <point x="375.2" y="0.0" type="line" smooth="yes"/>
      <point x="415.6" y="0.0"/>
      <point x="434.8" y="19.8"/>
      <point x="434.8" y="53.4" type="curve" smooth="yes"/>
      <point x="434.8" y="79.60000000000001"/>
      <point x="420.2" y="95.0"/>
      <point x="397.0" y="104.0" type="curve" smooth="yes"/>
      <point x="339.8" y="118.4" type="line" smooth="yes"/>
      <point x="298.4" y="135.4"/>
      <point x="287.6" y="156.0"/>
      <point x="290.6" y="199.60000000000002" type="curve" smooth="yes"/>
      <point x="361.8" y="1227.6" type="line"/>
      <point x="305.2" y="1208.8" type="line"/>
      <point x="691.4" y="191.2" type="line" smooth="yes"/>
      <point x="722.0004283948884" y="108.75270736841955"/>
      <point x="746.375" y="97.39999999999999"/>
      <point x="783.2" y="97.39999999999999" type="curve" smooth="yes"/>
      <point x="818.0" y="97.39999999999999"/>
      <point x="840.9724821929839" y="112.28853944896893"/>
      <point x="867.6" y="184.8" type="curve" smooth="yes"/>
      <point x="1254.2" y="1208.2" type="line"/>
      <point x="1193.6" y="1206.2" type="line"/>
      <point x="1270.2" y="192.0" type="line" smooth="yes"/>
      <point x="1273.4697326947974" y="149.413005922102"/>
      <point x="1256.532789032417" y="130.59993876614692"/>
      <point x="1222.4" y="121.0" type="curve" smooth="yes"/>
      <point x="1162.4" y="108.8" type="line" smooth="yes"/>
      <point x="1132.6" y="98.0"/>
      <point x="1118.2" y="79.60000000000001"/>
      <point x="1118.2" y="51.800000000000004" type="curve" smooth="yes"/>
      <point x="1118.2" y="19.0"/>
      <point x="1137.4" y="0.0"/>
      <point x="1177.8" y="0.0" type="curve" smooth="yes"/>
      <point x="1563.0" y="0.0" type="line" smooth="yes"/>
      <point x="1603.0" y="0.0"/>
      <point x="1622.6" y="21.0"/>
      <point x="1622.6" y="54.2" type="curve" smooth="yes"/>
      <point x="1622.6" y="82.60000000000001"/>
      <point x="1606.4" y="100.4"/>
      <point x="1580.2" y="108.8" type="curve" smooth="yes"/>
      <point x="1520.6" y="121.0" type="line" smooth="yes"/>
      <point x="1489.9014823331238" y="129.50358323752357"/>
      <point x="1476.8" y="147.2"/>
      <point x="1473.4" y="192.60000000000002" type="curve" smooth="yes"/>
      <point x="1404.8" y="1173.2" type="line" smooth="yes"/>
      <point x="1399.9717953855793" y="1242.164633661994"/>
      <point x="1413.0" y="1265.4"/>
      <point x="1461.6" y="1279.0" type="curve" smooth="yes"/>
      <point x="1509.0" y="1291.2" type="line" smooth="yes"/>
      <point x="1539.8" y="1303.0"/>
      <point x="1554.0" y="1321.0"/>
      <point x="1554.0" y="1348.2" type="curve" smooth="yes"/>
      <point x="1554.0" y="1381.0"/>
      <point x="1534.2" y="1400.0"/>
      <point x="1493.8" y="1400.0" type="curve" smooth="yes"/>
      <point x="1299.8" y="1400.0" type="line" smooth="yes"/>
      <point x="1233.6" y="1400.0"/>
      <point x="1201.0" y="1378.0"/>
      <point x="1173.0" y="1297.4" type="curve" smooth="yes"/>
      <point x="784.4" y="257.0" type="line"/>
    </contour>
  </outline>
</glyph>
<glyph name="N" format="2">
  <advance width="1407.8"/>
  <unicode hex="004E"/>
  <anchor x="704.2" y="1484.8" name="center"/>
  <outline>
    <contour>
      <point x="481.2" y="51.800000000000004" type="curve" smooth="yes"/>
      <point x="481.2" y="80.2"/>
      <point x="465.4" y="96.8"/>
      <point x="432.4" y="110.2" type="curve" smooth="yes"/>
      <point x="376.4" y="121.0" type="line" smooth="yes"/>
      <point x="342.4" y="131.8"/>
      <point x="326.8" y="150.2"/>
      <point x="326.8" y="193.0" type="curve" smooth="yes"/>
      <point x="326.8" y="1156.8" type="line"/>
      <point x="269.8" y="1097.6" type="line"/>
      <point x="975.8" y="133.0" type="line" smooth="yes"/>
      <point x="1012.4" y="82.0"/>
      <point x="1015.2" y="68.4"/>
      <point x="1015.2" y="40.0" type="curve" smooth="yes"/>
      <point x="1015.2" y="14.200000000000001"/>
      <point x="1030.0" y="0.0"/>
      <point x="1059.0" y="0.0" type="curve" smooth="yes"/>
      <point x="1229.4" y="0.0" type="line" smooth="yes"/>
      <point x="1262.0" y="0.0"/>
      <point x="1280.0" y="19.400000000000002"/>
      <point x="1280.0" y="46.6" type="curve" smooth="yes"/>
      <point x="1280.0" y="62.60000000000001"/>
      <point x="1273.2" y="76.60000000000001"/>
      <point x="1255.2" y="105.8" type="curve" smooth="yes"/>
      <point x="1215.0" y="163.8" type="line" smooth="yes"/>
      <point x="1199.0580372344846" y="189.05852978666448"/>
      <point x="1193.8" y="218.6"/>
      <point x="1193.8" y="257.20000000000005" type="curve" smooth="yes"/>
      <point x="1193.8" y="1207.0" type="line" smooth="yes"/>
      <point x="1193.8" y="1249.8"/>
      <point x="1208.0" y="1267.8"/>
      <point x="1241.8" y="1279.0" type="curve" smooth="yes"/>
      <point x="1297.6" y="1289.8" type="line" smooth="yes"/>
      <point x="1331.2" y="1303.2"/>
      <point x="1346.0" y="1319.8"/>
      <point x="1346.0" y="1348.2" type="curve" smooth="yes"/>
      <point x="1346.0" y="1381.0"/>
      <point x="1326.8" y="1400.0"/>
      <point x="1286.4" y="1400.0" type="curve" smooth="yes"/>
      <point x="986.2" y="1400.0" type="line" smooth="yes"/>
      <point x="946.2" y="1400.0"/>
      <point x="926.6" y="1381.0"/>
      <point x="926.6" y="1348.2" type="curve" smooth="yes"/>
      <point x="926.6" y="1319.8"/>
      <point x="942.8" y="1303.6"/>
      <point x="975.4" y="1289.8" type="curve" smooth="yes"/>
      <point x="1031.4" y="1279.0" type="line" smooth="yes"/>
      <point x="1066.8" y="1267.4"/>
      <point x="1081.0" y="1249.0"/>
      <point x="1081.0" y="1207.0" type="curve" smooth="yes"/>
      <point x="1081.0" y="196.8" type="line"/>
      <point x="1113.6" y="290.8" type="line"/>
      <point x="331.8" y="1357.6" type="line" smooth="yes"/>
      <point x="308.4" y="1390.2"/>
      <point x="288.20000000000005" y="1400.0"/>
      <point x="247.4" y="1400.0" type="curve" smooth="yes"/>
      <point x="119.2" y="1400.0" type="line" smooth="yes"/>
      <point x="90.2" y="1400.0"/>
      <point x="70.4" y="1382.8"/>
      <point x="70.4" y="1355.6" type="curve" smooth="yes"/>
      <point x="70.4" y="1332.4"/>
      <point x="79.6" y="1316.2"/>
      <point x="99.4" y="1293.0" type="curve" smooth="yes"/>
      <point x="189.6" y="1180.2" type="line" smooth="yes"/>
      <point x="208.8" y="1157.4"/>
      <point x="214.0" y="1133.0"/>
      <point x="214.0" y="1078.6" type="curve" smooth="yes"/>
      <point x="214.0" y="193.0" type="line" smooth="yes"/>
      <point x="214.0" y="150.60000000000002"/>
      <point x="198.2" y="131.0"/>
      <point x="166.0" y="121.0" type="curve" smooth="yes"/>
      <point x="109.6" y="110.2" type="line" smooth="yes"/>
      <point x="76.6" y="96.8"/>
      <point x="61.8" y="80.2"/>
      <point x="61.8" y="51.800000000000004" type="curve" smooth="yes"/>
      <point x="61.8" y="19.0"/>
      <point x="81.0" y="0.0"/>
      <point x="121.4" y="0.0" type="curve" smooth="yes"/>
      <point x="421.6" y="0.0" type="line" smooth="yes"/>
      <point x="461.0" y="0.0"/>
      <point x="481.2" y="19.0"/>
    </contour>
  </outline>
</glyph>
<glyph name="O" format="2">
  <advance width="1435.2"/>
  <unicode hex="004F"/>
  <outline>
    <contour>
      <point x="706.8" y="1418.8" type="curve" smooth="yes"/>
      <point x="325.2" y="1418.8"/>
      <point x="54.4" y="1118.6"/>
      <point x="54.4" y="691.2" type="curve" smooth="yes"/>
      <point x="54.4" y="268.4"/>
      <point x="326.0" y="-22.4"/>
      <point x="718.8" y="-22.4" type="curve" smooth="yes"/>
      <point x="1105.2" y="-22.4"/>
      <point x="1372.8" y="274.6"/>
      <point x="1372.8" y="707.0" type="curve" smooth="yes"/>
      <point x="1372.8" y="1124.4"/>
      <point x="1103.6" y="1418.8"/>
    </contour>
    <contour>
      <point x="1154.0" y="614.6" type="curve" smooth="yes"/>
      <point x="1154.0" y="303.6"/>
      <point x="985.4" y="95.60000000000001"/>
      <point x="742.8" y="95.60000000000001" type="curve" smooth="yes"/>
      <point x="457.4" y="95.60000000000001"/>
      <point x="273.20000000000005" y="426.0"/>
      <point x="273.20000000000005" y="776.4" type="curve" smooth="yes"/>
      <point x="273.20000000000005" y="1089.8"/>
      <point x="441.8" y="1300.8"/>
      <point x="685.6" y="1300.8" type="curve" smooth="yes"/>
      <point x="969.2" y="1300.8"/>
      <point x="1154.0" y="967.4"/>
    </contour>
  </outline>
</glyph>
<glyph name="P" format="2">
  <advance width="1164.8"/>
  <unicode hex="0050"/>
  <outline>
    <contour>
      <point x="1140.2" y="903.0" type="curve" smooth="yes"/>
      <point x="1140.2" y="1183.0"/>
      <point x="918.6" y="1400.0"/>
      <point x="529.2" y="1400.0" type="curve" smooth="yes"/>
      <point x="121.6" y="1400.0" type="line" smooth="yes"/>
      <point x="82.8" y="1400.0"/>
      <point x="62.0" y="1381.8"/>
      <point x="62.0" y="1348.2" type="curve" smooth="yes"/>
      <point x="62.0" y="1320.2"/>
      <point x="77.2" y="1301.6"/>
      <point x="106.6" y="1291.2" type="curve" smooth="yes"/>
      <point x="166.0" y="1279.0" type="line" smooth="yes"/>
      <point x="200.01729838178554" y="1268.4106875261257"/>
      <point x="214.0" y="1247.9636363636364"/>
      <point x="214.0" y="1209.8" type="curve" smooth="yes"/>
      <point x="214.0" y="190.2" type="line" smooth="yes"/>
      <point x="214.0" y="152.2"/>
      <point x="200.01729838178554" y="131.58931247387432"/>
      <point x="166.0" y="121.0" type="curve" smooth="yes"/>
      <point x="106.6" y="108.8" type="line" smooth="yes"/>
      <point x="77.2" y="98.4"/>
      <point x="62.0" y="79.8"/>
      <point x="62.0" y="51.800000000000004" type="curve" smooth="yes"/>
      <point x="62.0" y="18.2"/>
      <point x="82.8" y="0.0"/>
      <point x="121.6" y="0.0" type="curve" smooth="yes"/>
      <point x="541.2" y="0.0" type="line" smooth="yes"/>
      <point x="580.0" y="0.0"/>
      <point x="600.8" y="18.2"/>
      <point x="600.8" y="51.800000000000004" type="curve" smooth="yes"/>
      <point x="600.8" y="83.60000000000001"/>
      <point x="585.0" y="98.8"/>
      <point x="555.0" y="106.4" type="curve" smooth="yes"/>
      <point x="466.8" y="121.0" type="line" smooth="yes"/>
      <point x="434.5972123776338" y="128.09743073459154"/>
      <point x="419.4" y="150.2"/>
      <point x="419.4" y="190.2" type="curve" smooth="yes"/>
      <point x="419.4" y="1295.4" type="line"/>
      <point x="522.2" y="1295.4" type="line" smooth="yes"/>
      <point x="776.6" y="1295.4"/>
      <point x="928.6" y="1133.4594753400575"/>
      <point x="928.6" y="910.4" type="curve" smooth="yes"/>
      <point x="928.6" y="692.2901098901099"/>
      <point x="795.6015873015873" y="574.2"/>
      <point x="603.6" y="574.2" type="curve" smooth="yes"/>
      <point x="531.2" y="574.2"/>
      <point x="427.8" y="589.0"/>
      <point x="338.2" y="649.0" type="curve"/>
      <point x="322.8" y="544.4" type="line"/>
      <point x="410.8" y="491.8"/>
      <point x="536.2" y="465.0"/>
      <point x="652.0" y="465.0" type="curve" smooth="yes"/>
      <point x="945.9708520179372" y="465.0"/>
      <point x="1140.2" y="634.9572052401747"/>
    </contour>
  </outline>
</glyph>
<glyph name="Q" format="2">
  <advance width="1426.6"/>
  <unicode hex="0051"/>
  <outline>
    <contour>
      <point x="706.8" y="1418.8" type="curve" smooth="yes"/>
      <point x="324.6" y="1418.8"/>
      <point x="53.2" y="1118.6"/>
      <point x="53.2" y="691.2" type="curve" smooth="yes"/>
      <point x="53.2" y="268.4"/>
      <point x="325.4" y="-22.4"/>
      <point x="718.8" y="-22.4" type="curve" smooth="yes"/>
      <point x="1105.2" y="-22.4"/>
      <point x="1372.8" y="274.6"/>
      <point x="1372.8" y="707.0" type="curve" smooth="yes"/>
      <point x="1372.8" y="1124.4"/>
      <point x="1103.6" y="1418.8"/>
    </contour>
    <contour>
      <point x="1154.0" y="614.6" type="curve" smooth="yes"/>
      <point x="1154.0" y="303.6"/>
      <point x="985.4" y="95.60000000000001"/>
      <point x="742.8" y="95.60000000000001" type="curve" smooth="yes"/>
      <point x="457.4" y="95.60000000000001"/>
      <point x="273.20000000000005" y="426.0"/>
      <point x="273.20000000000005" y="777.0" type="curve" smooth="yes"/>
      <point x="273.20000000000005" y="1089.8"/>
      <point x="441.8" y="1300.8"/>
      <point x="685.6" y="1300.8" type="curve" smooth="yes"/>
      <point x="969.2" y="1300.8"/>
      <point x="1154.0" y="967.4"/>
    </contour>
    <contour>
      <point x="740.8" y="339.4" type="curve" smooth="yes"/>
      <point x="895.8894273891384" y="-145.79932062106602"/>
      <point x="1049.2" y="-293.4"/>
      <point x="1249.8" y="-293.4" type="curve" smooth="yes"/>
      <point x="1317.4" y="-293.4"/>
      <point x="1347.4" y="-276.8"/>
      <point x="1372.0" y="-232.6" type="curve" smooth="yes"/>
      <point x="1396.4" y="-188.4" type="line" smooth="yes"/>
      <point x="1410.4" y="-164.2"/>
      <point x="1415.0" y="-150.0"/>
      <point x="1415.0" y="-134.4" type="curve" smooth="yes"/>
      <point x="1415.0" y="-111.6"/>
      <point x="1399.2" y="-100.0"/>
      <point x="1379.6" y="-100.0" type="curve" smooth="yes"/>
      <point x="1349.8" y="-100.0"/>
      <point x="1329.4" y="-135.0"/>
      <point x="1257.2" y="-135.0" type="curve" smooth="yes"/>
      <point x="1100.2" y="-135.0"/>
      <point x="975.2968404532112" y="-29.636299652684684"/>
      <point x="833.6" y="358.4" type="curve" smooth="yes"/>
      <point x="816.0" y="408.8"/>
      <point x="797.6" y="426.0"/>
      <point x="769.6" y="419.6" type="curve" smooth="yes"/>
      <point x="738.8" y="413.6"/>
      <point x="727.2" y="384.8"/>
    </contour>
  </outline>
</glyph>
<glyph name="R" format="2">
  <advance width="1274.0"/>
  <unicode hex="0052"/>
  <anchor x="642.0" y="1476.0" name="center"/>
  <outline>
    <contour>
      <point x="1143.2" y="925.4" type="curve" smooth="yes"/>
      <point x="1143.2" y="1193.0035643564356"/>
      <point x="924.2" y="1400.0"/>
      <point x="538.6" y="1400.0" type="curve" smooth="yes"/>
      <point x="121.6" y="1400.0" type="line" smooth="yes"/>
      <point x="82.8" y="1400.0"/>
      <point x="62.0" y="1381.8"/>
      <point x="62.0" y="1348.2" type="curve" smooth="yes"/>
      <point x="62.0" y="1320.2"/>
      <point x="77.2" y="1302.2"/>
      <point x="106.6" y="1291.2" type="curve" smooth="yes"/>
      <point x="160.0" y="1279.0" type="line" smooth="yes"/>
      <point x="197.6" y="1267.6"/>
      <point x="214.0" y="1247.8"/>
      <point x="214.0" y="1209.8" type="curve" smooth="yes"/>
      <point x="214.0" y="190.2" type="line" smooth="yes"/>
      <point x="214.0" y="152.2"/>
      <point x="197.6" y="132.4"/>
      <point x="160.0" y="121.0" type="curve" smooth="yes"/>
      <point x="106.6" y="108.8" type="line" smooth="yes"/>
      <point x="77.2" y="97.8"/>
      <point x="62.0" y="79.8"/>
      <point x="62.0" y="51.800000000000004" type="curve" smooth="yes"/>
      <point x="62.0" y="18.2"/>
      <point x="82.8" y="0.0"/>
      <point x="121.6" y="0.0" type="curve" smooth="yes"/>
      <point x="513.0" y="0.0" type="line" smooth="yes"/>
      <point x="551.2" y="0.0"/>
      <point x="572.6" y="18.2"/>
      <point x="572.6" y="51.800000000000004" type="curve" smooth="yes"/>
      <point x="572.6" y="80.4"/>
      <point x="556.8" y="97.8"/>
      <point x="526.2" y="108.8" type="curve" smooth="yes"/>
      <point x="467.4" y="121.60000000000001" type="line" smooth="yes"/>
      <point x="434.0" y="132.4"/>
      <point x="419.4" y="152.8"/>
      <point x="419.4" y="190.2" type="curve" smooth="yes"/>
      <point x="419.4" y="1293.0" type="line"/>
      <point x="529.2" y="1293.0" type="line" smooth="yes"/>
      <point x="781.6" y="1293.0"/>
      <point x="932.4" y="1137.985016286645"/>
      <point x="932.4" y="927.0" type="curve" smooth="yes"/>
      <point x="932.4" y="736.7981308411215"/>
      <point x="812.4" y="623.2"/>
      <point x="606.6" y="623.2" type="curve" smooth="yes"/>
      <point x="539.0" y="623.2"/>
      <point x="434.20000000000005" y="631.4"/>
      <point x="357.0" y="681.0" type="curve"/>
      <point x="350.20000000000005" y="582.4" type="line"/>
      <point x="422.6" y="539.2"/>
      <point x="537.6" y="514.8"/>
      <point x="638.6" y="514.8" type="curve" smooth="yes"/>
      <point x="728.2" y="514.8"/>
      <point x="764.6289919300998" y="530.4744531448933"/>
      <point x="835.4" y="543.6" type="curve" smooth="yes"/>
      <point x="1020.6955529094237" y="583.8180185486342"/>
      <point x="1143.2" y="733.2952112676056"/>
    </contour>
    <contour>
      <point x="675.2" y="572.0" type="line"/>
      <point x="894.2" y="160.60000000000002" type="line" smooth="yes"/>
      <point x="911.2" y="127.60000000000001"/>
      <point x="907.6" y="112.0"/>
      <point x="886.4" y="106.8" type="curve" smooth="yes"/>
      <point x="834.4" y="97.4" type="line" smooth="yes"/>
      <point x="811.4" y="89.8"/>
      <point x="798.8" y="74.80000000000001"/>
      <point x="798.8" y="51.800000000000004" type="curve" smooth="yes"/>
      <point x="798.8" y="17.8"/>
      <point x="818.8" y="0.0"/>
      <point x="857.4" y="0.0" type="curve" smooth="yes"/>
      <point x="1201.8" y="0.0" type="line" smooth="yes"/>
      <point x="1241.8" y="0.0"/>
      <point x="1261.4" y="19.0"/>
      <point x="1261.4" y="51.800000000000004" type="curve" smooth="yes"/>
      <point x="1261.4" y="82.60000000000001"/>
      <point x="1246.2" y="98.8"/>
      <point x="1195.8" y="111.4" type="curve" smooth="yes"/>
      <point x="1153.0" y="123.2"/>
      <point x="1138.0" y="134.60000000000002"/>
      <point x="1118.4" y="170.2" type="curve" smooth="yes"/>
      <point x="874.4000000000001" y="600.2" type="line"/>
    </contour>
  </outline>
</glyph>
<glyph name="S" format="2">
  <advance width="1034.6"/>
  <unicode hex="0053"/>
  <anchor x="567.8" y="1587.0" name="center"/>
  <outline>
    <contour>
      <point x="554.0" y="-27.8" type="curve" smooth="yes"/>
      <point x="807.6" y="-27.8"/>
      <point x="969.2" y="124.80000000000001"/>
      <point x="969.8" y="335.8" type="curve" smooth="yes"/>
      <point x="970.4" y="533.2"/>
      <point x="877.1878141579956" y="652.6337939322876"/>
      <point x="589.2" y="768.0" type="curve" smooth="yes"/>
      <point x="313.5942900665939" y="876.1306415750942"/>
      <point x="257.0" y="965.2"/>
      <point x="257.0" y="1089.2" type="curve" smooth="yes"/>
      <point x="257.0" y="1221.0"/>
      <point x="354.8285714285714" y="1311.8"/>
      <point x="493.0" y="1311.8" type="curve" smooth="yes"/>
      <point x="663.5939393939394" y="1311.8"/>
      <point x="799.2334051987367" y="1224.6905337333703"/>
      <point x="873.4" y="1025.8" type="curve" smooth="yes"/>
      <point x="888.4" y="991.0"/>
      <point x="914.4" y="978.4"/>
      <point x="945.8" y="989.0" type="curve" smooth="yes"/>
      <point x="978.6" y="1000.0"/>
      <point x="987.0" y="1025.0"/>
      <point x="975.4" y="1063.6" type="curve" smooth="yes"/>
      <point x="889.8" y="1350.0" type="line" smooth="yes"/>
      <point x="873.7439228348242" y="1403.3259478209231"/>
      <point x="860.4" y="1421.2"/>
      <point x="829.0" y="1421.2" type="curve" smooth="yes"/>
      <point x="776.0" y="1421.2"/>
      <point x="793.0" y="1348.8"/>
      <point x="757.6" y="1348.8" type="curve" smooth="yes"/>
      <point x="720.0" y="1348.8"/>
      <point x="644.0" y="1424.8"/>
      <point x="474.2" y="1424.2" type="curve" smooth="yes"/>
      <point x="231.2" y="1423.6"/>
      <point x="66.0" y="1260.0"/>
      <point x="66.0" y="1039.4" type="curve" smooth="yes"/>
      <point x="66.0" y="841.8"/>
      <point x="165.750645162626" y="701.7385367736485"/>
      <point x="438.0" y="603.4" type="curve" smooth="yes"/>
      <point x="727.087765756282" y="496.99804214466224"/>
      <point x="781.2" y="411.8"/>
      <point x="780.0" y="290.8" type="curve" smooth="yes"/>
      <point x="778.8000025536653" y="163.8002055700605"/>
      <point x="680.25" y="83.0"/>
      <point x="545.2" y="83.0" type="curve" smooth="yes"/>
      <point x="371.51496062992123" y="83.0"/>
      <point x="258.42894458421245" y="167.7019946534562"/>
      <point x="190.2" y="340.0" type="curve" smooth="yes"/>
      <point x="170.2" y="379.2"/>
      <point x="152.4" y="389.4"/>
      <point x="121.6" y="381.6" type="curve" smooth="yes"/>
      <point x="91.4" y="374.0"/>
      <point x="78.2" y="348.4"/>
      <point x="85.2" y="316.2" type="curve" smooth="yes"/>
      <point x="149.6" y="36.6" type="line" smooth="yes"/>
      <point x="157.6" y="-3.1999999999999993"/>
      <point x="176.2" y="-22.4"/>
      <point x="207.4" y="-22.4" type="curve" smooth="yes"/>
      <point x="254.2" y="-22.4"/>
      <point x="236.68" y="52.0"/>
      <point x="271.4" y="52.0" type="curve" smooth="yes"/>
      <point x="301.54098360655735" y="52.0"/>
      <point x="379.4" y="-27.8"/>
    </contour>
  </outline>
</glyph>
<glyph name="T" format="2">
  <advance width="1200.4"/>
  <unicode hex="0054"/>
  <outline>
    <contour>
      <point x="289.4" y="1400.0" type="line" smooth="yes"/>
      <point x="233.2" y="1400.0"/>
      <point x="211.60000000000002" y="1439.4"/>
      <point x="169.2" y="1439.4" type="curve" smooth="yes"/>
      <point x="128.0" y="1439.4"/>
      <point x="108.6" y="1417.2"/>
      <point x="96.6" y="1367.6" type="curve" smooth="yes"/>
      <point x="35.2" y="1100.8" type="line" smooth="yes"/>
      <point x="25.4" y="1059.2"/>
      <point x="41.0" y="1031.8"/>
      <point x="72.0" y="1025.8" type="curve" smooth="yes"/>
      <point x="101.4" y="1019.6"/>
      <point x="124.2" y="1032.4"/>
      <point x="139.0" y="1071.2" type="curve" smooth="yes"/>
      <point x="197.44504288085952" y="1257.5769948633488"/>
      <point x="224.2" y="1291.4"/>
      <point x="312.6" y="1291.4" type="curve" smooth="yes"/>
      <point x="496.6" y="1291.4" type="line"/>
      <point x="496.6" y="190.2" type="line" smooth="yes"/>
      <point x="496.6" y="152.2"/>
      <point x="482.6" y="130.60000000000002"/>
      <point x="449.2" y="121.0" type="curve" smooth="yes"/>
      <point x="366.4" y="108.8" type="line" smooth="yes"/>
      <point x="337.0" y="98.4"/>
      <point x="321.2" y="79.8"/>
      <point x="321.2" y="51.800000000000004" type="curve" smooth="yes"/>
      <point x="321.2" y="18.2"/>
      <point x="342.0" y="0.0"/>
      <point x="380.8" y="0.0" type="curve" smooth="yes"/>
      <point x="823.2" y="0.0" type="line" smooth="yes"/>
      <point x="862.6" y="0.0"/>
      <point x="882.8" y="18.2"/>
      <point x="882.8" y="51.800000000000004" type="curve" smooth="yes"/>
      <point x="882.8" y="79.8"/>
      <point x="867.6" y="98.4"/>
      <point x="837.6" y="108.8" type="curve" smooth="yes"/>
      <point x="754.8" y="121.0" type="line" smooth="yes"/>
      <point x="719.6" y="131.2"/>
      <point x="703.2" y="152.2"/>
      <point x="703.2" y="190.2" type="curve" smooth="yes"/>
      <point x="703.2" y="1291.4" type="line"/>
      <point x="878.2" y="1291.4" type="line" smooth="yes"/>
      <point x="968.8" y="1291.4"/>
      <point x="1003.3504071893227" y="1255.9309615573352"/>
      <point x="1061.8" y="1071.2" type="curve" smooth="yes"/>
      <point x="1076.6" y="1032.4"/>
      <point x="1100.6" y="1019.6"/>
      <point x="1129.4" y="1025.8" type="curve" smooth="yes"/>
      <point x="1160.0" y="1031.8"/>
      <point x="1175.6" y="1059.2"/>
      <point x="1165.8" y="1100.8" type="curve" smooth="yes"/>
      <point x="1103.2" y="1366.4" type="line" smooth="yes"/>
      <point x="1091.2" y="1416.0"/>
      <point x="1071.8" y="1438.2"/>
      <point x="1030.6" y="1438.2" type="curve" smooth="yes"/>
      <point x="991.2" y="1438.2"/>
      <point x="968.2" y="1400.0"/>
      <point x="919.2" y="1400.0" type="curve" smooth="yes"/>
    </contour>
  </outline>
</glyph>
<glyph name="U" format="2">
  <advance width="1327.8"/>
  <unicode hex="0055"/>
  <anchor x="712.6" y="1461.6" name="center"/>
  <outline>
    <contour>
      <point x="1046.8" y="590.0" type="line" smooth="yes"/>
      <point x="1050.0" y="537.6"/>
      <point x="1051.8" y="490.8"/>
      <point x="1054.2" y="408.4" type="curve" smooth="yes"/>
      <point x="1061.4" y="213.0"/>
      <point x="938.6" y="98.2"/>
      <point x="715.0" y="98.2" type="curve" smooth="yes"/>
      <point x="498.4" y="98.2"/>
      <point x="368.4" y="209.2"/>
      <point x="373.8" y="422.2" type="curve" smooth="yes"/>
      <point x="376.8" y="486.4"/>
      <point x="378.20000000000005" y="560.6"/>
      <point x="383.4" y="655.4" type="curve" smooth="yes"/>
      <point x="415.4" y="1213.4" type="line" smooth="yes"/>
      <point x="417.8" y="1252.2"/>
      <point x="429.6" y="1272.4"/>
      <point x="462.20000000000005" y="1279.0" type="curve" smooth="yes"/>
      <point x="519.2" y="1289.0" type="line" smooth="yes"/>
      <point x="555.8" y="1297.6"/>
      <point x="574.6" y="1315.0"/>
      <point x="574.6" y="1347.4" type="curve" smooth="yes"/>
      <point x="574.6" y="1379.8"/>
      <point x="554.8" y="1400.0"/>
      <point x="517.8" y="1400.0" type="curve" smooth="yes"/>
      <point x="96.4" y="1400.0" type="line" smooth="yes"/>
      <point x="60.0" y="1400.0"/>
      <point x="38.599999999999994" y="1379.8"/>
      <point x="38.599999999999994" y="1347.4" type="curve" smooth="yes"/>
      <point x="38.599999999999994" y="1315.0"/>
      <point x="58.6" y="1296.4"/>
      <point x="95.0" y="1288.2" type="curve" smooth="yes"/>
      <point x="159.2" y="1279.0" type="line" smooth="yes"/>
      <point x="197.0" y="1271.4"/>
      <point x="211.0" y="1250.2"/>
      <point x="208.6" y="1209.0" type="curve" smooth="yes"/>
      <point x="176.8" y="655.4" type="line" smooth="yes"/>
      <point x="171.6" y="572.2"/>
      <point x="165.2" y="456.0"/>
      <point x="164.0" y="396.0" type="curve" smooth="yes"/>
      <point x="158.6" y="135.2"/>
      <point x="330.0" y="-26.0"/>
      <point x="661.4" y="-26.0" type="curve" smooth="yes"/>
      <point x="999.4" y="-26.0"/>
      <point x="1176.4" y="148.2"/>
      <point x="1168.6" y="394.8" type="curve" smooth="yes"/>
      <point x="1166.2" y="463.2"/>
      <point x="1163.2" y="524.4"/>
      <point x="1159.6" y="590.8" type="curve" smooth="yes"/>
      <point x="1130.2" y="1210.4" type="line" smooth="yes"/>
      <point x="1127.6" y="1249.6"/>
      <point x="1144.6" y="1271.0"/>
      <point x="1182.0" y="1279.0" type="curve" smooth="yes"/>
      <point x="1240.2" y="1289.0" type="line" smooth="yes"/>
      <point x="1275.6" y="1298.4"/>
      <point x="1295.6" y="1315.4"/>
      <point x="1295.6" y="1347.4" type="curve" smooth="yes"/>
      <point x="1295.6" y="1379.8"/>
      <point x="1275.2" y="1400.0"/>
      <point x="1238.8" y="1400.0" type="curve" smooth="yes"/>
      <point x="901.2" y="1400.0" type="line" smooth="yes"/>
      <point x="865.4" y="1400.0"/>
      <point x="844.4" y="1379.8"/>
      <point x="844.4" y="1347.4" type="curve" smooth="yes"/>
      <point x="844.4" y="1315.4"/>
      <point x="862.6" y="1297.4"/>
      <point x="899.8" y="1288.6" type="curve" smooth="yes"/>
      <point x="960.4" y="1279.0" type="line" smooth="yes"/>
      <point x="991.6" y="1273.0"/>
      <point x="1005.8" y="1258.6"/>
      <point x="1008.4" y="1217.4" type="curve" smooth="yes"/>
    </contour>
  </outline>
</glyph>
<glyph name="V" format="2">
  <advance width="1267.4"/>
  <unicode hex="0056"/>
  <outline>
    <contour>
      <point x="856.6" y="1348.2" type="curve" smooth="yes"/>
      <point x="856.6" y="1320.2"/>
      <point x="874.0" y="1304.4"/>
      <point x="901.4" y="1295.2" type="curve" smooth="yes"/>
      <point x="972.2" y="1282.8" type="line" smooth="yes"/>
      <point x="1014.4" y="1271.6"/>
      <point x="1023.4" y="1250.2"/>
      <point x="1006.4" y="1199.2" type="curve" smooth="yes"/>
      <point x="639.8" y="91.4" type="line"/>
      <point x="705.2" y="155.2" type="line"/>
      <point x="357.2" y="1202.8" type="line" smooth="yes"/>
      <point x="340.40000000000003" y="1253.2"/>
      <point x="348.8" y="1272.8"/>
      <point x="382.0" y="1282.4" type="curve" smooth="yes"/>
      <point x="452.20000000000005" y="1294.8" type="line" smooth="yes"/>
      <point x="481.8" y="1304.8"/>
      <point x="497.6" y="1320.8"/>
      <point x="497.6" y="1348.2" type="curve" smooth="yes"/>
      <point x="497.6" y="1381.0"/>
      <point x="478.20000000000005" y="1400.0"/>
      <point x="437.4" y="1400.0" type="curve" smooth="yes"/>
      <point x="61.8" y="1400.0" type="line" smooth="yes"/>
      <point x="21.800000000000004" y="1400.0"/>
      <point x="2.1999999999999993" y="1381.0"/>
      <point x="2.1999999999999993" y="1348.2" type="curve" smooth="yes"/>
      <point x="2.1999999999999993" y="1321.2"/>
      <point x="15.0" y="1304.2"/>
      <point x="42.6" y="1294.0" type="curve" smooth="yes"/>
      <point x="80.4" y="1284.0" type="line" smooth="yes"/>
      <point x="109.14396094081883" y="1273.1008052078907"/>
      <point x="122.00646924589813" y="1255.284921196155"/>
      <point x="136.6" y="1212.6" type="curve" smooth="yes"/>
      <point x="485.8" y="165.2" type="line" smooth="yes"/>
      <point x="495.02827156940884" y="136.92658519081567"/>
      <point x="504.8" y="113.03333333333333"/>
      <point x="504.8" y="89.6" type="curve" smooth="yes"/>
      <point x="504.8" y="62.400000000000006" type="line" smooth="yes"/>
      <point x="504.8" y="21.4"/>
      <point x="523.4" y="0.0"/>
      <point x="554.2" y="0.0" type="curve" smooth="yes"/>
      <point x="712.0" y="0.0" type="line" smooth="yes"/>
      <point x="741.0" y="0.0"/>
      <point x="760.8" y="21.8"/>
      <point x="760.8" y="61.2" type="curve" smooth="yes"/>
      <point x="760.8" y="88.0" type="line" smooth="yes"/>
      <point x="760.8" y="115.67692307692309"/>
      <point x="770.3927506309001" y="141.63904268109889"/>
      <point x="783.8" y="181.0" type="curve" smooth="yes"/>
      <point x="1120.4" y="1197.4" type="line" smooth="yes"/>
      <point x="1139.4" y="1254.2"/>
      <point x="1157.2" y="1274.6"/>
      <point x="1185.8" y="1285.2" type="curve" smooth="yes"/>
      <point x="1224.8" y="1295.2" type="line" smooth="yes"/>
      <point x="1254.6" y="1306.6"/>
      <point x="1269.6" y="1321.2"/>
      <point x="1269.6" y="1348.2" type="curve" smooth="yes"/>
      <point x="1269.6" y="1379.4"/>
      <point x="1250.4" y="1400.0"/>
      <point x="1209.4" y="1400.0" type="curve" smooth="yes"/>
      <point x="916.2" y="1400.0" type="line" smooth="yes"/>
      <point x="875.8" y="1400.0"/>
      <point x="856.6" y="1381.0"/>
    </contour>
  </outline>
</glyph>
<glyph name="W" format="2">
  <advance width="1912.0"/>
  <unicode hex="0057"/>
  <anchor x="932.6" y="1528.8" name="center"/>
  <outline>
    <contour>
      <point x="923.2" y="1148.8" type="line"/>
      <point x="596.6" y="92.4" type="line"/>
      <point x="672.0" y="154.2" type="line"/>
      <point x="362.40000000000003" y="1187.8" type="line" smooth="yes"/>
      <point x="342.0" y="1255.6"/>
      <point x="348.8" y="1277.0"/>
      <point x="382.8" y="1286.4" type="curve" smooth="yes"/>
      <point x="448.8" y="1296.4" type="line" smooth="yes"/>
      <point x="476.4" y="1305.2"/>
      <point x="491.4" y="1322.0"/>
      <point x="491.4" y="1348.2" type="curve" smooth="yes"/>
      <point x="491.4" y="1381.0"/>
      <point x="472.0" y="1400.0"/>
      <point x="432.20000000000005" y="1400.0" type="curve" smooth="yes"/>
      <point x="62.400000000000006" y="1400.0" type="line" smooth="yes"/>
      <point x="22.4" y="1400.0"/>
      <point x="3.400000000000002" y="1381.0"/>
      <point x="3.400000000000002" y="1348.2" type="curve" smooth="yes"/>
      <point x="3.400000000000002" y="1320.4"/>
      <point x="16.2" y="1305.2"/>
      <point x="44.2" y="1294.0" type="curve" smooth="yes"/>
      <point x="82.0" y="1282.2" type="line" smooth="yes"/>
      <point x="110.6" y="1270.2"/>
      <point x="124.8" y="1254.4"/>
      <point x="137.8" y="1212.6" type="curve" smooth="yes"/>
      <point x="455.0" y="167.2" type="line" smooth="yes"/>
      <point x="465.4" y="133.2"/>
      <point x="470.4" y="111.4"/>
      <point x="470.4" y="88.4" type="curve" smooth="yes"/>
      <point x="470.4" y="59.4" type="line" smooth="yes"/>
      <point x="470.4" y="20.200000000000003"/>
      <point x="489.2" y="0.0"/>
      <point x="519.8" y="0.0" type="curve" smooth="yes"/>
      <point x="674.0" y="0.0" type="line" smooth="yes"/>
      <point x="701.8" y="0.0"/>
      <point x="721.6" y="20.200000000000003"/>
      <point x="721.6" y="59.4" type="curve" smooth="yes"/>
      <point x="721.6" y="91.2" type="line" smooth="yes"/>
      <point x="721.6" y="118.6"/>
      <point x="726.4" y="145.8"/>
      <point x="740.2" y="189.4" type="curve" smooth="yes"/>
      <point x="1025.6" y="1107.8" type="line"/>
    </contour>
    <contour>
      <point x="1515.4" y="1348.2" type="curve" smooth="yes"/>
      <point x="1515.4" y="1322.4"/>
      <point x="1530.6" y="1305.4"/>
      <point x="1556.0" y="1298.0" type="curve" smooth="yes"/>
      <point x="1623.8" y="1286.4" type="line" smooth="yes"/>
      <point x="1669.6" y="1274.6"/>
      <point x="1674.8" y="1252.8"/>
      <point x="1657.0" y="1192.6" type="curve" smooth="yes"/>
      <point x="1331.2" y="90.0" type="line"/>
      <point x="1402.2" y="151.8" type="line"/>
      <point x="1106.8" y="1187.8" type="line" smooth="yes"/>
      <point x="1086.6" y="1258.4"/>
      <point x="1091.2" y="1275.8"/>
      <point x="1124.8" y="1284.4" type="curve" smooth="yes"/>
      <point x="1192.0" y="1294.8" type="line" smooth="yes"/>
      <point x="1222.2" y="1305.2"/>
      <point x="1236.8" y="1321.2"/>
      <point x="1236.8" y="1348.2" type="curve" smooth="yes"/>
      <point x="1236.8" y="1381.0"/>
      <point x="1217.6" y="1400.0"/>
      <point x="1177.2" y="1400.0" type="curve" smooth="yes"/>
      <point x="817.6" y="1400.0" type="line" smooth="yes"/>
      <point x="778.6" y="1400.0"/>
      <point x="758.0" y="1381.0"/>
      <point x="758.0" y="1348.2" type="curve" smooth="yes"/>
      <point x="758.0" y="1322.0"/>
      <point x="770.0" y="1309.2"/>
      <point x="797.8" y="1298.8" type="curve" smooth="yes"/>
      <point x="831.0" y="1289.4" type="line" smooth="yes"/>
      <point x="854.6" y="1281.0"/>
      <point x="871.6" y="1263.2"/>
      <point x="886.0" y="1212.6" type="curve" smooth="yes"/>
      <point x="1184.2" y="170.8" type="line" smooth="yes"/>
      <point x="1196.6" y="127.4"/>
      <point x="1200.8" y="114.6"/>
      <point x="1200.8" y="90.0" type="curve" smooth="yes"/>
      <point x="1200.8" y="62.400000000000006" type="line" smooth="yes"/>
      <point x="1200.8" y="21.4"/>
      <point x="1220.0" y="0.0"/>
      <point x="1249.6" y="0.0" type="curve" smooth="yes"/>
      <point x="1408.8" y="0.0" type="line" smooth="yes"/>
      <point x="1437.0" y="0.0"/>
      <point x="1455.2" y="21.4"/>
      <point x="1455.2" y="62.400000000000006" type="curve" smooth="yes"/>
      <point x="1455.2" y="92.4" type="line" smooth="yes"/>
      <point x="1455.2" y="120.4"/>
      <point x="1462.6" y="148.2"/>
      <point x="1475.0" y="190.0" type="curve" smooth="yes"/>
      <point x="1768.6" y="1183.6" type="line" smooth="yes"/>
      <point x="1788.2" y="1249.4"/>
      <point x="1804.0" y="1272.0"/>
      <point x="1836.4" y="1283.4" type="curve" smooth="yes"/>
      <point x="1875.0" y="1295.2" type="line" smooth="yes"/>
      <point x="1905.6" y="1307.6"/>
      <point x="1919.6" y="1322.0"/>
      <point x="1919.6" y="1348.2" type="curve" smooth="yes"/>
      <point x="1919.6" y="1379.4"/>
      <point x="1900.0" y="1400.0"/>
      <point x="1860.0" y="1400.0" type="curve" smooth="yes"/>
      <point x="1575.0" y="1400.0" type="line" smooth="yes"/>
      <point x="1534.4" y="1400.0"/>
      <point x="1515.4" y="1381.0"/>
    </contour>
  </outline>
</glyph>
<glyph name="X" format="2">
  <advance width="1309.4"/>
  <unicode hex="0058"/>
  <outline>
    <contour>
      <point x="1104.6" y="211.0" type="curve" smooth="yes"/>
      <point x="448.20000000000005" y="1193.4" type="line" smooth="yes"/>
      <point x="414.5442655750205" y="1243.4846734533344"/>
      <point x="422.3516712981269" y="1271.668958912266"/>
      <point x="471.4" y="1284.4" type="curve" smooth="yes"/>
      <point x="525.4" y="1294.0" type="line" smooth="yes"/>
      <point x="554.2" y="1305.0"/>
      <point x="566.2" y="1321.0"/>
      <point x="566.2" y="1348.2" type="curve" smooth="yes"/>
      <point x="566.2" y="1380.6"/>
      <point x="547.4" y="1400.0"/>
      <point x="506.6" y="1400.0" type="curve" smooth="yes"/>
      <point x="94.6" y="1400.0" type="line" smooth="yes"/>
      <point x="53.6" y="1400.0"/>
      <point x="34.4" y="1381.0"/>
      <point x="34.4" y="1348.2" type="curve" smooth="yes"/>
      <point x="34.4" y="1322.2"/>
      <point x="43.2" y="1309.6"/>
      <point x="89.4" y="1291.4" type="curve" smooth="yes"/>
      <point x="141.76971423360925" y="1278.1112268999514"/>
      <point x="161.0" y="1256.6"/>
      <point x="213.6" y="1177.6" type="curve" smooth="yes"/>
      <point x="871.8" y="189.0" type="line" smooth="yes"/>
      <point x="902.6" y="143.0"/>
      <point x="897.0" y="128.0"/>
      <point x="824.8" y="112.60000000000001" type="curve" smooth="yes"/>
      <point x="768.8" y="99.0"/>
      <point x="752.4" y="81.03750000000001"/>
      <point x="752.4" y="51.800000000000004" type="curve" smooth="yes"/>
      <point x="752.4" y="19.0"/>
      <point x="771.4" y="0.0"/>
      <point x="812.0" y="0.0" type="curve" smooth="yes"/>
      <point x="1231.0" y="0.0" type="line" smooth="yes"/>
      <point x="1270.4" y="0.0"/>
      <point x="1290.6" y="19.0"/>
      <point x="1290.6" y="51.800000000000004" type="curve" smooth="yes"/>
      <point x="1290.6" y="81.2"/>
      <point x="1271.8" y="98.0"/>
      <point x="1239.4" y="109.4" type="curve" smooth="yes"/>
      <point x="1172.2341435610244" y="124.47454961293214"/>
      <point x="1154.5811638676635" y="136.4593856625884"/>
    </contour>
    <contour>
      <point x="726.4" y="679.6" type="line"/>
      <point x="1047.2" y="1144.0" type="line" smooth="yes"/>
      <point x="1116.7061617318745" y="1244.1900071770403"/>
      <point x="1135.5748046699268" y="1270.162467444988"/>
      <point x="1178.2" y="1282.0" type="curve" smooth="yes"/>
      <point x="1242.6" y="1305.6"/>
      <point x="1257.6" y="1324.0"/>
      <point x="1257.6" y="1349.4" type="curve" smooth="yes"/>
      <point x="1257.6" y="1381.8"/>
      <point x="1238.4" y="1400.0"/>
      <point x="1197.4" y="1400.0" type="curve" smooth="yes"/>
      <point x="888.8" y="1400.0" type="line" smooth="yes"/>
      <point x="849.6" y="1400.0"/>
      <point x="831.2" y="1381.0"/>
      <point x="831.2" y="1348.2" type="curve" smooth="yes"/>
      <point x="831.2" y="1319.8"/>
      <point x="844.0" y="1305.8"/>
      <point x="874.2" y="1292.4" type="curve" smooth="yes"/>
      <point x="944.8" y="1282.4" type="line" smooth="yes"/>
      <point x="983.2" y="1272.6"/>
      <point x="988.2" y="1246.6"/>
      <point x="959.4" y="1205.4" type="curve" smooth="yes"/>
      <point x="638.6" y="741.0" type="line"/>
    </contour>
    <contour>
      <point x="558.4" y="738.8" type="line"/>
      <point x="209.2" y="225.6" type="line" smooth="yes"/>
      <point x="168.47480054240498" y="166.7122008136075"/>
      <point x="124.20584017915424" y="131.11869745886594"/>
      <point x="80.6" y="114.0" type="curve" smooth="yes"/>
      <point x="32.6" y="96.4"/>
      <point x="20.0" y="77.2"/>
      <point x="20.0" y="52.4" type="curve" smooth="yes"/>
      <point x="20.0" y="19.0"/>
      <point x="39.8" y="0.0"/>
      <point x="79.6" y="0.0" type="curve" smooth="yes"/>
      <point x="382.0" y="0.0" type="line" smooth="yes"/>
      <point x="419.8" y="0.0"/>
      <point x="439.2" y="19.400000000000002"/>
      <point x="439.2" y="51.800000000000004" type="curve" smooth="yes"/>
      <point x="439.2" y="79.2"/>
      <point x="426.4" y="93.60000000000001"/>
      <point x="396.6" y="104.8" type="curve" smooth="yes"/>
      <point x="350.8" y="111.8" type="line" smooth="yes"/>
      <point x="281.09952808230486" y="122.94062758585314"/>
      <point x="277.34531924193453" y="137.28335459951813"/>
      <point x="309.8" y="185.0" type="curve" smooth="yes"/>
      <point x="648.6" y="683.8" type="line"/>
    </contour>
  </outline>
</glyph>
<glyph name="Y" format="2">
  <advance width="1234.0"/>
  <unicode hex="0059"/>
  <anchor x="675.0" y="1429.2" name="center"/>
  <outline>
    <contour>
      <point x="692.0" y="423.8" type="line"/>
      <point x="1070.4" y="1192.6" type="line" smooth="yes"/>
      <point x="1105.4" y="1263.6"/>
      <point x="1116.8" y="1276.8"/>
      <point x="1157.2" y="1288.8" type="curve" smooth="yes"/>
      <point x="1175.0" y="1293.6" type="line" smooth="yes"/>
      <point x="1213.0" y="1305.6"/>
      <point x="1220.4" y="1325.0"/>
      <point x="1220.4" y="1348.2" type="curve" smooth="yes"/>
      <point x="1220.4" y="1379.4"/>
      <point x="1201.2" y="1400.0"/>
      <point x="1160.8" y="1400.0" type="curve" smooth="yes"/>
      <point x="883.0" y="1400.0" type="line" smooth="yes"/>
      <point x="842.6" y="1400.0"/>
      <point x="823.4" y="1381.0"/>
      <point x="823.4" y="1348.2" type="curve" smooth="yes"/>
      <point x="823.4" y="1320.2"/>
      <point x="838.4" y="1303.0"/>
      <point x="863.8" y="1294.0" type="curve" smooth="yes"/>
      <point x="920.4" y="1282.8" type="line" smooth="yes"/>
      <point x="969.4" y="1269.4"/>
      <point x="977.4" y="1248.0"/>
      <point x="955.2" y="1202.8" type="curve" smooth="yes"/>
      <point x="603.2" y="486.0" type="line"/>
      <point x="715.0" y="523.8" type="line"/>
      <point x="381.8" y="1201.6" type="line" smooth="yes"/>
      <point x="354.8" y="1257.0"/>
      <point x="360.0" y="1267.4"/>
      <point x="411.8" y="1282.4" type="curve" smooth="yes"/>
      <point x="463.6" y="1290.4" type="line" smooth="yes"/>
      <point x="501.6" y="1302.8"/>
      <point x="517.4" y="1319.4"/>
      <point x="517.4" y="1348.2" type="curve" smooth="yes"/>
      <point x="517.4" y="1381.0"/>
      <point x="495.4" y="1400.0"/>
      <point x="454.20000000000005" y="1400.0" type="curve" smooth="yes"/>
      <point x="74.4" y="1400.0" type="line" smooth="yes"/>
      <point x="33.4" y="1400.0"/>
      <point x="14.2" y="1381.0"/>
      <point x="14.2" y="1348.2" type="curve" smooth="yes"/>
      <point x="14.2" y="1323.4"/>
      <point x="23.8" y="1304.2"/>
      <point x="60.0" y="1292.8" type="curve" smooth="yes"/>
      <point x="92.4" y="1283.4" type="line" smooth="yes"/>
      <point x="120.0" y="1274.6"/>
      <point x="132.8" y="1263.0"/>
      <point x="157.8" y="1212.6" type="curve" smooth="yes"/>
      <point x="557.8" y="404.6" type="line"/>
    </contour>
    <contour>
      <point x="517.4" y="524.4" type="line"/>
      <point x="517.4" y="190.2" type="line" smooth="yes"/>
      <point x="517.4" y="152.2"/>
      <point x="502.8" y="131.8"/>
      <point x="469.4" y="121.0" type="curve" smooth="yes"/>
      <point x="410.0" y="108.8" type="line" smooth="yes"/>
      <point x="380.6" y="98.4"/>
      <point x="364.8" y="79.8"/>
      <point x="364.8" y="51.800000000000004" type="curve" smooth="yes"/>
      <point x="364.8" y="18.2"/>
      <point x="385.6" y="0.0"/>
      <point x="424.4" y="0.0" type="curve" smooth="yes"/>
      <point x="815.8" y="0.0" type="line" smooth="yes"/>
      <point x="854.6" y="0.0"/>
      <point x="875.4" y="18.2"/>
      <point x="875.4" y="51.800000000000004" type="curve" smooth="yes"/>
      <point x="875.4" y="79.8"/>
      <point x="859.6" y="97.8"/>
      <point x="829.6" y="108.8" type="curve" smooth="yes"/>
      <point x="770.2" y="121.0" type="line" smooth="yes"/>
      <point x="737.4" y="131.2"/>
      <point x="722.8" y="152.2"/>
      <point x="722.8" y="190.2" type="curve" smooth="yes"/>
      <point x="722.8" y="524.4" type="line"/>
    </contour>
  </outline>
</glyph>
<glyph name="Z" format="2">
  <advance width="1129.4"/>
  <unicode hex="005A"/>
  <anchor x="609.8" y="1513.0" name="center"/>
  <outline>
    <contour>
      <point x="1025.8" y="1265.4" type="line" smooth="yes"/>
      <point x="1045.757909919608" y="1297.7241681977957"/>
      <point x="1054.4" y="1321.64"/>
      <point x="1054.4" y="1346.2" type="curve" smooth="yes"/>
      <point x="1054.4" y="1377.9058823529413"/>
      <point x="1033.4" y="1400.0"/>
      <point x="993.4" y="1400.0" type="curve" smooth="yes"/>
      <point x="337.0" y="1400.0" type="line" smooth="yes"/>
      <point x="281.4" y="1400.0"/>
      <point x="264.6" y="1437.0"/>
      <point x="217.0" y="1437.0" type="curve" smooth="yes"/>
      <point x="180.2" y="1437.0"/>
      <point x="158.8" y="1414.4"/>
      <point x="148.4" y="1365.2" type="curve" smooth="yes"/>
      <point x="89.8" y="1098.4" type="line" smooth="yes"/>
      <point x="81.8" y="1059.2"/>
      <point x="93.8" y="1036.2"/>
      <point x="124.2" y="1029.8" type="curve" smooth="yes"/>
      <point x="157.6" y="1023.0"/>
      <point x="182.4" y="1038.0"/>
      <point x="198.8" y="1080.2" type="curve" smooth="yes"/>
      <point x="233.6" y="1184.4" type="line" smooth="yes"/>
      <point x="261.44265945076626" y="1260.1161703474302"/>
      <point x="295.28545454545457" y="1294.8"/>
      <point x="362.6" y="1294.8" type="curve" smooth="yes"/>
      <point x="880.6" y="1294.8" type="line"/>
      <point x="839.8" y="1357.8" type="line"/>
      <point x="79.4" y="146.0" type="line" smooth="yes"/>
      <point x="60.623792372326776" y="115.12083407992122"/>
      <point x="47.8" y="89.49473684210527"/>
      <point x="47.8" y="61.0" type="curve" smooth="yes"/>
      <point x="47.8" y="25.01379310344828"/>
      <point x="68.2" y="0.0"/>
      <point x="107.2" y="0.0" type="curve" smooth="yes"/>
      <point x="830.8" y="0.0" type="line" smooth="yes"/>
      <point x="879.6941176470589" y="0.0"/>
      <point x="902.2" y="-29.4"/>
      <point x="942.8" y="-29.4" type="curve" smooth="yes"/>
      <point x="984.6" y="-29.4"/>
      <point x="1002.8" y="-7.799999999999999"/>
      <point x="1015.4" y="42.400000000000006" type="curve" smooth="yes"/>
      <point x="1085.2" y="354.2" type="line" smooth="yes"/>
      <point x="1095.2" y="394.4"/>
      <point x="1081.4" y="423.0"/>
      <point x="1053.4" y="428.2" type="curve" smooth="yes"/>
      <point x="1024.2" y="433.2"/>
      <point x="1002.2" y="423.2"/>
      <point x="987.2" y="387.4" type="curve" smooth="yes"/>
      <point x="942.0" y="243.0" type="line" smooth="yes"/>
      <point x="905.6467407520689" y="135.612713610195"/>
      <point x="858.5069767441861" y="104.60000000000001"/>
      <point x="776.2" y="104.60000000000001" type="curve" smooth="yes"/>
      <point x="122.4" y="104.60000000000001" type="line"/>
      <point x="264.4" y="52.2" type="line"/>
    </contour>
  </outline>
</glyph>
<glyph name="bracketleft" format="2">
  <advance width="575.2"/>
  <unicode hex="005B"/>
  <outline>
    <contour>
      <point x="312.0" y="1313.2" type="line" smooth="yes"/>
      <point x="312.0" y="1352.2"/>
      <point x="325.5029126213592" y="1367.4"/>
      <point x="359.0" y="1367.4" type="curve" smooth="yes"/>
      <point x="493.6" y="1367.4" type="line" smooth="yes"/>
      <point x="528.2" y="1367.4"/>
      <point x="545.6" y="1385.2"/>
      <point x="545.6" y="1417.8" type="curve" smooth="yes"/>
      <point x="545.6" y="1448.8"/>
      <point x="528.2" y="1468.2"/>
      <point x="493.6" y="1468.2" type="curve" smooth="yes"/>
      <point x="222.2" y="1468.2" type="line" smooth="yes"/>
      <point x="174.8" y="1468.2"/>
      <point x="155.8" y="1444.4"/>
      <point x="155.8" y="1392.8" type="curve" smooth="yes"/>
      <point x="155.8" y="-172.6" type="line" smooth="yes"/>
      <point x="155.8" y="-224.8"/>
      <point x="174.8" y="-249.2"/>
      <point x="222.2" y="-249.2" type="curve" smooth="yes"/>
      <point x="493.6" y="-249.2" type="line" smooth="yes"/>
      <point x="528.2" y="-249.2"/>
      <point x="545.6" y="-229.2"/>
      <point x="545.6" y="-198.8" type="curve" smooth="yes"/>
      <point x="545.6" y="-165.6"/>
      <point x="527.6" y="-148.4"/>
      <point x="493.6" y="-148.4" type="curve" smooth="yes"/>
      <point x="359.0" y="-148.4" type="line" smooth="yes"/>
      <point x="325.5029126213592" y="-148.4"/>
      <point x="312.0" y="-132.6"/>
      <point x="312.0" y="-93.2" type="curve" smooth="yes"/>
    </contour>
  </outline>
</glyph>
<glyph name="asciicircum" format="2">
  <advance width="737.2"/>
  <unicode hex="005E"/>
  <outline>
    <contour>
      <point x="406.6" y="1299.2" type="line"/>
      <point x="157.0" y="825.0" type="line" smooth="yes"/>
      <point x="122.4" y="771.4"/>
      <point x="87.4" y="763.0"/>
      <point x="58.0" y="782.2" type="curve" smooth="yes"/>
      <point x="31.6" y="798.6"/>
      <point x="27.6" y="836.6"/>
      <point x="49.6" y="880.8" type="curve" smooth="yes"/>
      <point x="268.6" y="1342.4" type="line" smooth="yes"/>
      <point x="307.0" y="1418.4"/>
      <point x="332.6" y="1433.0"/>
      <point x="372.6" y="1433.0" type="curve" smooth="yes"/>
      <point x="413.0" y="1433.0"/>
      <point x="438.6" y="1417.8"/>
      <point x="476.4" y="1342.4" type="curve" smooth="yes"/>
      <point x="688.2" y="880.8" type="line" smooth="yes"/>
      <point x="710.2" y="836.6"/>
      <point x="706.2" y="798.6"/>
      <point x="680.4" y="782.2" type="curve" smooth="yes"/>
      <point x="650.6" y="763.0"/>
      <point x="615.0" y="771.0"/>
      <point x="581.0" y="825.0" type="curve" smooth="yes"/>
      <point x="338.4" y="1299.2" type="line"/>
    </contour>
  </outline>
</glyph>
<glyph name="underscore" format="2">
  <advance width="736.4"/>
  <unicode hex="005F"/>
  <outline>
    <contour>
      <point x="4.4" y="-296.6" type="curve" smooth="yes"/>
      <point x="4.4" y="-334.0"/>
      <point x="17.6" y="-359.2"/>
      <point x="48.8" y="-359.2" type="curve" smooth="yes"/>
      <point x="686.6" y="-359.2" type="line" smooth="yes"/>
      <point x="719.0" y="-359.2"/>
      <point x="732.0" y="-334.0"/>
      <point x="732.0" y="-296.6" type="curve" smooth="yes"/>
      <point x="732.0" y="-258.2"/>
      <point x="719.0" y="-233.4"/>
      <point x="686.6" y="-233.4" type="curve" smooth="yes"/>
      <point x="48.8" y="-233.4" type="line" smooth="yes"/>
      <point x="17.6" y="-233.4"/>
      <point x="4.4" y="-258.2"/>
    </contour>
  </outline>
</glyph>
<glyph name="a" format="2">
  <advance width="895.4"/>
  <unicode hex="0061"/>
  <anchor x="435.2" y="960.4" name="center"/>
  <outline>
    <contour>
      <point x="585.4" y="115.6" type="line" smooth="yes"/>
      <point x="585.4" y="33.2"/>
      <point x="645.8" y="-20.0"/>
      <point x="737.6" y="-20.0" type="curve" smooth="yes"/>
      <point x="830.0" y="-20.0"/>
      <point x="886.6" y="39.6"/>
      <point x="886.6" y="99.8" type="curve" smooth="yes"/>
      <point x="886.6" y="122.0"/>
      <point x="876.6" y="137.8"/>
      <point x="859.6" y="137.8" type="curve" smooth="yes"/>
      <point x="849.8" y="137.8"/>
      <point x="843.6" y="131.4"/>
      <point x="837.8" y="124.4" type="curve" smooth="yes"/>
      <point x="828.6" y="111.0"/>
      <point x="817.6" y="104.2"/>
      <point x="799.6" y="104.2" type="curve" smooth="yes"/>
      <point x="767.8" y="104.2"/>
      <point x="755.4" y="126.2"/>
      <point x="755.4" y="158.2" type="curve" smooth="yes"/>
      <point x="755.4" y="632.0" type="line" smooth="yes"/>
      <point x="755.4" y="794.0"/>
      <point x="649.2" y="888.4"/>
      <point x="457.6" y="888.4" type="curve" smooth="yes"/>
      <point x="222.2" y="888.4"/>
      <point x="98.0" y="777.0"/>
      <point x="98.0" y="654.8" type="curve" smooth="yes"/>
      <point x="98.0" y="599.4"/>
      <point x="125.0" y="562.8"/>
      <point x="189.0" y="562.8" type="curve" smooth="yes"/>
      <point x="254.4" y="562.8"/>
      <point x="289.0" y="598.0"/>
      <point x="289.0" y="664.6" type="curve" smooth="yes"/>
      <point x="289.0" y="708.0" type="line" smooth="yes"/>
      <point x="289.0" y="766.0"/>
      <point x="336.6" y="806.2"/>
      <point x="422.6" y="806.2" type="curve" smooth="yes"/>
      <point x="514.2" y="806.2"/>
      <point x="571.4" y="749.0"/>
      <point x="571.4" y="644.6" type="curve" smooth="yes"/>
      <point x="571.4" y="148.0" type="line"/>
      <point x="585.4" y="141.2" type="line"/>
    </contour>
    <contour>
      <point x="60.2" y="198.0" type="curve" smooth="yes"/>
      <point x="60.2" y="64.8"/>
      <point x="157.4" y="-20.0"/>
      <point x="314.6" y="-20.0" type="curve" smooth="yes"/>
      <point x="445.8" y="-20.0"/>
      <point x="561.6" y="39.0"/>
      <point x="625.4" y="137.2" type="curve"/>
      <point x="604.0" y="202.2" type="line"/>
      <point x="554.2" y="133.4"/>
      <point x="479.6" y="91.4"/>
      <point x="395.8" y="91.4" type="curve" smooth="yes"/>
      <point x="308.4" y="91.4"/>
      <point x="246.0" y="137.74157303370788"/>
      <point x="246.0" y="230.4" type="curve" smooth="yes"/>
      <point x="246.0" y="327.1843137254902"/>
      <point x="318.2" y="383.8"/>
      <point x="433.2" y="383.8" type="curve" smooth="yes"/>
      <point x="492.0" y="383.8"/>
      <point x="542.4" y="372.2"/>
      <point x="589.8" y="352.8" type="curve"/>
      <point x="606.4" y="426.2" type="line"/>
      <point x="557.8" y="445.2"/>
      <point x="485.6" y="456.4"/>
      <point x="421.8" y="456.4" type="curve" smooth="yes"/>
      <point x="199.4" y="456.4"/>
      <point x="60.2" y="357.3232974910394"/>
    </contour>
  </outline>
</glyph>
<glyph name="b" format="2">
  <advance width="995.6"/>
  <unicode hex="0062"/>
  <outline>
    <contour>
      <point x="304.0" y="1416.8" type="line" smooth="yes"/>
      <point x="304.0" y="1450.2"/>
      <point x="286.20000000000005" y="1471.6"/>
      <point x="254.6" y="1471.6" type="curve"/>
      <point x="234.8" y="1471.6"/>
      <point x="215.0" y="1467.2"/>
      <point x="171.0" y="1451.2" type="curve" smooth="yes"/>
      <point x="42.400000000000006" y="1405.2" type="line" smooth="yes"/>
      <point x="6.0" y="1392.0"/>
      <point x="-5.2" y="1377.0"/>
      <point x="-5.2" y="1355.2" type="curve" smooth="yes"/>
      <point x="-5.2" y="1335.4"/>
      <point x="4.4" y="1322.4"/>
      <point x="29.8" y="1314.0" type="curve" smooth="yes"/>
      <point x="84.4" y="1311.6" type="line" smooth="yes"/>
      <point x="110.4" y="1305.6"/>
      <point x="120.0" y="1293.0"/>
      <point x="120.0" y="1253.6" type="curve" smooth="yes"/>
      <point x="119.4" y="38.8" type="line" smooth="yes"/>
      <point x="119.4" y="6.8"/>
      <point x="132.6" y="-8.0"/>
      <point x="160.8" y="-8.0" type="curve" smooth="yes"/>
      <point x="180.4" y="-8.0"/>
      <point x="206.8" y="-0.5999999999999996"/>
      <point x="238.4" y="24.4" type="curve" smooth="yes"/>
      <point x="304.0" y="107.0" type="line"/>
    </contour>
    <contour>
      <point x="257.4" y="590.4" type="line"/>
      <point x="319.4" y="703.4"/>
      <point x="406.2" y="768.6"/>
      <point x="514.4" y="768.6" type="curve" smooth="yes"/>
      <point x="653.0" y="768.6"/>
      <point x="755.4" y="646.8"/>
      <point x="755.4" y="432.2" type="curve" smooth="yes"/>
      <point x="755.4" y="214.6"/>
      <point x="649.8" y="88.60000000000001"/>
      <point x="515.0" y="88.60000000000001" type="curve" smooth="yes"/>
      <point x="415.2" y="88.60000000000001"/>
      <point x="324.4" y="145.2"/>
      <point x="265.4" y="261.0" type="curve"/>
      <point x="216.8" y="180.8" type="line"/>
      <point x="283.0" y="57.6"/>
      <point x="398.4" y="-20.0"/>
      <point x="541.8" y="-20.0" type="curve" smooth="yes"/>
      <point x="769.8" y="-20.0"/>
      <point x="946.0" y="144.6"/>
      <point x="946.0" y="452.0" type="curve" smooth="yes"/>
      <point x="946.0" y="721.4"/>
      <point x="800.6" y="888.4"/>
      <point x="591.4" y="888.4" type="curve" smooth="yes"/>
      <point x="442.4" y="888.4"/>
      <point x="313.6" y="800.8"/>
      <point x="226.0" y="653.0" type="curve"/>
    </contour>
  </outline>
</glyph>
<glyph name="c" format="2">
  <advance width="844.2"/>
  <unicode hex="0063"/>
  <anchor x="454.6" y="974.8" name="center"/>
  <outline>
    <contour>
      <point x="800.4" y="649.0" type="curve" smooth="yes"/>
      <point x="800.4" y="773.4"/>
      <point x="676.2875" y="888.4"/>
      <point x="475.8" y="888.4" type="curve" smooth="yes"/>
      <point x="215.0" y="888.4"/>
      <point x="49.2" y="689.2"/>
      <point x="49.2" y="427.6" type="curve" smooth="yes"/>
      <point x="49.2" y="159.64738041002278"/>
      <point x="214.8" y="-20.0"/>
      <point x="459.0" y="-20.0" type="curve" smooth="yes"/>
      <point x="665.0" y="-20.0"/>
      <point x="796.4" y="110.8"/>
      <point x="810.2" y="254.4" type="curve" smooth="yes"/>
      <point x="812.0" y="281.2"/>
      <point x="801.0" y="295.8"/>
      <point x="782.8" y="295.8" type="curve" smooth="yes"/>
      <point x="768.8" y="295.8"/>
      <point x="757.6" y="289.6"/>
      <point x="740.4" y="267.4" type="curve" smooth="yes"/>
      <point x="705.6" y="191.0"/>
      <point x="633.2" y="124.80000000000001"/>
      <point x="509.0" y="124.80000000000001" type="curve" smooth="yes"/>
      <point x="340.6" y="124.80000000000001"/>
      <point x="216.20000000000002" y="251.822"/>
      <point x="216.20000000000002" y="480.2" type="curve" smooth="yes"/>
      <point x="216.20000000000002" y="665.0"/>
      <point x="315.8" y="786.4"/>
      <point x="455.2" y="786.4" type="curve" smooth="yes"/>
      <point x="554.1408450704225" y="786.4"/>
      <point x="610.4" y="737.4"/>
      <point x="610.4" y="664.2" type="curve" smooth="yes"/>
      <point x="610.4" y="637.0" type="line" smooth="yes"/>
      <point x="610.4" y="575.4"/>
      <point x="640.7720930232558" y="536.4"/>
      <point x="701.6" y="536.4" type="curve" smooth="yes"/>
      <point x="760.56" y="536.4"/>
      <point x="800.4" y="577.2"/>
    </contour>
  </outline>
</glyph>
<glyph name="d" format="2">
  <advance width="1007.0"/>
  <unicode hex="0064"/>
  <outline>
    <contour>
      <point x="698.8" y="165.4" type="line"/>
      <point x="698.8" y="98.0" type="line" smooth="yes"/>
      <point x="698.8" y="36.800000000000004"/>
      <point x="737.4" y="0.0"/>
      <point x="796.2" y="0.0" type="curve" smooth="yes"/>
      <point x="935.0" y="0.0" type="line" smooth="yes"/>
      <point x="967.4" y="0.0"/>
      <point x="985.0" y="15.600000000000001"/>
      <point x="985.0" y="43.2" type="curve" smooth="yes"/>
      <point x="985.0" y="65.6"/>
      <point x="973.2" y="79.4"/>
      <point x="951.0" y="90.8" type="curve" smooth="yes"/>
      <point x="915.2" y="99.2" type="line" smooth="yes"/>
      <point x="888.0" y="107.4"/>
      <point x="875.2" y="124.8"/>
      <point x="875.2" y="168.8" type="curve" smooth="yes"/>
      <point x="875.2" y="1416.8" type="line" smooth="yes"/>
      <point x="875.2" y="1450.2"/>
      <point x="857.4" y="1471.6"/>
      <point x="825.8" y="1471.6" type="curve"/>
      <point x="806.0" y="1471.6"/>
      <point x="786.2" y="1467.2"/>
      <point x="742.2" y="1451.2" type="curve" smooth="yes"/>
      <point x="613.6" y="1405.2" type="line" smooth="yes"/>
      <point x="577.2" y="1392.0"/>
      <point x="566.0" y="1377.0"/>
      <point x="566.0" y="1355.2" type="curve" smooth="yes"/>
      <point x="566.0" y="1335.4"/>
      <point x="575.6" y="1322.4"/>
      <point x="601.0" y="1314.0" type="curve" smooth="yes"/>
      <point x="655.6" y="1311.6" type="line" smooth="yes"/>
      <point x="681.6" y="1305.6"/>
      <point x="691.2" y="1293.0"/>
      <point x="691.2" y="1253.6" type="curve" smooth="yes"/>
      <point x="691.2" y="176.6" type="line"/>
    </contour>
    <contour>
      <point x="49.2" y="416.4" type="curve" smooth="yes"/>
      <point x="49.2" y="147.0"/>
      <point x="194.6" y="-20.0"/>
      <point x="403.8" y="-20.0" type="curve" smooth="yes"/>
      <point x="552.8" y="-20.0"/>
      <point x="681.6" y="67.6"/>
      <point x="769.2" y="215.4" type="curve"/>
      <point x="737.8" y="278.0" type="line"/>
      <point x="675.8" y="165.0"/>
      <point x="589.0" y="99.8"/>
      <point x="480.8" y="99.8" type="curve" smooth="yes"/>
      <point x="342.20000000000005" y="99.8"/>
      <point x="239.8" y="221.60000000000002"/>
      <point x="239.8" y="436.2" type="curve" smooth="yes"/>
      <point x="239.8" y="653.8"/>
      <point x="345.4" y="779.8"/>
      <point x="480.2" y="779.8" type="curve" smooth="yes"/>
      <point x="580.4" y="779.8"/>
      <point x="669.2" y="724.8"/>
      <point x="729.8" y="607.4" type="curve"/>
      <point x="778.4" y="687.6" type="line"/>
      <point x="712.2" y="810.8"/>
      <point x="596.8" y="888.4"/>
      <point x="453.4" y="888.4" type="curve" smooth="yes"/>
      <point x="225.4" y="888.4"/>
      <point x="49.2" y="723.8"/>
    </contour>
  </outline>
</glyph>
<glyph name="e" format="2">
  <advance width="867.2"/>
  <unicode hex="0065"/>
  <anchor x="450.0" y="974.0" name="center"/>
  <outline>
    <contour>
      <point x="820.0" y="556.8" type="curve" smooth="yes"/>
      <point x="820.0" y="749.2"/>
      <point x="677.4" y="888.4"/>
      <point x="470.8" y="888.4" type="curve" smooth="yes"/>
      <point x="202.6" y="888.4"/>
      <point x="45.0" y="691.2"/>
      <point x="45.0" y="427.6" type="curve" smooth="yes"/>
      <point x="45.0" y="161.8"/>
      <point x="206.0" y="-20.0"/>
      <point x="462.2" y="-20.0" type="curve" smooth="yes"/>
      <point x="674.6" y="-20.0"/>
      <point x="809.6" y="112.8"/>
      <point x="823.4" y="254.4" type="curve" smooth="yes"/>
      <point x="825.2" y="281.2"/>
      <point x="813.8" y="295.8"/>
      <point x="795.6" y="295.8" type="curve" smooth="yes"/>
      <point x="781.2" y="295.8"/>
      <point x="768.8" y="288.0"/>
      <point x="753.6" y="267.4" type="curve" smooth="yes"/>
      <point x="716.0" y="188.60000000000002"/>
      <point x="631.2" y="119.20000000000002"/>
      <point x="509.0" y="119.20000000000002" type="curve" smooth="yes"/>
      <point x="335.4" y="119.20000000000002"/>
      <point x="216.0" y="246.8"/>
      <point x="216.0" y="481.0" type="curve" smooth="yes"/>
      <point x="216.0" y="668.6"/>
      <point x="311.8" y="786.4"/>
      <point x="445.4" y="786.4" type="curve" smooth="yes"/>
      <point x="554.0" y="786.4"/>
      <point x="627.8" y="700.4"/>
      <point x="627.8" y="574.6" type="curve" smooth="yes"/>
      <point x="627.8" y="536.8"/>
      <point x="611.6" y="520.8"/>
      <point x="572.8" y="520.8" type="curve" smooth="yes"/>
      <point x="169.2" y="520.8" type="line"/>
      <point x="169.2" y="440.4" type="line"/>
      <point x="702.4" y="440.4" type="line" smooth="yes"/>
      <point x="779.4" y="440.4"/>
      <point x="820.0" y="480.6"/>
    </contour>
  </outline>
</glyph>
<glyph name="f" format="2">
  <advance width="577.0"/>
  <unicode hex="0066"/>
  <outline>
    <contour>
      <point x="356.20000000000005" y="168.8" type="curve" smooth="yes"/>
      <point x="356.20000000000005" y="764.6" type="line"/>
      <point x="473.2" y="764.6" type="line" smooth="yes"/>
      <point x="541.6" y="764.6"/>
      <point x="571.4" y="790.7931034482759"/>
      <point x="571.4" y="829.0" type="curve" smooth="yes"/>
      <point x="571.4" y="854.6"/>
      <point x="554.0" y="868.4"/>
      <point x="518.8" y="868.4" type="curve" smooth="yes"/>
      <point x="312.20000000000005" y="868.4" type="line"/>
      <point x="343.8" y="823.4" type="line"/>
      <point x="343.8" y="866.6" type="line" smooth="yes"/>
      <point x="343.8" y="988.7731454859114"/>
      <point x="221.4" y="1091.4643941694503"/>
      <point x="221.4" y="1214.6" type="curve" smooth="yes"/>
      <point x="221.4" y="1301.08125"/>
      <point x="263.2728476821192" y="1354.2"/>
      <point x="341.8" y="1354.2" type="curve" smooth="yes"/>
      <point x="401.12765957446805" y="1354.2"/>
      <point x="429.0" y="1320.8"/>
      <point x="429.0" y="1264.8" type="curve" smooth="yes"/>
      <point x="429.0" y="1234.2" type="line" smooth="yes"/>
      <point x="429.0" y="1170.904761904762"/>
      <point x="461.2" y="1132.2"/>
      <point x="517.0" y="1132.2" type="curve" smooth="yes"/>
      <point x="567.4" y="1132.2"/>
      <point x="602.4" y="1168.172602739726"/>
      <point x="602.4" y="1235.8" type="curve" smooth="yes"/>
      <point x="602.4" y="1340.2"/>
      <point x="515.2184971098266" y="1432.4"/>
      <point x="356.4" y="1432.4" type="curve" smooth="yes"/>
      <point x="175.90747663551403" y="1432.4"/>
      <point x="73.8" y="1330.544537815126"/>
      <point x="73.8" y="1183.6" type="curve" smooth="yes"/>
      <point x="73.8" y="1037.7421395569245"/>
      <point x="173.4" y="962.5077182339063"/>
      <point x="173.4" y="855.4" type="curve" smooth="yes"/>
      <point x="173.4" y="819.6" type="line"/>
      <point x="225.8" y="868.4" type="line"/>
      <point x="73.8" y="868.4" type="line" smooth="yes"/>
      <point x="44.0" y="868.4"/>
      <point x="28.0" y="851.6"/>
      <point x="28.0" y="828.2" type="curve" smooth="yes"/>
      <point x="28.0" y="804.4"/>
      <point x="41.0" y="787.6"/>
      <point x="81.6" y="771.2" type="curve" smooth="yes"/>
      <point x="118.6" y="758.6" type="line" smooth="yes"/>
      <point x="161.2" y="742.8"/>
      <point x="172.2" y="731.0"/>
      <point x="172.2" y="693.4" type="curve" smooth="yes"/>
      <point x="172.2" y="170.4" type="line" smooth="yes"/>
      <point x="172.2" y="128.2"/>
      <point x="157.4" y="108.0"/>
      <point x="122.2" y="100.0" type="curve" smooth="yes"/>
      <point x="84.0" y="92.4" type="line" smooth="yes"/>
      <point x="56.2" y="83.4"/>
      <point x="42.8" y="68.4"/>
      <point x="42.8" y="43.2" type="curve" smooth="yes"/>
      <point x="42.8" y="15.600000000000001"/>
      <point x="60.4" y="0.0"/>
      <point x="92.8" y="0.0" type="curve" smooth="yes"/>
      <point x="485.0" y="0.0" type="line" smooth="yes"/>
      <point x="517.8" y="0.0"/>
      <point x="535.0" y="15.600000000000001"/>
      <point x="535.0" y="44.0" type="curve" smooth="yes"/>
      <point x="535.0" y="70.0"/>
      <point x="520.8" y="87.60000000000001"/>
      <point x="488.20000000000005" y="91.2" type="curve" smooth="yes"/>
      <point x="406.6" y="99.2" type="line" smooth="yes"/>
      <point x="367.4" y="103.2"/>
      <point x="356.20000000000005" y="126.60000000000001"/>
    </contour>
  </outline>
</glyph>
<glyph name="g" format="2">
  <advance width="916.2"/>
  <unicode hex="0067"/>
  <anchor x="457.8" y="990.6" name="center"/>
  <outline>
    <contour>
      <point x="557.6" y="54.400000000000006" type="curve" smooth="yes"/>
      <point x="799.4" y="9.799999999999997"/>
      <point x="897.2" y="-62.16595744680852"/>
      <point x="897.2" y="-213.0" type="curve" smooth="yes"/>
      <point x="897.2" y="-378.95642023346306"/>
      <point x="743.4" y="-492.4"/>
      <point x="434.2" y="-492.4" type="curve" smooth="yes"/>
      <point x="143.8" y="-492.4"/>
      <point x="27.4" y="-399.2"/>
      <point x="27.4" y="-273.4" type="curve" smooth="yes"/>
      <point x="27.4" y="-166.6"/>
      <point x="116.2" y="-75.4"/>
      <point x="318.6" y="-38.8" type="curve"/>
      <point x="347.4" y="-69.60000000000001" type="line"/>
      <point x="220.2" y="-115.2"/>
      <point x="180.0" y="-170.8"/>
      <point x="180.0" y="-238.8" type="curve" smooth="yes"/>
      <point x="180.0" y="-322.8"/>
      <point x="251.2" y="-394.6"/>
      <point x="462.4" y="-394.6" type="curve" smooth="yes"/>
      <point x="641.4" y="-394.6"/>
      <point x="732.6" y="-337.8173913043478"/>
      <point x="732.6" y="-262.8" type="curve" smooth="yes"/>
      <point x="732.6" y="-182.74736842105264"/>
      <point x="672.4" y="-142.6"/>
      <point x="458.4" y="-102.8" type="curve" smooth="yes"/>
      <point x="206.5299029236569" y="-55.7091194164891"/>
      <point x="153.2" y="10.200000000000003"/>
      <point x="153.2" y="89.19999999999999" type="curve" smooth="yes"/>
      <point x="153.2" y="165.0"/>
      <point x="215.2" y="234.4"/>
      <point x="360.6" y="244.8" type="curve"/>
      <point x="376.0" y="221.6" type="line"/>
      <point x="337.8" y="203.8"/>
      <point x="323.0" y="184.2"/>
      <point x="323.0" y="161.0" type="curve" smooth="yes"/>
      <point x="323.0" y="119.80000000000001"/>
      <point x="358.75097950936936" y="93.25212363034798"/>
    </contour>
    <contour>
      <point x="595.4" y="812.8" type="line" smooth="yes"/>
      <point x="626.0" y="866.0" type="line" smooth="yes"/>
      <point x="680.5947583922887" y="968.2007027528329"/>
      <point x="749.4832116788322" y="1014.0"/>
      <point x="829.0" y="1014.0" type="curve" smooth="yes"/>
      <point x="899.179381443299" y="1014.0"/>
      <point x="943.6" y="977.0235294117647"/>
      <point x="943.6" y="913.4" type="curve" smooth="yes"/>
      <point x="943.6" y="856.12"/>
      <point x="912.8" y="819.8"/>
      <point x="865.4" y="819.8" type="curve" smooth="yes"/>
      <point x="807.2" y="819.8"/>
      <point x="795.0" y="883.8"/>
      <point x="747.6" y="883.8" type="curve" smooth="yes"/>
      <point x="720.8" y="883.8"/>
      <point x="696.1948261232885" y="859.7053623592094"/>
      <point x="653.0" y="790.6" type="curve"/>
    </contour>
    <contour>
      <point x="823.6" y="547.0" type="curve" smooth="yes"/>
      <point x="823.6" y="340.2"/>
      <point x="662.2" y="198.6"/>
      <point x="442.0" y="198.6" type="curve" smooth="yes"/>
      <point x="203.6" y="198.6"/>
      <point x="52.0" y="336.6"/>
      <point x="52.0" y="534.8" type="curve" smooth="yes"/>
      <point x="52.0" y="745.2"/>
      <point x="212.2" y="888.0"/>
      <point x="446.8" y="888.0" type="curve" smooth="yes"/>
      <point x="678.0" y="888.0"/>
      <point x="823.6" y="741.6"/>
    </contour>
    <contour>
      <point x="414.2" y="803.8" type="curve" smooth="yes"/>
      <point x="301.8" y="799.4"/>
      <point x="225.8" y="696.0"/>
      <point x="240.20000000000002" y="535.4" type="curve" smooth="yes"/>
      <point x="254.6" y="372.8"/>
      <point x="346.6" y="278.4"/>
      <point x="461.4" y="282.8" type="curve" smooth="yes"/>
      <point x="573.8" y="287.2"/>
      <point x="649.8" y="390.6"/>
      <point x="635.4" y="551.2" type="curve" smooth="yes"/>
      <point x="621.0" y="714.2"/>
      <point x="529.0" y="808.2"/>
    </contour>
  </outline>
</glyph>
<glyph name="h" format="2">
  <advance width="1031.4"/>
  <unicode hex="0068"/>
  <anchor x="509.2" y="1085.6" name="center"/>
  <outline>
    <contour>
      <point x="337.6" y="1416.8" type="line" smooth="yes"/>
      <point x="337.6" y="1450.2"/>
      <point x="319.8" y="1471.6"/>
      <point x="288.2" y="1471.6" type="curve"/>
      <point x="268.4" y="1471.6"/>
      <point x="248.60000000000002" y="1467.2"/>
      <point x="204.60000000000002" y="1451.2" type="curve" smooth="yes"/>
      <point x="76.0" y="1405.2" type="line" smooth="yes"/>
      <point x="39.6" y="1392.0"/>
      <point x="28.4" y="1377.0"/>
      <point x="28.4" y="1355.2" type="curve" smooth="yes"/>
      <point x="28.4" y="1335.4"/>
      <point x="38.0" y="1322.4"/>
      <point x="63.4" y="1314.0" type="curve" smooth="yes"/>
      <point x="118.0" y="1311.6" type="line" smooth="yes"/>
      <point x="144.0" y="1305.6"/>
      <point x="153.6" y="1293.0"/>
      <point x="153.6" y="1253.6" type="curve" smooth="yes"/>
      <point x="153.6" y="168.8" type="line" smooth="yes"/>
      <point x="153.6" y="124.2"/>
      <point x="143.6" y="107.60000000000001"/>
      <point x="113.6" y="99.2" type="curve" smooth="yes"/>
      <point x="77.8" y="90.8" type="line" smooth="yes"/>
      <point x="55.2" y="79.80000000000001"/>
      <point x="43.8" y="65.6"/>
      <point x="43.8" y="43.2" type="curve" smooth="yes"/>
      <point x="43.8" y="15.600000000000001"/>
      <point x="61.4" y="0.0"/>
      <point x="93.8" y="0.0" type="curve" smooth="yes"/>
      <point x="396.6" y="0.0" type="line" smooth="yes"/>
      <point x="427.0" y="0.0"/>
      <point x="443.0" y="15.600000000000001"/>
      <point x="443.0" y="43.2" type="curve" smooth="yes"/>
      <point x="443.0" y="61.6"/>
      <point x="433.2" y="76.6"/>
      <point x="413.4" y="86.0" type="curve" smooth="yes"/>
      <point x="376.8" y="95.2" type="line" smooth="yes"/>
      <point x="346.4" y="104.4"/>
      <point x="337.6" y="122.2"/>
      <point x="337.6" y="168.8" type="curve" smooth="yes"/>
    </contour>
    <contour>
      <point x="314.0" y="624.8" type="line" smooth="yes"/>
      <point x="347.8" y="656.6" type="line" smooth="yes"/>
      <point x="421.66570315841074" y="725.9864759606588"/>
      <point x="479.4235294117647" y="750.6"/>
      <point x="531.2" y="750.6" type="curve" smooth="yes"/>
      <point x="617.5172413793103" y="750.6"/>
      <point x="657.7832268958475" y="689.9275415647552"/>
      <point x="675.2" y="572.2" type="curve" smooth="yes"/>
      <point x="735.2" y="164.8" type="line" smooth="yes"/>
      <point x="741.0" y="121.8"/>
      <point x="726.4" y="104.4"/>
      <point x="696.0" y="95.2" type="curve" smooth="yes"/>
      <point x="659.4" y="86.0" type="line" smooth="yes"/>
      <point x="639.6" y="77.4"/>
      <point x="629.4" y="62.0"/>
      <point x="629.4" y="43.2" type="curve" smooth="yes"/>
      <point x="629.4" y="15.600000000000001"/>
      <point x="645.4" y="0.0"/>
      <point x="675.8" y="0.0" type="curve" smooth="yes"/>
      <point x="979.8" y="0.0" type="line" smooth="yes"/>
      <point x="1012.2" y="0.0"/>
      <point x="1029.8" y="15.600000000000001"/>
      <point x="1029.8" y="43.2" type="curve" smooth="yes"/>
      <point x="1029.8" y="65.6"/>
      <point x="1017.6" y="79.4"/>
      <point x="995.4" y="90.8" type="curve" smooth="yes"/>
      <point x="959.6" y="99.2" type="line" smooth="yes"/>
      <point x="930.0" y="108.0"/>
      <point x="925.0" y="124.60000000000001"/>
      <point x="919.6" y="168.8" type="curve" smooth="yes"/>
      <point x="855.2" y="640.0" type="line" smooth="yes"/>
      <point x="833.8970556386864" y="798.5239911304727"/>
      <point x="767.7181818181818" y="888.4"/>
      <point x="628.0" y="888.4" type="curve" smooth="yes"/>
      <point x="530.5024390243902" y="888.4"/>
      <point x="433.0320405769404" y="838.4305148351814"/>
      <point x="311.0" y="715.6" type="curve" smooth="yes"/>
      <point x="270.2" y="675.2" type="line"/>
    </contour>
  </outline>
</glyph>
<glyph name="i" format="2">
  <advance width="474.6"/>
  <unicode hex="0069"/>
  <outline>
    <contour>
      <point x="342.8" y="825.8" type="line" smooth="yes"/>
      <point x="342.8" y="859.2"/>
      <point x="325.0" y="880.6"/>
      <point x="293.4" y="880.6" type="curve"/>
      <point x="273.6" y="880.6"/>
      <point x="253.8" y="876.2"/>
      <point x="209.8" y="860.2" type="curve" smooth="yes"/>
      <point x="81.2" y="814.2" type="line" smooth="yes"/>
      <point x="44.8" y="801.0"/>
      <point x="33.6" y="786.0"/>
      <point x="33.6" y="764.2" type="curve" smooth="yes"/>
      <point x="33.6" y="744.4"/>
      <point x="43.2" y="731.4"/>
      <point x="68.6" y="723.0" type="curve" smooth="yes"/>
      <point x="123.19999999999999" y="720.6" type="line" smooth="yes"/>
      <point x="149.2" y="714.6"/>
      <point x="158.8" y="702.0"/>
      <point x="158.8" y="662.6" type="curve" smooth="yes"/>
      <point x="158.8" y="168.8" type="line" smooth="yes"/>
      <point x="158.8" y="124.60000000000001"/>
      <point x="148.4" y="108.0"/>
      <point x="118.8" y="99.2" type="curve" smooth="yes"/>
      <point x="83.0" y="90.8" type="line" smooth="yes"/>
      <point x="60.4" y="80.6"/>
      <point x="49.0" y="65.6"/>
      <point x="49.0" y="43.2" type="curve" smooth="yes"/>
      <point x="49.0" y="15.600000000000001"/>
      <point x="66.2" y="0.0"/>
      <point x="99.0" y="0.0" type="curve" smooth="yes"/>
      <point x="402.6" y="0.0" type="line" smooth="yes"/>
      <point x="435.0" y="0.0"/>
      <point x="452.6" y="15.600000000000001"/>
      <point x="452.6" y="43.2" type="curve" smooth="yes"/>
      <point x="452.6" y="65.6"/>
      <point x="440.8" y="80.6"/>
      <point x="418.6" y="90.8" type="curve" smooth="yes"/>
      <point x="382.8" y="99.2" type="line" smooth="yes"/>
      <point x="352.8" y="108.0"/>
      <point x="342.8" y="124.60000000000001"/>
      <point x="342.8" y="168.8" type="curve" smooth="yes"/>
    </contour>
    <contour>
      <point x="236.6" y="1049.0" type="curve" smooth="yes"/>
      <point x="315.6" y="1049.0"/>
      <point x="367.6" y="1099.0"/>
      <point x="367.6" y="1174.0" type="curve" smooth="yes"/>
      <point x="367.6" y="1248.4"/>
      <point x="315.6" y="1298.4"/>
      <point x="236.6" y="1298.4" type="curve" smooth="yes"/>
      <point x="157.6" y="1298.4"/>
      <point x="105.6" y="1248.4"/>
      <point x="105.6" y="1173.4" type="curve" smooth="yes"/>
      <point x="105.6" y="1099.0"/>
      <point x="157.6" y="1049.0"/>
    </contour>
  </outline>
</glyph>
<glyph name="j" format="2">
  <advance width="460.2"/>
  <unicode hex="006A"/>
  <outline>
    <contour>
      <point x="335.6" y="86.6" type="curve" smooth="yes"/>
      <point x="335.6" y="825.8" type="line" smooth="yes"/>
      <point x="335.6" y="859.2"/>
      <point x="317.8" y="880.6"/>
      <point x="286.2" y="880.6" type="curve" smooth="yes"/>
      <point x="266.4" y="880.6"/>
      <point x="246.60000000000002" y="876.2"/>
      <point x="202.6" y="860.2" type="curve" smooth="yes"/>
      <point x="74.0" y="814.2" type="line" smooth="yes"/>
      <point x="37.6" y="801.0"/>
      <point x="26.4" y="786.0"/>
      <point x="26.4" y="764.2" type="curve" smooth="yes"/>
      <point x="26.4" y="744.4"/>
      <point x="36.0" y="731.4"/>
      <point x="61.4" y="723.0" type="curve" smooth="yes"/>
      <point x="116.0" y="720.6" type="line" smooth="yes"/>
      <point x="142.0" y="714.6"/>
      <point x="151.6" y="702.0"/>
      <point x="151.6" y="662.6" type="curve" smooth="yes"/>
      <point x="151.6" y="41.0" type="line" smooth="yes"/>
      <point x="151.6" y="-103.19999999999999"/>
      <point x="280.4" y="-198.4"/>
      <point x="280.4" y="-304.4" type="curve" smooth="yes"/>
      <point x="280.4" y="-376.2"/>
      <point x="245.8" y="-413.6"/>
      <point x="186.2" y="-414.2" type="curve" smooth="yes"/>
      <point x="128.4" y="-414.2"/>
      <point x="100.60000000000001" y="-380.8"/>
      <point x="100.60000000000001" y="-325.6" type="curve" smooth="yes"/>
      <point x="100.60000000000001" y="-297.4" type="line" smooth="yes"/>
      <point x="100.60000000000001" y="-233.6"/>
      <point x="68.4" y="-192.2"/>
      <point x="14.399999999999999" y="-192.2" type="curve" smooth="yes"/>
      <point x="-40.4" y="-192.2"/>
      <point x="-77.2" y="-229.6"/>
      <point x="-77.2" y="-299.4" type="curve" smooth="yes"/>
      <point x="-77.2" y="-401.0"/>
      <point x="7.0" y="-492.4"/>
      <point x="161.2" y="-492.4" type="curve" smooth="yes"/>
      <point x="316.0" y="-492.4"/>
      <point x="418.0" y="-398.4"/>
      <point x="418.0" y="-258.6" type="curve" smooth="yes"/>
      <point x="418.0" y="-147.39999999999998"/>
      <point x="335.6" y="-51.0"/>
    </contour>
    <contour>
      <point x="229.4" y="1049.0" type="curve" smooth="yes"/>
      <point x="308.4" y="1049.0"/>
      <point x="360.4" y="1099.0"/>
      <point x="360.4" y="1174.0" type="curve" smooth="yes"/>
      <point x="360.4" y="1248.4"/>
      <point x="308.4" y="1298.4"/>
      <point x="229.4" y="1298.4" type="curve" smooth="yes"/>
      <point x="150.4" y="1298.4"/>
      <point x="98.4" y="1248.4"/>
      <point x="98.4" y="1173.4" type="curve" smooth="yes"/>
      <point x="98.4" y="1099.0"/>
      <point x="150.4" y="1049.0"/>
    </contour>
  </outline>
</glyph>
<glyph name="k" format="2">
  <advance width="992.4"/>
  <unicode hex="006B"/>
  <outline>
    <contour>
      <point x="93.8" y="0.0" type="curve" smooth="yes"/>
      <point x="396.6" y="0.0" type="line" smooth="yes"/>
      <point x="427.0" y="0.0"/>
      <point x="443.0" y="15.600000000000001"/>
      <point x="443.0" y="43.2" type="curve" smooth="yes"/>
      <point x="443.0" y="61.6"/>
      <point x="433.2" y="76.6"/>
      <point x="413.4" y="86.0" type="curve" smooth="yes"/>
      <point x="376.8" y="95.2" type="line" smooth="yes"/>
      <point x="346.4" y="104.4"/>
      <point x="337.6" y="122.2"/>
      <point x="337.6" y="168.8" type="curve" smooth="yes"/>
      <point x="337.6" y="1416.8" type="line" smooth="yes"/>
      <point x="337.6" y="1450.2"/>
      <point x="319.8" y="1471.6"/>
      <point x="288.2" y="1471.6" type="curve"/>
      <point x="268.4" y="1471.6"/>
      <point x="248.60000000000002" y="1467.2"/>
      <point x="204.60000000000002" y="1451.2" type="curve" smooth="yes"/>
      <point x="76.0" y="1405.2" type="line" smooth="yes"/>
      <point x="39.6" y="1392.0"/>
      <point x="28.4" y="1377.0"/>
      <point x="28.4" y="1355.2" type="curve" smooth="yes"/>
      <point x="28.4" y="1335.4"/>
      <point x="38.0" y="1322.4"/>
      <point x="63.4" y="1314.0" type="curve" smooth="yes"/>
      <point x="118.0" y="1311.6" type="line" smooth="yes"/>
      <point x="144.0" y="1305.6"/>
      <point x="153.6" y="1293.0"/>
      <point x="153.6" y="1253.6" type="curve" smooth="yes"/>
      <point x="153.6" y="168.8" type="line" smooth="yes"/>
      <point x="153.6" y="124.2"/>
      <point x="143.6" y="107.60000000000001"/>
      <point x="113.6" y="99.2" type="curve" smooth="yes"/>
      <point x="77.8" y="90.8" type="line" smooth="yes"/>
      <point x="55.2" y="79.80000000000001"/>
      <point x="43.8" y="65.6"/>
      <point x="43.8" y="43.2" type="curve" smooth="yes"/>
      <point x="43.8" y="15.600000000000001"/>
      <point x="61.4" y="0.0"/>
    </contour>
    <contour>
      <point x="273.6" y="418.6" type="line"/>
      <point x="295.6" y="322.4" type="line"/>
      <point x="742.0" y="696.0" type="line" smooth="yes"/>
      <point x="803.4" y="747.2"/>
      <point x="828.2" y="758.4"/>
      <point x="872.6" y="766.2" type="curve" smooth="yes"/>
      <point x="935.8" y="776.0"/>
      <point x="949.4" y="798.8"/>
      <point x="949.4" y="825.2" type="curve" smooth="yes"/>
      <point x="949.4" y="852.4"/>
      <point x="931.8" y="868.4"/>
      <point x="899.4" y="868.4" type="curve" smooth="yes"/>
      <point x="608.4" y="868.4" type="line" smooth="yes"/>
      <point x="574.0" y="868.4"/>
      <point x="555.6" y="852.0"/>
      <point x="555.6" y="824.0" type="curve" smooth="yes"/>
      <point x="555.6" y="805.2"/>
      <point x="564.2" y="791.8"/>
      <point x="584.6" y="782.4" type="curve" smooth="yes"/>
      <point x="628.6" y="771.8" type="line" smooth="yes"/>
      <point x="657.2" y="762.8"/>
      <point x="660.2" y="742.8"/>
      <point x="632.6" y="720.0" type="curve" smooth="yes"/>
    </contour>
    <contour>
      <point x="555.0" y="604.8" type="line"/>
      <point x="414.4" y="503.2" type="line"/>
      <point x="645.0" y="181.6" type="line" smooth="yes"/>
      <point x="688.0" y="121.60000000000001"/>
      <point x="688.2" y="105.2"/>
      <point x="650.0" y="92.8" type="curve" smooth="yes"/>
      <point x="613.4" y="83.2" type="line" smooth="yes"/>
      <point x="594.4" y="73.80000000000001"/>
      <point x="586.2" y="61.6"/>
      <point x="586.2" y="43.2" type="curve" smooth="yes"/>
      <point x="586.2" y="16.0"/>
      <point x="603.4" y="0.0"/>
      <point x="632.6" y="0.0" type="curve" smooth="yes"/>
      <point x="943.2" y="0.0" type="line" smooth="yes"/>
      <point x="975.6" y="0.0"/>
      <point x="993.2" y="15.200000000000001"/>
      <point x="993.2" y="41.2" type="curve" smooth="yes"/>
      <point x="993.2" y="63.6"/>
      <point x="983.0" y="77.6"/>
      <point x="944.0" y="97.2" type="curve" smooth="yes"/>
      <point x="914.6" y="108.4"/>
      <point x="895.2" y="123.4"/>
      <point x="862.6" y="168.2" type="curve" smooth="yes"/>
    </contour>
  </outline>
</glyph>
<glyph name="l" format="2">
  <advance width="469.4"/>
  <unicode hex="006C"/>
  <anchor x="237.4" y="1564.2" name="center"/>
  <anchor x="461.4" y="731.2" name="right"/>
  <outline>
    <contour>
      <point x="337.6" y="1416.8" type="line" smooth="yes"/>
      <point x="337.6" y="1450.2"/>
      <point x="319.8" y="1471.6"/>
      <point x="288.2" y="1471.6" type="curve"/>
      <point x="268.4" y="1471.6"/>
      <point x="248.60000000000002" y="1467.2"/>
      <point x="204.60000000000002" y="1451.2" type="curve" smooth="yes"/>
      <point x="76.0" y="1405.2" type="line" smooth="yes"/>
      <point x="39.6" y="1392.0"/>
      <point x="28.4" y="1377.0"/>
      <point x="28.4" y="1355.2" type="curve" smooth="yes"/>
      <point x="28.4" y="1335.4"/>
      <point x="38.0" y="1322.4"/>
      <point x="63.4" y="1314.0" type="curve" smooth="yes"/>
      <point x="118.0" y="1311.6" type="line" smooth="yes"/>
      <point x="144.0" y="1305.6"/>
      <point x="153.6" y="1293.0"/>
      <point x="153.6" y="1253.6" type="curve" smooth="yes"/>
      <point x="153.6" y="168.8" type="line" smooth="yes"/>
      <point x="153.6" y="124.2"/>
      <point x="143.6" y="107.60000000000001"/>
      <point x="113.6" y="99.2" type="curve" smooth="yes"/>
      <point x="77.8" y="90.8" type="line" smooth="yes"/>
      <point x="55.2" y="79.80000000000001"/>
      <point x="43.8" y="65.6"/>
      <point x="43.8" y="43.2" type="curve" smooth="yes"/>
      <point x="43.8" y="15.600000000000001"/>
      <point x="61.4" y="0.0"/>
      <point x="93.8" y="0.0" type="curve" smooth="yes"/>
      <point x="397.4" y="0.0" type="line" smooth="yes"/>
      <point x="429.8" y="0.0"/>
      <point x="447.4" y="15.600000000000001"/>
      <point x="447.4" y="43.2" type="curve" smooth="yes"/>
      <point x="447.4" y="65.6"/>
      <point x="436.0" y="79.80000000000001"/>
      <point x="413.4" y="90.8" type="curve" smooth="yes"/>
      <point x="377.6" y="99.2" type="line" smooth="yes"/>
      <point x="347.6" y="107.60000000000001"/>
      <point x="337.6" y="124.2"/>
      <point x="337.6" y="168.8" type="curve" smooth="yes"/>
    </contour>
  </outline>
</glyph>
<glyph name="m" format="2">
  <advance width="1587.8"/>
  <unicode hex="006D"/>
  <outline>
    <contour>
      <point x="342.8" y="825.8" type="line" smooth="yes"/>
      <point x="342.8" y="859.2"/>
      <point x="325.0" y="880.6"/>
      <point x="293.4" y="880.6" type="curve"/>
      <point x="273.6" y="880.6"/>
      <point x="253.8" y="876.2"/>
      <point x="209.8" y="860.2" type="curve" smooth="yes"/>
      <point x="81.2" y="814.2" type="line" smooth="yes"/>
      <point x="44.8" y="801.0"/>
      <point x="33.6" y="786.0"/>
      <point x="33.6" y="764.2" type="curve" smooth="yes"/>
      <point x="33.6" y="744.4"/>
      <point x="43.2" y="731.4"/>
      <point x="68.6" y="723.0" type="curve" smooth="yes"/>
      <point x="123.19999999999999" y="720.6" type="line" smooth="yes"/>
      <point x="149.2" y="714.6"/>
      <point x="158.8" y="702.0"/>
      <point x="158.8" y="662.6" type="curve" smooth="yes"/>
      <point x="158.8" y="168.8" type="line" smooth="yes"/>
      <point x="158.8" y="124.2"/>
      <point x="148.8" y="107.60000000000001"/>
      <point x="118.8" y="99.2" type="curve" smooth="yes"/>
      <point x="83.0" y="90.8" type="line" smooth="yes"/>
      <point x="60.4" y="79.80000000000001"/>
      <point x="49.0" y="65.6"/>
      <point x="49.0" y="43.2" type="curve" smooth="yes"/>
      <point x="49.0" y="15.600000000000001"/>
      <point x="66.6" y="0.0"/>
      <point x="99.0" y="0.0" type="curve" smooth="yes"/>
      <point x="401.8" y="0.0" type="line" smooth="yes"/>
      <point x="432.2" y="0.0"/>
      <point x="448.2" y="15.600000000000001"/>
      <point x="448.2" y="43.2" type="curve" smooth="yes"/>
      <point x="448.2" y="61.6"/>
      <point x="438.4" y="76.6"/>
      <point x="418.6" y="86.0" type="curve" smooth="yes"/>
      <point x="382.0" y="95.2" type="line" smooth="yes"/>
      <point x="351.6" y="104.4"/>
      <point x="342.8" y="122.2"/>
      <point x="342.8" y="168.8" type="curve" smooth="yes"/>
    </contour>
    <contour>
      <point x="319.6" y="612.8" type="line" smooth="yes"/>
      <point x="353.0" y="644.6" type="line" smooth="yes"/>
      <point x="431.2" y="718.8"/>
      <point x="503.4" y="750.6"/>
      <point x="567.0" y="750.6" type="curve"/>
      <point x="655.2" y="750.6"/>
      <point x="714.0" y="689.0"/>
      <point x="714.0" y="572.6" type="curve" smooth="yes"/>
      <point x="714.0" y="168.8" type="line" smooth="yes"/>
      <point x="714.0" y="122.2"/>
      <point x="705.2" y="104.4"/>
      <point x="674.8" y="95.2" type="curve" smooth="yes"/>
      <point x="638.2" y="86.0" type="line" smooth="yes"/>
      <point x="618.4" y="76.6"/>
      <point x="608.6" y="61.6"/>
      <point x="608.6" y="43.2" type="curve" smooth="yes"/>
      <point x="608.6" y="15.600000000000001"/>
      <point x="624.6" y="0.0"/>
      <point x="655.0" y="0.0" type="curve" smooth="yes"/>
      <point x="957.0" y="0.0" type="line" smooth="yes"/>
      <point x="987.4" y="0.0"/>
      <point x="1003.4" y="15.600000000000001"/>
      <point x="1003.4" y="43.2" type="curve" smooth="yes"/>
      <point x="1003.4" y="61.6"/>
      <point x="993.6" y="76.6"/>
      <point x="973.8" y="86.0" type="curve" smooth="yes"/>
      <point x="937.2" y="95.2" type="line" smooth="yes"/>
      <point x="906.8" y="104.4"/>
      <point x="898.0" y="122.2"/>
      <point x="898.0" y="168.8" type="curve" smooth="yes"/>
      <point x="898.0" y="620.0" type="line" smooth="yes"/>
      <point x="898.0" y="790.4"/>
      <point x="802.6" y="888.4"/>
      <point x="660.6" y="888.4" type="curve" smooth="yes"/>
      <point x="553.0" y="888.4"/>
      <point x="441.6" y="832.0"/>
      <point x="315.8" y="704.0" type="curve" smooth="yes"/>
      <point x="275.4" y="663.6" type="line"/>
    </contour>
    <contour>
      <point x="874.4" y="624.8" type="line" smooth="yes"/>
      <point x="908.2" y="656.6" type="line" smooth="yes"/>
      <point x="979.9190645638798" y="724.2624037322846"/>
      <point x="1034.10639948287" y="750.6"/>
      <point x="1083.6" y="750.6" type="curve" smooth="yes"/>
      <point x="1172.331780055918" y="750.6"/>
      <point x="1214.2671240168781" y="689.9644750898358"/>
      <point x="1231.6" y="572.2" type="curve" smooth="yes"/>
      <point x="1291.6" y="164.8" type="line" smooth="yes"/>
      <point x="1297.4" y="121.8"/>
      <point x="1282.8" y="104.4"/>
      <point x="1252.4" y="95.2" type="curve" smooth="yes"/>
      <point x="1215.8" y="86.0" type="line" smooth="yes"/>
      <point x="1196.4" y="77.0"/>
      <point x="1185.8" y="62.0"/>
      <point x="1185.8" y="43.2" type="curve" smooth="yes"/>
      <point x="1185.8" y="15.600000000000001"/>
      <point x="1201.8" y="0.0"/>
      <point x="1232.2" y="0.0" type="curve" smooth="yes"/>
      <point x="1536.2" y="0.0" type="line" smooth="yes"/>
      <point x="1568.6" y="0.0"/>
      <point x="1586.2" y="15.600000000000001"/>
      <point x="1586.2" y="43.2" type="curve" smooth="yes"/>
      <point x="1586.2" y="65.6"/>
      <point x="1574.0" y="79.4"/>
      <point x="1551.8" y="90.8" type="curve" smooth="yes"/>
      <point x="1516.0" y="99.2" type="line" smooth="yes"/>
      <point x="1486.4" y="108.0"/>
      <point x="1481.8" y="124.60000000000001"/>
      <point x="1476.0" y="168.8" type="curve" smooth="yes"/>
      <point x="1411.2" y="642.8" type="line" smooth="yes"/>
      <point x="1390.1137394813595" y="799.0724905481627"/>
      <point x="1322.157118353345" y="888.4"/>
      <point x="1180.4" y="888.4" type="curve" smooth="yes"/>
      <point x="1085.3990425050138" y="888.4"/>
      <point x="992.891897002977" y="837.5541703983977"/>
      <point x="871.4" y="715.6" type="curve" smooth="yes"/>
      <point x="830.6" y="675.2" type="line"/>
    </contour>
  </outline>
</glyph>
<glyph name="n" format="2">
  <advance width="1036.6"/>
  <unicode hex="006E"/>
  <anchor x="524.8" y="1013.0" name="center"/>
  <outline>
    <contour>
      <point x="342.8" y="825.8" type="line" smooth="yes"/>
      <point x="342.8" y="859.2"/>
      <point x="325.0" y="880.6"/>
      <point x="293.4" y="880.6" type="curve"/>
      <point x="273.6" y="880.6"/>
      <point x="253.8" y="876.2"/>
      <point x="209.8" y="860.2" type="curve" smooth="yes"/>
      <point x="81.2" y="814.2" type="line" smooth="yes"/>
      <point x="44.8" y="801.0"/>
      <point x="33.6" y="786.0"/>
      <point x="33.6" y="764.2" type="curve" smooth="yes"/>
      <point x="33.6" y="744.4"/>
      <point x="43.2" y="731.4"/>
      <point x="68.6" y="723.0" type="curve" smooth="yes"/>
      <point x="123.19999999999999" y="720.6" type="line" smooth="yes"/>
      <point x="149.2" y="714.6"/>
      <point x="158.8" y="702.0"/>
      <point x="158.8" y="662.6" type="curve" smooth="yes"/>
      <point x="158.8" y="168.8" type="line" smooth="yes"/>
      <point x="158.8" y="124.2"/>
      <point x="148.8" y="107.60000000000001"/>
      <point x="118.8" y="99.2" type="curve" smooth="yes"/>
      <point x="83.0" y="90.8" type="line" smooth="yes"/>
      <point x="60.4" y="79.80000000000001"/>
      <point x="49.0" y="65.6"/>
      <point x="49.0" y="43.2" type="curve" smooth="yes"/>
      <point x="49.0" y="15.600000000000001"/>
      <point x="66.6" y="0.0"/>
      <point x="99.0" y="0.0" type="curve" smooth="yes"/>
      <point x="401.8" y="0.0" type="line" smooth="yes"/>
      <point x="432.2" y="0.0"/>
      <point x="448.2" y="15.600000000000001"/>
      <point x="448.2" y="43.2" type="curve" smooth="yes"/>
      <point x="448.2" y="61.6"/>
      <point x="438.4" y="76.6"/>
      <point x="418.6" y="86.0" type="curve" smooth="yes"/>
      <point x="382.0" y="95.2" type="line" smooth="yes"/>
      <point x="351.6" y="104.4"/>
      <point x="342.8" y="122.2"/>
      <point x="342.8" y="168.8" type="curve" smooth="yes"/>
    </contour>
    <contour>
      <point x="319.20000000000005" y="618.8" type="line" smooth="yes"/>
      <point x="351.8" y="650.6" type="line" smooth="yes"/>
      <point x="423.5884836807935" y="721.1884836807935"/>
      <point x="483.0823104693141" y="750.6"/>
      <point x="542.4" y="750.6" type="curve" smooth="yes"/>
      <point x="622.8" y="750.6"/>
      <point x="663.6" y="696.4"/>
      <point x="678.0" y="595.0" type="curve" smooth="yes"/>
      <point x="740.4" y="164.8" type="line" smooth="yes"/>
      <point x="746.2" y="121.8"/>
      <point x="731.6" y="104.4"/>
      <point x="701.2" y="95.2" type="curve" smooth="yes"/>
      <point x="664.6" y="86.0" type="line" smooth="yes"/>
      <point x="644.8" y="77.4"/>
      <point x="634.6" y="62.0"/>
      <point x="634.6" y="43.2" type="curve" smooth="yes"/>
      <point x="634.6" y="15.600000000000001"/>
      <point x="650.6" y="0.0"/>
      <point x="681.0" y="0.0" type="curve" smooth="yes"/>
      <point x="985.0" y="0.0" type="line" smooth="yes"/>
      <point x="1017.4" y="0.0"/>
      <point x="1035.0" y="15.600000000000001"/>
      <point x="1035.0" y="43.2" type="curve" smooth="yes"/>
      <point x="1035.0" y="65.6"/>
      <point x="1022.8" y="79.4"/>
      <point x="1000.6" y="90.8" type="curve" smooth="yes"/>
      <point x="964.8" y="99.2" type="line" smooth="yes"/>
      <point x="935.2" y="108.0"/>
      <point x="930.2" y="124.60000000000001"/>
      <point x="924.8" y="168.8" type="curve" smooth="yes"/>
      <point x="857.4" y="662.8" type="line" smooth="yes"/>
      <point x="839.6" y="801.4"/>
      <point x="774.2" y="888.4"/>
      <point x="639.2" y="888.4" type="curve" smooth="yes"/>
      <point x="537.7478827361564" y="888.4"/>
      <point x="439.9408151506852" y="834.0579191911288"/>
      <point x="316.2" y="709.6" type="curve" smooth="yes"/>
      <point x="275.4" y="669.2" type="line"/>
    </contour>
  </outline>
</glyph>
<glyph name="o" format="2">
  <advance width="967.2"/>
  <unicode hex="006F"/>
  <outline>
    <contour>
      <point x="486.2" y="887.8" type="curve" smooth="yes"/>
      <point x="225.8" y="887.8"/>
      <point x="45.0" y="694.0"/>
      <point x="45.0" y="435.4" type="curve" smooth="yes"/>
      <point x="45.0" y="168.8"/>
      <point x="222.8" y="-18.8"/>
      <point x="480.0" y="-18.8" type="curve" smooth="yes"/>
      <point x="739.8" y="-18.8"/>
      <point x="921.2" y="175.0"/>
      <point x="921.2" y="433.6" type="curve" smooth="yes"/>
      <point x="921.2" y="700.2"/>
      <point x="742.8" y="887.8"/>
    </contour>
    <contour>
      <point x="556.6" y="87.0" type="curve" smooth="yes"/>
      <point x="411.8" y="59.2"/>
      <point x="284.8033001693665" y="165.3777474294148"/>
      <point x="243.4" y="388.2" type="curve" smooth="yes"/>
      <point x="204.9955920732172" y="590.8298269712303"/>
      <point x="273.6046324409785" y="755.401247195648"/>
      <point x="409.6" y="782.0" type="curve" smooth="yes"/>
      <point x="554.9839312397862" y="809.7957554218303"/>
      <point x="681.398894080439" y="703.6074570576112"/>
      <point x="722.8" y="480.8" type="curve" smooth="yes"/>
      <point x="761.2014814420713" y="278.1899755753172"/>
      <point x="692.6" y="114.2"/>
    </contour>
  </outline>
</glyph>
